<?xml version="1.0" encoding="utf-8"?>
<!-- Generator: Adobe Illustrator 22.0.1, SVG Export Plug-In . SVG Version: 6.00 Build 0)  -->
<svg version="1.1" id="Capa_1" xmlns="http://www.w3.org/2000/svg" xmlns:xlink="http://www.w3.org/1999/xlink" x="0px" y="0px"
	 viewBox="0 0 14.3 14.3" style="enable-background:new 0 0 14.3 14.3;" xml:space="preserve">
<style type="text/css">
	.st0{fill:#414141;}
	.st1{fill:#FFFFFF;}
	.st2{fill:#F2F2F2;}
	.st3{fill:#4D4D4D;}
</style>
<text transform="matrix(1 0 0 1 -629.73 314.662)"><tspan x="0" y="0" style="font-family:'Poppins-Black'; font-size:100px;">Redbone</tspan><tspan x="81.8" y="38" style="font-family:'Poppins-Light'; font-size:30px; letter-spacing:27;">RECORDS</tspan></text>
<g>
	<path class="st0" d="M846.9,272.7l-13.4-25.4v25.4h-22.2v-70.8h33c5.7,0,10.6,1,14.7,3c4.1,2,7.1,4.8,9.1,8.3c2,3.5,3,7.5,3,11.9
		c0,4.7-1.3,8.9-3.9,12.6c-2.6,3.7-6.4,6.3-11.4,7.9l15.4,27.1H846.9z M833.5,232.5h8.8c2.1,0,3.7-0.5,4.8-1.5
		c1.1-1,1.6-2.5,1.6-4.5c0-1.9-0.5-3.3-1.7-4.4c-1.1-1.1-2.7-1.6-4.8-1.6h-8.8V232.5z"/>
	<path class="st0" d="M932.4,248.4h-35.5c0.2,2.8,0.8,4.7,1.9,5.8c1.1,1,2.5,1.5,4.2,1.5c2.4,0,4.1-1.1,5.2-3.3h23.5
		c-0.8,4-2.5,7.6-5,10.7c-2.6,3.2-5.8,5.7-9.7,7.5c-3.9,1.8-8.2,2.8-12.8,2.8c-5.6,0-10.6-1.2-15-3.5c-4.4-2.3-7.8-5.7-10.2-10
		c-2.4-4.4-3.7-9.5-3.7-15.4c0-5.9,1.2-11,3.7-15.3c2.4-4.4,5.8-7.7,10.2-10c4.4-2.3,9.4-3.5,15-3.5s10.6,1.1,14.9,3.4
		c4.4,2.3,7.8,5.6,10.2,9.9c2.4,4.3,3.6,9.3,3.6,15.1C932.9,245.4,932.7,246.8,932.4,248.4z M910.4,239.3c0-2.1-0.6-3.7-1.8-4.8
		c-1.2-1-2.7-1.5-4.5-1.5c-4.1,0-6.4,2.1-7,6.3H910.4z"/>
	<path class="st0" d="M969.6,217.8c2.6,1.5,4.7,3.5,6.1,6.1v-25.3h22.2v74h-22.2V265c-1.4,2.6-3.4,4.7-6.1,6.2
		c-2.6,1.5-5.8,2.2-9.4,2.2c-4.4,0-8.4-1.2-11.9-3.5c-3.5-2.3-6.3-5.6-8.3-10c-2-4.4-3.1-9.5-3.1-15.5c0-5.9,1-11.1,3.1-15.5
		c2-4.4,4.8-7.7,8.3-10c3.5-2.3,7.5-3.4,11.9-3.4C963.8,215.6,967,216.3,969.6,217.8z M961.7,237.5c-1.5,1.7-2.3,4-2.3,7
		s0.8,5.3,2.3,7c1.5,1.7,3.5,2.5,5.9,2.5c2.4,0,4.4-0.8,5.9-2.5c1.5-1.7,2.3-4,2.3-7s-0.8-5.3-2.3-7c-1.5-1.7-3.5-2.5-5.9-2.5
		C965.2,235,963.2,235.8,961.7,237.5z"/>
	<path class="st0" d="M1057.5,219c3.5,2.3,6.3,5.6,8.3,10c2,4.4,3.1,9.5,3.1,15.5c0,5.9-1,11.1-3.1,15.5c-2,4.4-4.8,7.7-8.3,10
		c-3.5,2.3-7.5,3.5-11.9,3.5c-3.7,0-6.8-0.8-9.4-2.2c-2.6-1.5-4.7-3.5-6.1-6.2v7.7h-22.2v-74h22.2V224c1.4-2.6,3.4-4.6,6.1-6.1
		c2.6-1.5,5.8-2.2,9.4-2.2C1050,215.6,1053.9,216.7,1057.5,219z M1032.3,237.5c-1.5,1.7-2.3,4-2.3,7s0.8,5.3,2.3,7
		c1.5,1.7,3.5,2.5,5.9,2.5c2.4,0,4.4-0.8,5.9-2.5c1.5-1.7,2.3-4,2.3-7s-0.8-5.3-2.3-7c-1.5-1.7-3.5-2.5-5.9-2.5
		C1035.8,235,1033.8,235.8,1032.3,237.5z"/>
	<path class="st0" d="M1118,219.1c4.5,2.3,8.1,5.7,10.6,10c2.6,4.4,3.9,9.5,3.9,15.3c0,5.9-1.3,11-3.9,15.4
		c-2.6,4.4-6.1,7.7-10.6,10c-4.5,2.3-9.6,3.5-15.3,3.5c-5.7,0-10.8-1.2-15.3-3.5c-4.5-2.3-8.1-5.7-10.6-10
		c-2.6-4.4-3.9-9.5-3.9-15.4c0-5.9,1.3-11,3.9-15.3c2.6-4.4,6.1-7.7,10.6-10c4.5-2.3,9.6-3.5,15.3-3.5
		C1108.3,215.6,1113.4,216.7,1118,219.1z M1097.5,237.2c-1.4,1.6-2.1,4-2.1,7.2s0.7,5.6,2,7.2c1.4,1.6,3.1,2.5,5.2,2.5
		c2.1,0,3.8-0.8,5.2-2.5c1.4-1.6,2.1-4,2.1-7.2s-0.7-5.6-2.1-7.2c-1.4-1.6-3.1-2.5-5.2-2.5S1098.9,235.6,1097.5,237.2z"/>
	<path class="st0" d="M1194.1,222.4c3.6,4.3,5.4,10.2,5.4,17.6v32.7h-22.1v-29.9c0-2.7-0.7-4.8-2.2-6.3c-1.4-1.6-3.3-2.3-5.8-2.3
		c-2.5,0-4.4,0.8-5.8,2.3c-1.4,1.6-2.1,3.7-2.1,6.3v29.9h-22.2v-56.4h22.2v8.6c1.7-2.7,4-4.8,7-6.5c2.9-1.7,6.3-2.5,10.3-2.5
		C1185.4,215.9,1190.5,218,1194.1,222.4z"/>
	<path class="st0" d="M1263.3,248.4h-35.5c0.2,2.8,0.8,4.7,1.9,5.8c1.1,1,2.5,1.5,4.2,1.5c2.4,0,4.1-1.1,5.2-3.3h23.5
		c-0.8,4-2.5,7.6-5.1,10.7c-2.6,3.2-5.8,5.7-9.7,7.5c-3.9,1.8-8.2,2.8-12.9,2.8c-5.6,0-10.6-1.2-15-3.5c-4.4-2.3-7.8-5.7-10.2-10
		c-2.4-4.4-3.7-9.5-3.7-15.4c0-5.9,1.2-11,3.7-15.3c2.4-4.4,5.8-7.7,10.2-10c4.4-2.3,9.4-3.5,15-3.5c5.6,0,10.6,1.1,15,3.4
		c4.4,2.3,7.8,5.6,10.2,9.9c2.4,4.3,3.6,9.3,3.6,15.1C1263.8,245.4,1263.6,246.8,1263.3,248.4z M1241.3,239.3c0-2.1-0.6-3.7-1.8-4.8
		c-1.2-1-2.7-1.5-4.5-1.5c-4.1,0-6.4,2.1-7,6.3H1241.3z"/>
	<path class="st0" d="M946.5,298.7l-3.9-5.9h-2.3v5.9h-1.4v-14.1h4.3c1.6,0,2.8,0.4,3.6,1.1c0.8,0.7,1.2,1.8,1.2,3
		c0,1.2-0.3,2.1-1,2.8s-1.6,1.1-2.9,1.2l4,5.9H946.5z M940.3,291.7h2.8c2.3,0,3.4-1,3.4-2.9c0-2-1.1-3-3.4-3h-2.8V291.7z"/>
	<path class="st0" d="M969.7,285.7v5.3h5.5v1.1h-5.5v5.4h6.1v1.2h-7.5v-14.1h7.5v1.1H969.7z"/>
	<path class="st0" d="M1006.7,285.7c1.1,0.8,1.9,1.9,2.3,3.4h-1.5c-0.4-1-1-1.8-1.9-2.4c-0.9-0.6-1.9-0.9-3.2-0.9
		c-1,0-1.9,0.2-2.7,0.7c-0.8,0.5-1.4,1.2-1.9,2.1c-0.5,0.9-0.7,1.9-0.7,3.1s0.2,2.2,0.7,3.1s1.1,1.6,1.9,2c0.8,0.5,1.7,0.7,2.7,0.7
		c1.3,0,2.4-0.3,3.2-0.9c0.9-0.6,1.5-1.4,1.9-2.4h1.5c-0.5,1.4-1.2,2.6-2.3,3.4c-1.1,0.8-2.5,1.2-4.2,1.2c-1.3,0-2.4-0.3-3.5-0.9
		c-1-0.6-1.8-1.5-2.4-2.6c-0.6-1.1-0.8-2.3-0.8-3.7c0-1.4,0.3-2.6,0.8-3.7c0.6-1.1,1.3-1.9,2.4-2.6c1-0.6,2.2-0.9,3.5-0.9
		C1004.2,284.4,1005.6,284.8,1006.7,285.7z"/>
	<path class="st0" d="M1039.5,285.3c1,0.6,1.9,1.5,2.4,2.6c0.6,1.1,0.9,2.3,0.9,3.7s-0.3,2.6-0.9,3.7s-1.4,2-2.4,2.6
		c-1,0.6-2.2,0.9-3.5,0.9s-2.5-0.3-3.5-0.9c-1-0.6-1.9-1.5-2.4-2.6c-0.6-1.1-0.9-2.3-0.9-3.7s0.3-2.6,0.9-3.7
		c0.6-1.1,1.4-1.9,2.4-2.6c1-0.6,2.2-0.9,3.5-0.9S1038.4,284.7,1039.5,285.3z M1033.2,286.4c-0.8,0.5-1.5,1.2-1.9,2.1
		c-0.5,0.9-0.7,1.9-0.7,3.1c0,1.2,0.2,2.2,0.7,3.1c0.5,0.9,1.1,1.6,1.9,2.1c0.8,0.5,1.7,0.7,2.8,0.7s2-0.2,2.8-0.7
		c0.8-0.5,1.5-1.2,1.9-2.1c0.5-0.9,0.7-1.9,0.7-3.1c0-1.2-0.2-2.2-0.7-3.1c-0.5-0.9-1.1-1.6-1.9-2.1c-0.8-0.5-1.7-0.7-2.8-0.7
		S1034,285.9,1033.2,286.4z"/>
	<path class="st0" d="M1070.9,298.7l-3.9-5.9h-2.3v5.9h-1.4v-14.1h4.3c1.6,0,2.8,0.4,3.6,1.1c0.8,0.7,1.2,1.8,1.2,3
		c0,1.2-0.3,2.1-1,2.8s-1.6,1.1-2.9,1.2l4,5.9H1070.9z M1064.8,291.7h2.8c2.3,0,3.4-1,3.4-2.9c0-2-1.1-3-3.4-3h-2.8V291.7z"/>
	<path class="st0" d="M1103.6,295.4c-0.6,1.1-1.4,1.9-2.5,2.4s-2.5,0.8-4,0.8h-4.3v-14.1h4.3c2.4,0,4.2,0.6,5.5,1.9
		c1.3,1.2,1.9,3,1.9,5.2C1104.4,293.1,1104.2,294.3,1103.6,295.4z M1101.5,295.9c1-1,1.6-2.4,1.6-4.3c0-1.8-0.5-3.2-1.6-4.3
		c-1-1-2.6-1.5-4.5-1.5h-2.7v11.6h2.7C1098.9,297.4,1100.4,296.9,1101.5,295.9z"/>
	<path class="st0" d="M1133.1,296.9c-0.3,0.6-0.8,1-1.4,1.4c-0.6,0.4-1.4,0.5-2.3,0.5c-0.9,0-1.7-0.2-2.4-0.5
		c-0.7-0.3-1.3-0.8-1.7-1.4s-0.7-1.2-0.7-1.9h1.5c0.1,0.4,0.2,0.8,0.5,1.2c0.3,0.4,0.6,0.8,1.1,1s1.1,0.4,1.7,0.4
		c0.9,0,1.6-0.2,2-0.7c0.5-0.5,0.7-1.1,0.7-1.8c0-0.6-0.2-1.1-0.5-1.5c-0.3-0.4-0.7-0.7-1.2-0.9c-0.5-0.2-1.1-0.4-1.9-0.7
		c-0.9-0.3-1.6-0.6-2.1-0.8c-0.5-0.3-1-0.6-1.4-1.2c-0.4-0.5-0.6-1.2-0.6-2c0-1.1,0.4-1.9,1.1-2.6c0.7-0.7,1.8-1,3.1-1
		c1.3,0,2.4,0.3,3.2,1c0.8,0.7,1.2,1.5,1.4,2.4h-1.5c-0.1-0.6-0.4-1.1-0.9-1.6c-0.5-0.5-1.2-0.7-2.1-0.7c-0.8,0-1.5,0.2-2,0.6
		s-0.7,1-0.7,1.8c0,0.6,0.2,1.1,0.5,1.5s0.7,0.7,1.1,0.9c0.4,0.2,1.1,0.4,1.8,0.7c0.9,0.3,1.6,0.6,2.2,0.8c0.6,0.3,1,0.7,1.4,1.2
		c0.4,0.5,0.6,1.2,0.6,2.1C1133.6,295.7,1133.4,296.3,1133.1,296.9z"/>
</g>
<path class="st1" d="M7.2-26.2c-1.3,0-2.4,1.1-2.4,2.4c0,1.3,1.1,2.4,2.4,2.4c1.3,0,2.4-1.1,2.4-2.4C9.6-25.1,8.5-26.2,7.2-26.2z
	 M7.2-26.2c-1.3,0-2.4,1.1-2.4,2.4c0,1.3,1.1,2.4,2.4,2.4c1.3,0,2.4-1.1,2.4-2.4C9.6-25.1,8.5-26.2,7.2-26.2z M13-24
	c0-0.6,0-1.1,0-1.7c0-0.5,0-1.1-0.1-1.6c-0.1-1.2-0.8-2-2-2.3c-0.6-0.1-1.3-0.1-1.9-0.1c-1.2,0-2.4,0-3.6,0c-0.6,0-1.2,0-1.8,0.1
	c-1,0.2-1.7,0.8-2,1.8c-0.1,0.3-0.1,0.7-0.2,1c0,1.3,0,2.6,0,3.9c0,0.8,0,1.7,0.1,2.5c0.1,1.2,0.8,2,2,2.3C4.1-18,4.7-18,5.4-18
	c1.2,0,2.4,0,3.6,0c0.5,0,1.1,0,1.6-0.1c0.5-0.1,1-0.2,1.4-0.5c0.7-0.5,0.9-1.3,1-2.1C13-21.8,13-22.9,13-24C13.1-23.9,13-24,13-24z
	 M7.2-20.2c-2,0-3.7-1.6-3.7-3.7c0-2,1.7-3.6,3.7-3.6c2,0,3.6,1.7,3.6,3.7C10.8-21.8,9.2-20.2,7.2-20.2z M11-26.8
	c-0.5,0-0.9-0.4-0.9-0.9c0-0.5,0.4-0.9,0.9-0.8c0.5,0,0.9,0.4,0.8,0.9C11.8-27.2,11.5-26.8,11-26.8z M7.2-26.2
	c-1.3,0-2.4,1.1-2.4,2.4c0,1.3,1.1,2.4,2.4,2.4c1.3,0,2.4-1.1,2.4-2.4C9.6-25.1,8.5-26.2,7.2-26.2z M13-24c0-0.6,0-1.1,0-1.7
	c0-0.5,0-1.1-0.1-1.6c-0.1-1.2-0.8-2-2-2.3c-0.6-0.1-1.3-0.1-1.9-0.1c-1.2,0-2.4,0-3.6,0c-0.6,0-1.2,0-1.8,0.1c-1,0.2-1.7,0.8-2,1.8
	c-0.1,0.3-0.1,0.7-0.2,1c0,1.3,0,2.6,0,3.9c0,0.8,0,1.7,0.1,2.5c0.1,1.2,0.8,2,2,2.3C4.1-18,4.7-18,5.4-18c1.2,0,2.4,0,3.6,0
	c0.5,0,1.1,0,1.6-0.1c0.5-0.1,1-0.2,1.4-0.5c0.7-0.5,0.9-1.3,1-2.1C13-21.8,13-22.9,13-24C13.1-23.9,13-24,13-24z M7.2-20.2
	c-2,0-3.7-1.6-3.7-3.7c0-2,1.7-3.6,3.7-3.6c2,0,3.6,1.7,3.6,3.7C10.8-21.8,9.2-20.2,7.2-20.2z M11-26.8c-0.5,0-0.9-0.4-0.9-0.9
	c0-0.5,0.4-0.9,0.9-0.8c0.5,0,0.9,0.4,0.8,0.9C11.8-27.2,11.5-26.8,11-26.8z M7.2-26.2c-1.3,0-2.4,1.1-2.4,2.4
	c0,1.3,1.1,2.4,2.4,2.4c1.3,0,2.4-1.1,2.4-2.4C9.6-25.1,8.5-26.2,7.2-26.2z M7.2-36.3c-6.9,0-12.5,5.6-12.5,12.5S0.3-11.3,7.2-11.3
	c6.9,0,12.5-5.6,12.5-12.5S14.1-36.3,7.2-36.3z M14.3-20.9c0,0.8-0.2,1.6-0.6,2.4c-0.6,1-1.4,1.5-2.5,1.7c-0.7,0.1-1.3,0.2-2,0.2
	c-1.4,0-2.8,0-4.3,0c-0.7,0-1.5,0-2.2-0.3c-1.4-0.5-2.2-1.5-2.5-2.9c-0.1-0.6-0.2-1.3-0.2-2c0-1.4,0-2.8,0-4.3c0-0.8,0-1.5,0.3-2.2
	c0.5-1.4,1.5-2.2,2.9-2.5c0.6-0.1,1.3-0.2,2-0.2c1.4,0,2.8,0,4.3,0c0.7,0,1.5,0,2.2,0.3c1.4,0.5,2.2,1.5,2.5,2.9
	c0.1,0.6,0.1,1.3,0.2,2c0,0.7,0,1.3,0,2h0C14.3-22.9,14.3-21.9,14.3-20.9z M13-25.6c0-0.5,0-1.1-0.1-1.6c-0.1-1.2-0.8-2-2-2.3
	c-0.6-0.1-1.3-0.1-1.9-0.1c-1.2,0-2.4,0-3.6,0c-0.6,0-1.2,0-1.8,0.1c-1,0.2-1.7,0.8-2,1.8c-0.1,0.3-0.1,0.7-0.2,1c0,1.3,0,2.6,0,3.9
	c0,0.8,0,1.7,0.1,2.5c0.1,1.2,0.8,2,2,2.3C4.1-18,4.7-18,5.4-18c1.2,0,2.4,0,3.6,0c0.5,0,1.1,0,1.6-0.1c0.5-0.1,1-0.2,1.4-0.5
	c0.7-0.5,0.9-1.3,1-2.1c0.1-1.1,0.1-2.2,0.1-3.3c0,0,0,0,0,0C13-24.5,13-25.1,13-25.6z M7.2-20.2c-2,0-3.7-1.6-3.7-3.7
	c0-2,1.7-3.6,3.7-3.6c2,0,3.6,1.7,3.6,3.7C10.8-21.8,9.2-20.2,7.2-20.2z M11-26.8c-0.5,0-0.9-0.4-0.9-0.9c0-0.5,0.4-0.9,0.9-0.8
	c0.5,0,0.9,0.4,0.8,0.9C11.8-27.2,11.5-26.8,11-26.8z M7.2-26.2c-1.3,0-2.4,1.1-2.4,2.4c0,1.3,1.1,2.4,2.4,2.4
	c1.3,0,2.4-1.1,2.4-2.4C9.6-25.1,8.5-26.2,7.2-26.2z M7.2-26.2c-1.3,0-2.4,1.1-2.4,2.4c0,1.3,1.1,2.4,2.4,2.4c1.3,0,2.4-1.1,2.4-2.4
	C9.6-25.1,8.5-26.2,7.2-26.2z M7.2-26.2c-1.3,0-2.4,1.1-2.4,2.4c0,1.3,1.1,2.4,2.4,2.4c1.3,0,2.4-1.1,2.4-2.4
	C9.6-25.1,8.5-26.2,7.2-26.2z M13-24c0-0.6,0-1.1,0-1.7c0-0.5,0-1.1-0.1-1.6c-0.1-1.2-0.8-2-2-2.3c-0.6-0.1-1.3-0.1-1.9-0.1
	c-1.2,0-2.4,0-3.6,0c-0.6,0-1.2,0-1.8,0.1c-1,0.2-1.7,0.8-2,1.8c-0.1,0.3-0.1,0.7-0.2,1c0,1.3,0,2.6,0,3.9c0,0.8,0,1.7,0.1,2.5
	c0.1,1.2,0.8,2,2,2.3C4.1-18,4.7-18,5.4-18c1.2,0,2.4,0,3.6,0c0.5,0,1.1,0,1.6-0.1c0.5-0.1,1-0.2,1.4-0.5c0.7-0.5,0.9-1.3,1-2.1
	C13-21.8,13-22.9,13-24C13.1-23.9,13-24,13-24z M7.2-20.2c-2,0-3.7-1.6-3.7-3.7c0-2,1.7-3.6,3.7-3.6c2,0,3.6,1.7,3.6,3.7
	C10.8-21.8,9.2-20.2,7.2-20.2z M11-26.8c-0.5,0-0.9-0.4-0.9-0.9c0-0.5,0.4-0.9,0.9-0.8c0.5,0,0.9,0.4,0.8,0.9
	C11.8-27.2,11.5-26.8,11-26.8z M7.2-26.2c-1.3,0-2.4,1.1-2.4,2.4c0,1.3,1.1,2.4,2.4,2.4c1.3,0,2.4-1.1,2.4-2.4
	C9.6-25.1,8.5-26.2,7.2-26.2z M7.2-26.2c-1.3,0-2.4,1.1-2.4,2.4c0,1.3,1.1,2.4,2.4,2.4c1.3,0,2.4-1.1,2.4-2.4
	C9.6-25.1,8.5-26.2,7.2-26.2z M7.2-26.2c-1.3,0-2.4,1.1-2.4,2.4c0,1.3,1.1,2.4,2.4,2.4c1.3,0,2.4-1.1,2.4-2.4
	C9.6-25.1,8.5-26.2,7.2-26.2z M13-24c0-0.6,0-1.1,0-1.7c0-0.5,0-1.1-0.1-1.6c-0.1-1.2-0.8-2-2-2.3c-0.6-0.1-1.3-0.1-1.9-0.1
	c-1.2,0-2.4,0-3.6,0c-0.6,0-1.2,0-1.8,0.1c-1,0.2-1.7,0.8-2,1.8c-0.1,0.3-0.1,0.7-0.2,1c0,1.3,0,2.6,0,3.9c0,0.8,0,1.7,0.1,2.5
	c0.1,1.2,0.8,2,2,2.3C4.1-18,4.7-18,5.4-18c1.2,0,2.4,0,3.6,0c0.5,0,1.1,0,1.6-0.1c0.5-0.1,1-0.2,1.4-0.5c0.7-0.5,0.9-1.3,1-2.1
	C13-21.8,13-22.9,13-24C13.1-23.9,13-24,13-24z M7.2-20.2c-2,0-3.7-1.6-3.7-3.7c0-2,1.7-3.6,3.7-3.6c2,0,3.6,1.7,3.6,3.7
	C10.8-21.8,9.2-20.2,7.2-20.2z M11-26.8c-0.5,0-0.9-0.4-0.9-0.9c0-0.5,0.4-0.9,0.9-0.8c0.5,0,0.9,0.4,0.8,0.9
	C11.8-27.2,11.5-26.8,11-26.8z M7.2-26.2c-1.3,0-2.4,1.1-2.4,2.4c0,1.3,1.1,2.4,2.4,2.4c1.3,0,2.4-1.1,2.4-2.4
	C9.6-25.1,8.5-26.2,7.2-26.2z"/>
<path class="st1" d="M-33.2-36.3c-6.9,0-12.5,5.6-12.5,12.5s5.6,12.5,12.5,12.5s12.5-5.6,12.5-12.5S-26.3-36.3-33.2-36.3z
	 M-29.4-31.4c0,0.7,0,1.4,0,2c0,0.2-0.1,0.3-0.3,0.3c-0.4,0-0.8,0-1.2,0c-0.6,0-0.9,0.3-0.9,0.9c0,0.4,0,0.8,0,1.1
	c0,0.2,0.1,0.3,0.3,0.3c0.6,0,1.2,0,1.7,0c0.3,0,0.4,0.1,0.4,0.4c-0.1,0.7-0.2,1.4-0.2,2.1c0,0.3-0.2,0.4-0.5,0.4
	c-0.6,0-1.1,0-1.7,0v1.7c0,1.9,0,3.9,0,5.8c0,0.5,0,0.5-0.5,0.5c-0.8,0-1.6,0-2.5,0c-0.4,0-0.5,0-0.5-0.5c0-2.3,0-4.7,0-7
	c0-0.5,0-0.5-0.5-0.5c-0.3,0-0.6,0-0.8,0c-0.2,0-0.3-0.1-0.3-0.3c0-0.7,0-1.5,0-2.2c0-0.2,0.1-0.3,0.3-0.3c0.3,0,0.7,0,1,0
	c0.2,0,0.3-0.1,0.3-0.3c0-0.8,0-1.5,0.1-2.2c0.1-1.5,1.3-2.6,2.8-2.6c0.9,0,1.7,0,2.6-0.1C-29.5-31.9-29.4-31.7-29.4-31.4z"/>
<path class="st1" d="M47.7-36.3c-6.9,0-12.5,5.6-12.5,12.5s5.6,12.5,12.5,12.5s12.5-5.6,12.5-12.5S54.6-36.3,47.7-36.3z M54.9-28.3
	c-0.4,0.5-0.8,1-1.4,1.4c-0.1,0-0.1,0.1-0.1,0.2c0,0.7,0,1.4-0.2,2c-0.4,1.6-1.1,3-2.2,4.2c-1,1-2.1,1.7-3.5,2.2
	c-0.7,0.2-1.4,0.3-2.1,0.4c-0.7,0-1.4,0-2.1-0.1c-0.9-0.2-1.8-0.5-2.6-1c-0.1-0.1-0.2-0.1-0.4-0.2c0,0,0,0,0,0
	c0.8,0.1,1.6,0,2.3-0.2c0.8-0.2,1.4-0.6,2.1-1.1c-1.5-0.1-2.5-1.1-2.8-2.1c0.2,0,0.4,0.1,0.7,0c0.2,0,0.6-0.1,0.7-0.1
	c-0.7-0.2-1.3-0.5-1.7-1.1c-0.4-0.6-0.7-1.2-0.7-1.9c0.2,0.1,0.4,0.2,0.6,0.3c0.2,0.1,0.5,0.1,0.7,0.1c0,0,0,0,0,0c0,0,0,0,0,0
	c-0.2-0.1-0.4-0.3-0.5-0.4c-0.6-0.7-0.9-1.6-0.7-2.6c0.1-0.3,0.2-0.6,0.3-0.9c0,0,0,0,0.1,0c0,0,0,0,0,0c1.2,1.4,2.6,2.3,4.3,2.8
	c0.6,0.1,1.1,0.2,1.7,0.3c0,0,0.1,0,0-0.1c-0.1-0.4-0.1-0.8,0-1.1c0.2-1.3,1.2-2.3,2.5-2.4c0.1,0,0.1,0,0.2,0h0c0,0,0,0,0,0
	c0.1,0,0.2,0,0.4,0c0.1,0,0.2,0,0.3,0c0.6,0.1,1.2,0.4,1.6,0.9c0,0,0,0,0.1,0c0.6-0.1,1.2-0.4,1.8-0.7c0,0,0,0,0.1,0
	c-0.2,0.7-0.7,1.2-1.3,1.6c0.3,0,0.6-0.1,0.8-0.2C54.3-28.2,54.6-28.3,54.9-28.3C54.9-28.4,54.9-28.3,54.9-28.3z"/>
<path class="st1" d="M88.4-36.3c-6.9,0-12.5,5.6-12.5,12.5s5.6,12.5,12.5,12.5c6.9,0,12.5-5.6,12.5-12.5S95.3-36.3,88.4-36.3z
	 M95.6-22.8c0,0.5-0.1,1-0.1,1.5c0,0.4-0.1,0.7-0.2,1c-0.2,0.7-0.7,1.2-1.5,1.3c-0.4,0.1-0.8,0.1-1.2,0.1c-0.7,0-1.3,0.1-2,0.1
	c-0.5,0-1.1,0-1.6,0c0,0-0.1,0-0.1,0h-0.8c0,0,0,0-0.1,0c-0.3,0-0.7,0-1,0c-0.4,0-0.9,0-1.3,0c-0.7,0-1.3,0-2-0.1
	c-0.3,0-0.7-0.1-1-0.1c-0.5-0.1-0.9-0.4-1.1-0.9c-0.2-0.4-0.3-0.7-0.3-1.1c-0.1-0.6-0.1-1.3-0.1-1.9c0-0.6,0-1.2,0-1.8
	c0-0.5,0.1-1,0.1-1.5c0-0.4,0.1-0.8,0.2-1.2c0.3-0.7,0.8-1.2,1.6-1.3c0.4-0.1,0.9-0.1,1.3-0.1c0.5,0,1.1,0,1.6-0.1
	c0.6,0,1.1,0,1.7,0c0,0,0.1,0,0.1,0H89c0,0,0,0,0.1,0c0.4,0,0.8,0,1.2,0c0.3,0,0.7,0,1,0c0.6,0,1.3,0,1.9,0.1c0.3,0,0.5,0,0.8,0.1
	c0.6,0.1,1,0.4,1.2,0.9c0.2,0.3,0.3,0.7,0.3,1c0.1,0.5,0.1,1.1,0.1,1.6C95.6-24.4,95.6-23.6,95.6-22.8z M86.9-22
	c1.3-0.7,2.6-1.3,3.9-2c-1.3-0.7-2.6-1.4-3.9-2V-22z"/>
<path class="st0" d="M7.2,4.8c-1.3,0-2.4,1.1-2.4,2.4c0,1.3,1.1,2.4,2.4,2.4c1.3,0,2.4-1.1,2.4-2.4C9.6,5.9,8.5,4.8,7.2,4.8z
	 M7.2,4.8c-1.3,0-2.4,1.1-2.4,2.4c0,1.3,1.1,2.4,2.4,2.4c1.3,0,2.4-1.1,2.4-2.4C9.6,5.9,8.5,4.8,7.2,4.8z M13,7c0-0.6,0-1.1,0-1.7
	c0-0.5,0-1.1-0.1-1.6c-0.1-1.2-0.8-2-2-2.3C10.3,1.3,9.6,1.3,9,1.3c-1.2,0-2.4,0-3.6,0c-0.6,0-1.2,0-1.8,0.1c-1,0.2-1.7,0.8-2,1.8
	c-0.1,0.3-0.1,0.7-0.2,1c0,1.3,0,2.6,0,3.9c0,0.8,0,1.7,0.1,2.5c0.1,1.2,0.8,2,2,2.3C4.1,13,4.7,13,5.4,13c1.2,0,2.4,0,3.6,0
	c0.5,0,1.1,0,1.6-0.1c0.5-0.1,1-0.2,1.4-0.5c0.7-0.5,0.9-1.3,1-2.1C13,9.2,13,8.1,13,7C13.1,7.1,13,7,13,7z M7.2,10.8
	c-2,0-3.7-1.6-3.7-3.7c0-2,1.7-3.6,3.7-3.6c2,0,3.6,1.7,3.6,3.7C10.8,9.2,9.2,10.8,7.2,10.8z M11,4.2c-0.5,0-0.9-0.4-0.9-0.9
	c0-0.5,0.4-0.9,0.9-0.8c0.5,0,0.9,0.4,0.8,0.9C11.8,3.8,11.5,4.2,11,4.2z M7.2,4.8c-1.3,0-2.4,1.1-2.4,2.4c0,1.3,1.1,2.4,2.4,2.4
	c1.3,0,2.4-1.1,2.4-2.4C9.6,5.9,8.5,4.8,7.2,4.8z M7.2,10.8c-2,0-3.7-1.6-3.7-3.7c0-2,1.7-3.6,3.7-3.6c2,0,3.6,1.7,3.6,3.7
	C10.8,9.2,9.2,10.8,7.2,10.8z M11,4.2c-0.5,0-0.9-0.4-0.9-0.9c0-0.5,0.4-0.9,0.9-0.8c0.5,0,0.9,0.4,0.8,0.9
	C11.8,3.8,11.5,4.2,11,4.2z M7.2,4.8c-1.3,0-2.4,1.1-2.4,2.4c0,1.3,1.1,2.4,2.4,2.4c1.3,0,2.4-1.1,2.4-2.4C9.6,5.9,8.5,4.8,7.2,4.8z
	 M14.3,10.1c0,0.8-0.2,1.6-0.6,2.4c-0.6,1-1.4,1.5-2.5,1.7c-0.7,0.1-1.3,0.2-2,0.2c-1.4,0-2.8,0-4.3,0c-0.7,0-1.5,0-2.2-0.3
	c-1.4-0.5-2.2-1.5-2.5-2.9C0.1,10.5,0,9.8,0,9.2c0-1.4,0-2.8,0-4.3c0-0.8,0-1.5,0.3-2.2c0.5-1.4,1.5-2.2,2.9-2.5
	C3.8,0.1,4.5,0,5.2,0C6.6,0,8,0,9.4,0c0.7,0,1.5,0,2.2,0.3c1.4,0.5,2.2,1.5,2.5,2.9c0.1,0.6,0.1,1.3,0.2,2c0,0.7,0,1.3,0,2h0
	C14.3,8.1,14.3,9.1,14.3,10.1z M7.2,10.8c-2,0-3.7-1.6-3.7-3.7c0-2,1.7-3.6,3.7-3.6c2,0,3.6,1.7,3.6,3.7C10.8,9.2,9.2,10.8,7.2,10.8
	z M11,4.2c-0.5,0-0.9-0.4-0.9-0.9c0-0.5,0.4-0.9,0.9-0.8c0.5,0,0.9,0.4,0.8,0.9C11.8,3.8,11.5,4.2,11,4.2z M7.2,10.8
	c-2,0-3.7-1.6-3.7-3.7c0-2,1.7-3.6,3.7-3.6c2,0,3.6,1.7,3.6,3.7C10.8,9.2,9.2,10.8,7.2,10.8z M11,4.2c-0.5,0-0.9-0.4-0.9-0.9
	c0-0.5,0.4-0.9,0.9-0.8c0.5,0,0.9,0.4,0.8,0.9C11.8,3.8,11.5,4.2,11,4.2z M11,4.2c-0.5,0-0.9-0.4-0.9-0.9c0-0.5,0.4-0.9,0.9-0.8
	c0.5,0,0.9,0.4,0.8,0.9C11.8,3.8,11.5,4.2,11,4.2z"/>
<path class="st0" d="M-29.4-0.4c0,0.7,0,1.4,0,2c0,0.2-0.1,0.3-0.3,0.3c-0.4,0-0.8,0-1.2,0c-0.6,0-0.9,0.3-0.9,0.9
	c0,0.4,0,0.8,0,1.1c0,0.2,0.1,0.3,0.3,0.3c0.6,0,1.2,0,1.7,0c0.3,0,0.4,0.1,0.4,0.4c-0.1,0.7-0.2,1.4-0.2,2.1c0,0.3-0.2,0.4-0.5,0.4
	c-0.6,0-1.1,0-1.7,0v1.7c0,1.9,0,3.9,0,5.8c0,0.5,0,0.5-0.5,0.5c-0.8,0-1.6,0-2.5,0c-0.4,0-0.5,0-0.5-0.5c0-2.3,0-4.7,0-7
	c0-0.5,0-0.5-0.5-0.5c-0.3,0-0.6,0-0.8,0c-0.2,0-0.3-0.1-0.3-0.3c0-0.7,0-1.5,0-2.2c0-0.2,0.1-0.3,0.3-0.3c0.3,0,0.7,0,1,0
	c0.2,0,0.3-0.1,0.3-0.3c0-0.8,0-1.5,0.1-2.2c0.1-1.5,1.3-2.6,2.8-2.6c0.9,0,1.7,0,2.6-0.1C-29.5-0.9-29.4-0.7-29.4-0.4z"/>
<path class="st0" d="M54.9,2.7c-0.4,0.5-0.8,1-1.4,1.4c-0.1,0-0.1,0.1-0.1,0.2c0,0.7,0,1.4-0.2,2c-0.4,1.6-1.1,3-2.2,4.2
	c-1,1-2.1,1.7-3.5,2.2c-0.7,0.2-1.4,0.3-2.1,0.4c-0.7,0-1.4,0-2.1-0.1c-0.9-0.2-1.8-0.5-2.6-1c-0.1-0.1-0.2-0.1-0.4-0.2c0,0,0,0,0,0
	c0.8,0.1,1.6,0,2.3-0.2c0.8-0.2,1.4-0.6,2.1-1.1c-1.5-0.1-2.5-1.1-2.8-2.1c0.2,0,0.4,0.1,0.7,0c0.2,0,0.6-0.1,0.7-0.1
	c-0.7-0.2-1.3-0.5-1.7-1.1C41.2,6.7,41,6.1,41,5.4c0.2,0.1,0.4,0.2,0.6,0.3c0.2,0.1,0.5,0.1,0.7,0.1c0,0,0,0,0,0c0,0,0,0,0,0
	c-0.2-0.1-0.4-0.3-0.5-0.4c-0.6-0.7-0.9-1.6-0.7-2.6c0.1-0.3,0.2-0.6,0.3-0.9c0,0,0,0,0.1,0c0,0,0,0,0,0c1.2,1.4,2.6,2.3,4.3,2.8
	c0.6,0.1,1.1,0.2,1.7,0.3c0,0,0.1,0,0-0.1c-0.1-0.4-0.1-0.8,0-1.1c0.2-1.3,1.2-2.3,2.5-2.4c0.1,0,0.1,0,0.2,0h0c0,0,0,0,0,0
	c0.1,0,0.2,0,0.4,0c0.1,0,0.2,0,0.3,0c0.6,0.1,1.2,0.4,1.6,0.9c0,0,0,0,0.1,0c0.6-0.1,1.2-0.4,1.8-0.7c0,0,0,0,0.1,0
	c-0.2,0.7-0.7,1.2-1.3,1.6c0.3,0,0.6-0.1,0.8-0.2C54.3,2.8,54.6,2.7,54.9,2.7C54.9,2.6,54.9,2.7,54.9,2.7z"/>
<path class="st0" d="M95.6,8.2c0,0.5-0.1,1-0.1,1.5c0,0.4-0.1,0.7-0.2,1c-0.2,0.7-0.7,1.2-1.5,1.3c-0.4,0.1-0.8,0.1-1.2,0.1
	c-0.7,0-1.3,0.1-2,0.1c-0.5,0-1.1,0-1.6,0c0,0-0.1,0-0.1,0h-0.8c0,0,0,0-0.1,0c-0.3,0-0.7,0-1,0c-0.4,0-0.9,0-1.3,0
	c-0.7,0-1.3,0-2-0.1c-0.3,0-0.7-0.1-1-0.1c-0.5-0.1-0.9-0.4-1.1-0.9c-0.2-0.4-0.3-0.7-0.3-1.1c-0.1-0.6-0.1-1.3-0.1-1.9
	c0-0.6,0-1.2,0-1.8c0-0.5,0.1-1,0.1-1.5c0-0.4,0.1-0.8,0.2-1.2c0.3-0.7,0.8-1.2,1.6-1.3c0.4-0.1,0.9-0.1,1.3-0.1
	c0.5,0,1.1,0,1.6-0.1c0.6,0,1.1,0,1.7,0c0,0,0.1,0,0.1,0H89c0,0,0,0,0.1,0c0.4,0,0.8,0,1.2,0c0.3,0,0.7,0,1,0c0.6,0,1.3,0,1.9,0.1
	c0.3,0,0.5,0,0.8,0.1c0.6,0.1,1,0.4,1.2,0.9c0.2,0.3,0.3,0.7,0.3,1c0.1,0.5,0.1,1.1,0.1,1.6C95.6,6.6,95.6,7.4,95.6,8.2z M86.9,9
	c1.3-0.7,2.6-1.3,3.9-2c-1.3-0.7-2.6-1.4-3.9-2V9z"/>
<g>
	<path class="st0" d="M769.5-92.3H471.5c-9.6,0-17.5-7.9-17.5-17.5v-1c0-9.6,7.9-17.5,17.5-17.5h297.9c9.6,0,17.5,7.9,17.5,17.5v1
		C787-100.2,779.1-92.3,769.5-92.3z"/>
	<path class="st0" d="M607.5,6.7h-136c-9.6,0-17.5-7.9-17.5-17.5v-1c0-9.6,7.9-17.5,17.5-17.5h136c9.6,0,17.5,7.9,17.5,17.5v1
		C625-1.2,617.1,6.7,607.5,6.7z"/>
	<path class="st0" d="M769.5,105.7H471.5c-9.6,0-17.5-7.9-17.5-17.5v-1c0-9.6,7.9-17.5,17.5-17.5h297.9c9.6,0,17.5,7.9,17.5,17.5v1
		C787,97.8,779.1,105.7,769.5,105.7z"/>
</g>
<g>
	<path class="st2" d="M1198.1-188L987.4,22.7c-6.8,6.8-18,6.8-24.8,0l-0.7-0.7c-6.8-6.8-6.8-18,0-24.8l210.7-210.7
		c6.8-6.8,18-6.8,24.8,0l0.7,0.7C1204.9-205.9,1204.9-194.8,1198.1-188z"/>
	<path class="st2" d="M1172.6,22.7L961.9-188c-6.8-6.8-6.8-18,0-24.8l0.7-0.7c6.8-6.8,18-6.8,24.8,0L1198.1-2.7
		c6.8,6.8,6.8,18,0,24.8l-0.7,0.7C1190.6,29.5,1179.4,29.5,1172.6,22.7z"/>
</g>
<path class="st3" d="M1012.1,540.4l-8.8-16.6v16.6h-14.5v-46.3h21.6c3.7,0,7,0.7,9.6,2c2.7,1.3,4.7,3.1,6,5.4c1.3,2.3,2,4.9,2,7.7
	c0,3.1-0.9,5.8-2.6,8.2c-1.7,2.4-4.2,4.1-7.4,5.2l10.1,17.7H1012.1z M1003.3,514.1h5.8c1.4,0,2.4-0.3,3.1-0.9c0.7-0.6,1-1.6,1-3
	c0-1.2-0.4-2.2-1.1-2.9c-0.7-0.7-1.8-1-3.1-1h-5.8V514.1z"/>
</svg>
