<?xml version="1.0" encoding="utf-8"?>
<!-- Generator: Adobe Illustrator 22.0.1, SVG Export Plug-In . SVG Version: 6.00 Build 0)  -->
<svg version="1.1" id="Capa_1" xmlns="http://www.w3.org/2000/svg" xmlns:xlink="http://www.w3.org/1999/xlink" x="0px" y="0px"
	 viewBox="0 0 452.5 100.2" style="enable-background:new 0 0 452.5 100.2;" xml:space="preserve">
<style type="text/css">
	.st0{fill:#414141;}
	.st1{fill:#FFFFFF;}
	.st2{fill:#F2F2F2;}
	.st3{fill:#4D4D4D;}
</style>
<text transform="matrix(1 0 0 1 -1440.9995 116)"><tspan x="0" y="0" style="font-family:'Poppins-Black'; font-size:100px;">Redbone</tspan><tspan x="81.8" y="38" style="font-family:'Poppins-Light'; font-size:30px; letter-spacing:27;">RECORDS</tspan></text>
<g>
	<path class="st0" d="M35.6,74L22.2,48.6V74H0V3.2h33c5.7,0,10.6,1,14.7,3c4.1,2,7.1,4.8,9.1,8.3c2,3.5,3,7.5,3,11.9
		c0,4.7-1.3,8.9-3.9,12.6c-2.6,3.7-6.4,6.3-11.4,7.9L60,74H35.6z M22.2,33.8H31c2.1,0,3.7-0.5,4.8-1.5c1.1-1,1.6-2.5,1.6-4.5
		c0-1.9-0.5-3.3-1.7-4.4c-1.1-1.1-2.7-1.6-4.8-1.6h-8.8V33.8z"/>
	<path class="st0" d="M121.1,49.7H85.6c0.2,2.8,0.8,4.7,1.9,5.8c1.1,1,2.5,1.5,4.2,1.5c2.4,0,4.1-1.1,5.2-3.3h23.5
		c-0.8,4-2.5,7.6-5,10.8c-2.6,3.2-5.8,5.7-9.7,7.5c-3.9,1.8-8.2,2.8-12.8,2.8c-5.6,0-10.6-1.2-15-3.5c-4.4-2.3-7.8-5.7-10.2-10
		c-2.4-4.4-3.7-9.5-3.7-15.4c0-5.9,1.2-11,3.7-15.3c2.4-4.4,5.8-7.7,10.2-10c4.4-2.3,9.4-3.5,15-3.5s10.6,1.1,14.9,3.4
		c4.4,2.3,7.8,5.6,10.2,9.9c2.4,4.3,3.6,9.3,3.6,15.1C121.6,46.7,121.4,48.2,121.1,49.7z M99.1,40.6c0-2.1-0.6-3.7-1.8-4.8
		c-1.2-1-2.7-1.5-4.5-1.5c-4.1,0-6.4,2.1-7,6.3H99.1z"/>
	<path class="st0" d="M158.3,19.2c2.6,1.5,4.7,3.5,6.1,6.1V0h22.2v74h-22.2v-7.7c-1.4,2.6-3.4,4.7-6.1,6.2c-2.6,1.5-5.8,2.2-9.4,2.2
		c-4.4,0-8.4-1.2-11.9-3.5c-3.5-2.3-6.3-5.6-8.3-10c-2-4.4-3.1-9.5-3.1-15.5c0-5.9,1-11.1,3.1-15.5c2-4.4,4.8-7.7,8.3-10
		c3.5-2.3,7.5-3.4,11.9-3.4C152.6,16.9,155.7,17.7,158.3,19.2z M150.4,38.8c-1.5,1.7-2.3,4-2.3,7s0.8,5.3,2.3,7
		c1.5,1.7,3.5,2.5,5.9,2.5c2.4,0,4.4-0.8,5.9-2.5c1.5-1.7,2.3-4,2.3-7s-0.8-5.3-2.3-7c-1.5-1.7-3.5-2.5-5.9-2.5
		C153.9,36.3,151.9,37.1,150.4,38.8z"/>
	<path class="st0" d="M246.2,20.3c3.5,2.3,6.3,5.6,8.3,10c2,4.4,3.1,9.5,3.1,15.5c0,5.9-1,11.1-3.1,15.5c-2,4.4-4.8,7.7-8.3,10
		c-3.5,2.3-7.5,3.5-11.9,3.5c-3.7,0-6.8-0.8-9.4-2.2c-2.6-1.5-4.7-3.5-6.1-6.2V74h-22.2V0h22.2v25.3c1.4-2.6,3.4-4.6,6.1-6.1
		c2.6-1.5,5.8-2.2,9.4-2.2C238.7,16.9,242.7,18,246.2,20.3z M221,38.8c-1.5,1.7-2.3,4-2.3,7s0.8,5.3,2.3,7c1.5,1.7,3.5,2.5,5.9,2.5
		c2.4,0,4.4-0.8,5.9-2.5c1.5-1.7,2.3-4,2.3-7s-0.8-5.3-2.3-7c-1.5-1.7-3.5-2.5-5.9-2.5C224.5,36.3,222.5,37.1,221,38.8z"/>
	<path class="st0" d="M306.7,20.4c4.5,2.3,8.1,5.7,10.6,10c2.6,4.4,3.9,9.5,3.9,15.3c0,5.9-1.3,11-3.9,15.4
		c-2.6,4.4-6.1,7.7-10.6,10c-4.5,2.3-9.6,3.5-15.3,3.5c-5.7,0-10.8-1.2-15.3-3.5c-4.5-2.3-8.1-5.7-10.6-10
		c-2.6-4.4-3.9-9.5-3.9-15.4c0-5.9,1.3-11,3.9-15.3c2.6-4.4,6.1-7.7,10.6-10c4.5-2.3,9.6-3.5,15.3-3.5
		C297.1,16.9,302.2,18.1,306.7,20.4z M286.2,38.5c-1.4,1.6-2.1,4-2.1,7.2s0.7,5.6,2,7.2c1.4,1.6,3.1,2.5,5.2,2.5
		c2.1,0,3.8-0.8,5.2-2.5c1.4-1.6,2.1-4,2.1-7.2s-0.7-5.6-2.1-7.2c-1.4-1.6-3.1-2.5-5.2-2.5S287.6,36.9,286.2,38.5z"/>
	<path class="st0" d="M382.8,23.7c3.6,4.3,5.4,10.2,5.4,17.6V74h-22.1V44.1c0-2.7-0.7-4.8-2.2-6.3c-1.4-1.6-3.3-2.3-5.8-2.3
		c-2.5,0-4.4,0.8-5.8,2.3c-1.4,1.6-2.1,3.7-2.1,6.3V74h-22.2V17.6h22.2v8.6c1.7-2.7,4-4.8,7-6.5c2.9-1.7,6.3-2.5,10.3-2.5
		C374.2,17.2,379.2,19.4,382.8,23.7z"/>
	<path class="st0" d="M452,49.7h-35.5c0.2,2.8,0.8,4.7,1.9,5.8c1.1,1,2.5,1.5,4.2,1.5c2.4,0,4.1-1.1,5.2-3.3h23.5
		c-0.8,4-2.5,7.6-5.1,10.8c-2.6,3.2-5.8,5.7-9.7,7.5c-3.9,1.8-8.2,2.8-12.9,2.8c-5.6,0-10.6-1.2-15-3.5c-4.4-2.3-7.8-5.7-10.2-10
		c-2.4-4.4-3.7-9.5-3.7-15.4c0-5.9,1.2-11,3.7-15.3c2.4-4.4,5.8-7.7,10.2-10c4.4-2.3,9.4-3.5,15-3.5c5.6,0,10.6,1.1,15,3.4
		c4.4,2.3,7.8,5.6,10.2,9.9c2.4,4.3,3.6,9.3,3.6,15.1C452.5,46.7,452.3,48.2,452,49.7z M430,40.6c0-2.1-0.6-3.7-1.8-4.8
		c-1.2-1-2.7-1.5-4.5-1.5c-4.1,0-6.4,2.1-7,6.3H430z"/>
	<path class="st0" d="M135.2,100l-3.9-5.9h-2.3v5.9h-1.4V85.9h4.3c1.6,0,2.8,0.4,3.6,1.1c0.8,0.7,1.2,1.8,1.2,3c0,1.2-0.3,2.1-1,2.8
		s-1.6,1.1-2.9,1.2l4,5.9H135.2z M129.1,93.1h2.8c2.3,0,3.4-1,3.4-2.9c0-2-1.1-3-3.4-3h-2.8V93.1z"/>
	<path class="st0" d="M158.4,87v5.3h5.5v1.1h-5.5v5.4h6.1v1.2H157V85.9h7.5V87H158.4z"/>
	<path class="st0" d="M195.4,87c1.1,0.8,1.9,1.9,2.3,3.4h-1.5c-0.4-1-1-1.8-1.9-2.4c-0.9-0.6-1.9-0.9-3.2-0.9c-1,0-1.9,0.2-2.7,0.7
		c-0.8,0.5-1.4,1.2-1.9,2.1c-0.5,0.9-0.7,1.9-0.7,3.1s0.2,2.2,0.7,3.1s1.1,1.6,1.9,2c0.8,0.5,1.7,0.7,2.7,0.7c1.3,0,2.4-0.3,3.2-0.9
		c0.9-0.6,1.5-1.4,1.9-2.4h1.5c-0.5,1.4-1.2,2.6-2.3,3.4c-1.1,0.8-2.5,1.2-4.2,1.2c-1.3,0-2.4-0.3-3.5-0.9c-1-0.6-1.8-1.5-2.4-2.6
		c-0.6-1.1-0.8-2.3-0.8-3.7c0-1.4,0.3-2.6,0.8-3.7c0.6-1.1,1.3-1.9,2.4-2.6c1-0.6,2.2-0.9,3.5-0.9C192.9,85.8,194.3,86.2,195.4,87z"
		/>
	<path class="st0" d="M228.2,86.7c1,0.6,1.9,1.5,2.4,2.6c0.6,1.1,0.9,2.3,0.9,3.7s-0.3,2.6-0.9,3.7s-1.4,2-2.4,2.6
		c-1,0.6-2.2,0.9-3.5,0.9s-2.5-0.3-3.5-0.9c-1-0.6-1.9-1.5-2.4-2.6c-0.6-1.1-0.9-2.3-0.9-3.7s0.3-2.6,0.9-3.7
		c0.6-1.1,1.4-1.9,2.4-2.6c1-0.6,2.2-0.9,3.5-0.9S227.2,86,228.2,86.7z M221.9,87.8c-0.8,0.5-1.5,1.2-1.9,2.1
		c-0.5,0.9-0.7,1.9-0.7,3.1c0,1.2,0.2,2.2,0.7,3.1c0.5,0.9,1.1,1.6,1.9,2.1c0.8,0.5,1.7,0.7,2.8,0.7s2-0.2,2.8-0.7
		c0.8-0.5,1.5-1.2,1.9-2.1c0.5-0.9,0.7-1.9,0.7-3.1c0-1.2-0.2-2.2-0.7-3.1c-0.5-0.9-1.1-1.6-1.9-2.1c-0.8-0.5-1.7-0.7-2.8-0.7
		S222.7,87.3,221.9,87.8z"/>
	<path class="st0" d="M259.7,100l-3.9-5.9h-2.3v5.9h-1.4V85.9h4.3c1.6,0,2.8,0.4,3.6,1.1c0.8,0.7,1.2,1.8,1.2,3c0,1.2-0.3,2.1-1,2.8
		s-1.6,1.1-2.9,1.2l4,5.9H259.7z M253.5,93.1h2.8c2.3,0,3.4-1,3.4-2.9c0-2-1.1-3-3.4-3h-2.8V93.1z"/>
	<path class="st0" d="M292.3,96.7c-0.6,1.1-1.4,1.9-2.5,2.4s-2.5,0.8-4,0.8h-4.3V85.9h4.3c2.4,0,4.2,0.6,5.5,1.9
		c1.3,1.2,1.9,3,1.9,5.2C293.2,94.4,292.9,95.7,292.3,96.7z M290.2,97.2c1-1,1.6-2.4,1.6-4.3c0-1.8-0.5-3.2-1.6-4.3
		c-1-1-2.6-1.5-4.5-1.5h-2.7v11.6h2.7C287.6,98.7,289.1,98.2,290.2,97.2z"/>
	<path class="st0" d="M321.9,98.2c-0.3,0.6-0.8,1-1.4,1.4c-0.6,0.4-1.4,0.5-2.3,0.5c-0.9,0-1.7-0.2-2.4-0.5
		c-0.7-0.3-1.3-0.8-1.7-1.4s-0.7-1.2-0.7-1.9h1.5c0.1,0.4,0.2,0.8,0.5,1.2c0.3,0.4,0.6,0.8,1.1,1s1.1,0.4,1.7,0.4
		c0.9,0,1.6-0.2,2-0.7c0.5-0.5,0.7-1.1,0.7-1.8c0-0.6-0.2-1.1-0.5-1.5c-0.3-0.4-0.7-0.7-1.2-0.9c-0.5-0.2-1.1-0.4-1.9-0.7
		c-0.9-0.3-1.6-0.6-2.1-0.8c-0.5-0.3-1-0.6-1.4-1.2c-0.4-0.5-0.6-1.2-0.6-2c0-1.1,0.4-1.9,1.1-2.6c0.7-0.7,1.8-1,3.1-1
		c1.3,0,2.4,0.3,3.2,1c0.8,0.7,1.2,1.5,1.4,2.4h-1.5c-0.1-0.6-0.4-1.1-0.9-1.6c-0.5-0.5-1.2-0.7-2.1-0.7c-0.8,0-1.5,0.2-2,0.6
		s-0.7,1-0.7,1.8c0,0.6,0.2,1.1,0.5,1.5s0.7,0.7,1.1,0.9c0.4,0.2,1.1,0.4,1.8,0.7c0.9,0.3,1.6,0.6,2.2,0.8c0.6,0.3,1,0.7,1.4,1.2
		c0.4,0.5,0.6,1.2,0.6,2.1C322.3,97.1,322.2,97.7,321.9,98.2z"/>
</g>
<path class="st1" d="M-804.1-224.9c-1.3,0-2.4,1.1-2.4,2.4c0,1.3,1.1,2.4,2.4,2.4c1.3,0,2.4-1.1,2.4-2.4
	C-801.7-223.8-802.8-224.9-804.1-224.9z M-804.1-224.9c-1.3,0-2.4,1.1-2.4,2.4c0,1.3,1.1,2.4,2.4,2.4c1.3,0,2.4-1.1,2.4-2.4
	C-801.7-223.8-802.8-224.9-804.1-224.9z M-798.2-222.6c0-0.6,0-1.1,0-1.7c0-0.5,0-1.1-0.1-1.6c-0.1-1.2-0.8-2-2-2.3
	c-0.6-0.1-1.3-0.1-1.9-0.1c-1.2,0-2.4,0-3.6,0c-0.6,0-1.2,0-1.8,0.1c-1,0.2-1.7,0.8-2,1.8c-0.1,0.3-0.1,0.7-0.2,1c0,1.3,0,2.6,0,3.9
	c0,0.8,0,1.7,0.1,2.5c0.1,1.2,0.8,2,2,2.3c0.6,0.1,1.3,0.1,2,0.2c1.2,0,2.4,0,3.6,0c0.5,0,1.1,0,1.6-0.1c0.5-0.1,1-0.2,1.4-0.5
	c0.7-0.5,0.9-1.3,1-2.1C-798.2-220.4-798.2-221.5-798.2-222.6C-798.2-222.6-798.2-222.6-798.2-222.6z M-804.1-218.8
	c-2,0-3.7-1.6-3.7-3.7c0-2,1.7-3.6,3.7-3.6c2,0,3.6,1.7,3.6,3.7C-800.4-220.4-802.1-218.8-804.1-218.8z M-800.3-225.5
	c-0.5,0-0.9-0.4-0.9-0.9c0-0.5,0.4-0.9,0.9-0.8c0.5,0,0.9,0.4,0.8,0.9C-799.4-225.8-799.8-225.4-800.3-225.5z M-804.1-224.9
	c-1.3,0-2.4,1.1-2.4,2.4c0,1.3,1.1,2.4,2.4,2.4c1.3,0,2.4-1.1,2.4-2.4C-801.7-223.8-802.8-224.9-804.1-224.9z M-798.2-222.6
	c0-0.6,0-1.1,0-1.7c0-0.5,0-1.1-0.1-1.6c-0.1-1.2-0.8-2-2-2.3c-0.6-0.1-1.3-0.1-1.9-0.1c-1.2,0-2.4,0-3.6,0c-0.6,0-1.2,0-1.8,0.1
	c-1,0.2-1.7,0.8-2,1.8c-0.1,0.3-0.1,0.7-0.2,1c0,1.3,0,2.6,0,3.9c0,0.8,0,1.7,0.1,2.5c0.1,1.2,0.8,2,2,2.3c0.6,0.1,1.3,0.1,2,0.2
	c1.2,0,2.4,0,3.6,0c0.5,0,1.1,0,1.6-0.1c0.5-0.1,1-0.2,1.4-0.5c0.7-0.5,0.9-1.3,1-2.1C-798.2-220.4-798.2-221.5-798.2-222.6
	C-798.2-222.6-798.2-222.6-798.2-222.6z M-804.1-218.8c-2,0-3.7-1.6-3.7-3.7c0-2,1.7-3.6,3.7-3.6c2,0,3.6,1.7,3.6,3.7
	C-800.4-220.4-802.1-218.8-804.1-218.8z M-800.3-225.5c-0.5,0-0.9-0.4-0.9-0.9c0-0.5,0.4-0.9,0.9-0.8c0.5,0,0.9,0.4,0.8,0.9
	C-799.4-225.8-799.8-225.4-800.3-225.5z M-804.1-224.9c-1.3,0-2.4,1.1-2.4,2.4c0,1.3,1.1,2.4,2.4,2.4c1.3,0,2.4-1.1,2.4-2.4
	C-801.7-223.8-802.8-224.9-804.1-224.9z M-804.1-235c-6.9,0-12.5,5.6-12.5,12.5s5.6,12.5,12.5,12.5c6.9,0,12.5-5.6,12.5-12.5
	S-797.2-235-804.1-235z M-797-219.6c0,0.8-0.2,1.6-0.6,2.4c-0.6,1-1.4,1.5-2.5,1.7c-0.7,0.1-1.3,0.2-2,0.2c-1.4,0-2.8,0-4.3,0
	c-0.7,0-1.5,0-2.2-0.3c-1.4-0.5-2.2-1.5-2.5-2.9c-0.1-0.6-0.2-1.3-0.2-2c0-1.4,0-2.8,0-4.3c0-0.8,0-1.5,0.3-2.2
	c0.5-1.4,1.5-2.2,2.9-2.5c0.6-0.1,1.3-0.2,2-0.2c1.4,0,2.8,0,4.3,0c0.7,0,1.5,0,2.2,0.3c1.4,0.5,2.2,1.5,2.5,2.9
	c0.1,0.6,0.1,1.3,0.2,2c0,0.7,0,1.3,0,2h0C-796.9-221.5-797-220.6-797-219.6z M-798.2-224.3c0-0.5,0-1.1-0.1-1.6
	c-0.1-1.2-0.8-2-2-2.3c-0.6-0.1-1.3-0.1-1.9-0.1c-1.2,0-2.4,0-3.6,0c-0.6,0-1.2,0-1.8,0.1c-1,0.2-1.7,0.8-2,1.8
	c-0.1,0.3-0.1,0.7-0.2,1c0,1.3,0,2.6,0,3.9c0,0.8,0,1.7,0.1,2.5c0.1,1.2,0.8,2,2,2.3c0.6,0.1,1.3,0.1,2,0.2c1.2,0,2.4,0,3.6,0
	c0.5,0,1.1,0,1.6-0.1c0.5-0.1,1-0.2,1.4-0.5c0.7-0.5,0.9-1.3,1-2.1c0.1-1.1,0.1-2.2,0.1-3.3c0,0,0,0,0,0
	C-798.2-223.2-798.2-223.7-798.2-224.3z M-804.1-218.8c-2,0-3.7-1.6-3.7-3.7c0-2,1.7-3.6,3.7-3.6c2,0,3.6,1.7,3.6,3.7
	C-800.4-220.4-802.1-218.8-804.1-218.8z M-800.3-225.5c-0.5,0-0.9-0.4-0.9-0.9c0-0.5,0.4-0.9,0.9-0.8c0.5,0,0.9,0.4,0.8,0.9
	C-799.4-225.8-799.8-225.4-800.3-225.5z M-804.1-224.9c-1.3,0-2.4,1.1-2.4,2.4c0,1.3,1.1,2.4,2.4,2.4c1.3,0,2.4-1.1,2.4-2.4
	C-801.7-223.8-802.8-224.9-804.1-224.9z M-804.1-224.9c-1.3,0-2.4,1.1-2.4,2.4c0,1.3,1.1,2.4,2.4,2.4c1.3,0,2.4-1.1,2.4-2.4
	C-801.7-223.8-802.8-224.9-804.1-224.9z M-804.1-224.9c-1.3,0-2.4,1.1-2.4,2.4c0,1.3,1.1,2.4,2.4,2.4c1.3,0,2.4-1.1,2.4-2.4
	C-801.7-223.8-802.8-224.9-804.1-224.9z M-798.2-222.6c0-0.6,0-1.1,0-1.7c0-0.5,0-1.1-0.1-1.6c-0.1-1.2-0.8-2-2-2.3
	c-0.6-0.1-1.3-0.1-1.9-0.1c-1.2,0-2.4,0-3.6,0c-0.6,0-1.2,0-1.8,0.1c-1,0.2-1.7,0.8-2,1.8c-0.1,0.3-0.1,0.7-0.2,1c0,1.3,0,2.6,0,3.9
	c0,0.8,0,1.7,0.1,2.5c0.1,1.2,0.8,2,2,2.3c0.6,0.1,1.3,0.1,2,0.2c1.2,0,2.4,0,3.6,0c0.5,0,1.1,0,1.6-0.1c0.5-0.1,1-0.2,1.4-0.5
	c0.7-0.5,0.9-1.3,1-2.1C-798.2-220.4-798.2-221.5-798.2-222.6C-798.2-222.6-798.2-222.6-798.2-222.6z M-804.1-218.8
	c-2,0-3.7-1.6-3.7-3.7c0-2,1.7-3.6,3.7-3.6c2,0,3.6,1.7,3.6,3.7C-800.4-220.4-802.1-218.8-804.1-218.8z M-800.3-225.5
	c-0.5,0-0.9-0.4-0.9-0.9c0-0.5,0.4-0.9,0.9-0.8c0.5,0,0.9,0.4,0.8,0.9C-799.4-225.8-799.8-225.4-800.3-225.5z M-804.1-224.9
	c-1.3,0-2.4,1.1-2.4,2.4c0,1.3,1.1,2.4,2.4,2.4c1.3,0,2.4-1.1,2.4-2.4C-801.7-223.8-802.8-224.9-804.1-224.9z M-804.1-224.9
	c-1.3,0-2.4,1.1-2.4,2.4c0,1.3,1.1,2.4,2.4,2.4c1.3,0,2.4-1.1,2.4-2.4C-801.7-223.8-802.8-224.9-804.1-224.9z M-804.1-224.9
	c-1.3,0-2.4,1.1-2.4,2.4c0,1.3,1.1,2.4,2.4,2.4c1.3,0,2.4-1.1,2.4-2.4C-801.7-223.8-802.8-224.9-804.1-224.9z M-798.2-222.6
	c0-0.6,0-1.1,0-1.7c0-0.5,0-1.1-0.1-1.6c-0.1-1.2-0.8-2-2-2.3c-0.6-0.1-1.3-0.1-1.9-0.1c-1.2,0-2.4,0-3.6,0c-0.6,0-1.2,0-1.8,0.1
	c-1,0.2-1.7,0.8-2,1.8c-0.1,0.3-0.1,0.7-0.2,1c0,1.3,0,2.6,0,3.9c0,0.8,0,1.7,0.1,2.5c0.1,1.2,0.8,2,2,2.3c0.6,0.1,1.3,0.1,2,0.2
	c1.2,0,2.4,0,3.6,0c0.5,0,1.1,0,1.6-0.1c0.5-0.1,1-0.2,1.4-0.5c0.7-0.5,0.9-1.3,1-2.1C-798.2-220.4-798.2-221.5-798.2-222.6
	C-798.2-222.6-798.2-222.6-798.2-222.6z M-804.1-218.8c-2,0-3.7-1.6-3.7-3.7c0-2,1.7-3.6,3.7-3.6c2,0,3.6,1.7,3.6,3.7
	C-800.4-220.4-802.1-218.8-804.1-218.8z M-800.3-225.5c-0.5,0-0.9-0.4-0.9-0.9c0-0.5,0.4-0.9,0.9-0.8c0.5,0,0.9,0.4,0.8,0.9
	C-799.4-225.8-799.8-225.4-800.3-225.5z M-804.1-224.9c-1.3,0-2.4,1.1-2.4,2.4c0,1.3,1.1,2.4,2.4,2.4c1.3,0,2.4-1.1,2.4-2.4
	C-801.7-223.8-802.8-224.9-804.1-224.9z"/>
<path class="st1" d="M-844.4-235c-6.9,0-12.5,5.6-12.5,12.5s5.6,12.5,12.5,12.5c6.9,0,12.5-5.6,12.5-12.5S-837.5-235-844.4-235z
	 M-840.7-230.1c0,0.7,0,1.4,0,2c0,0.2-0.1,0.3-0.3,0.3c-0.4,0-0.8,0-1.2,0c-0.6,0-0.9,0.3-0.9,0.9c0,0.4,0,0.8,0,1.1
	c0,0.2,0.1,0.3,0.3,0.3c0.6,0,1.2,0,1.7,0c0.3,0,0.4,0.1,0.4,0.4c-0.1,0.7-0.2,1.4-0.2,2.1c0,0.3-0.2,0.4-0.5,0.4
	c-0.6,0-1.1,0-1.7,0v1.7c0,1.9,0,3.9,0,5.8c0,0.5,0,0.5-0.5,0.5c-0.8,0-1.6,0-2.5,0c-0.4,0-0.5,0-0.5-0.5c0-2.3,0-4.7,0-7
	c0-0.5,0-0.5-0.5-0.5c-0.3,0-0.6,0-0.8,0c-0.2,0-0.3-0.1-0.3-0.3c0-0.7,0-1.5,0-2.2c0-0.2,0.1-0.3,0.3-0.3c0.3,0,0.7,0,1,0
	c0.2,0,0.3-0.1,0.3-0.3c0-0.8,0-1.5,0.1-2.2c0.1-1.5,1.3-2.6,2.8-2.6c0.9,0,1.7,0,2.6-0.1C-840.8-230.5-840.7-230.4-840.7-230.1z"/>
<path class="st1" d="M-763.6-235c-6.9,0-12.5,5.6-12.5,12.5s5.6,12.5,12.5,12.5c6.9,0,12.5-5.6,12.5-12.5S-756.7-235-763.6-235z
	 M-756.4-227c-0.4,0.5-0.8,1-1.4,1.4c-0.1,0-0.1,0.1-0.1,0.2c0,0.7,0,1.4-0.2,2c-0.4,1.6-1.1,3-2.2,4.2c-1,1-2.1,1.7-3.5,2.2
	c-0.7,0.2-1.4,0.3-2.1,0.4c-0.7,0-1.4,0-2.1-0.1c-0.9-0.2-1.8-0.5-2.6-1c-0.1-0.1-0.2-0.1-0.4-0.2c0,0,0,0,0,0
	c0.8,0.1,1.6,0,2.3-0.2c0.8-0.2,1.4-0.6,2.1-1.1c-1.5-0.1-2.5-1.1-2.8-2.1c0.2,0,0.4,0.1,0.7,0c0.2,0,0.6-0.1,0.7-0.1
	c-0.7-0.2-1.3-0.5-1.7-1.1c-0.4-0.6-0.7-1.2-0.7-1.9c0.2,0.1,0.4,0.2,0.6,0.3c0.2,0.1,0.5,0.1,0.7,0.1c0,0,0,0,0,0c0,0,0,0,0,0
	c-0.2-0.1-0.4-0.3-0.5-0.4c-0.6-0.7-0.9-1.6-0.7-2.6c0.1-0.3,0.2-0.6,0.3-0.9c0,0,0,0,0.1,0c0,0,0,0,0,0c1.2,1.4,2.6,2.3,4.3,2.8
	c0.6,0.1,1.1,0.2,1.7,0.3c0,0,0.1,0,0-0.1c-0.1-0.4-0.1-0.8,0-1.1c0.2-1.3,1.2-2.3,2.5-2.4c0.1,0,0.1,0,0.2,0h0c0,0,0,0,0,0
	c0.1,0,0.2,0,0.4,0c0.1,0,0.2,0,0.3,0c0.6,0.1,1.2,0.4,1.6,0.9c0,0,0,0,0.1,0c0.6-0.1,1.2-0.4,1.8-0.7c0,0,0,0,0.1,0
	c-0.2,0.7-0.7,1.2-1.3,1.6c0.3,0,0.6-0.1,0.8-0.2C-756.9-226.8-756.7-226.9-756.4-227C-756.4-227-756.4-227-756.4-227z"/>
<path class="st1" d="M-722.9-235c-6.9,0-12.5,5.6-12.5,12.5s5.6,12.5,12.5,12.5c6.9,0,12.5-5.6,12.5-12.5S-716-235-722.9-235z
	 M-715.7-221.5c0,0.5-0.1,1-0.1,1.5c0,0.4-0.1,0.7-0.2,1c-0.2,0.7-0.7,1.2-1.5,1.3c-0.4,0.1-0.8,0.1-1.2,0.1c-0.7,0-1.3,0.1-2,0.1
	c-0.5,0-1.1,0-1.6,0c0,0-0.1,0-0.1,0h-0.8c0,0,0,0-0.1,0c-0.3,0-0.7,0-1,0c-0.4,0-0.9,0-1.3,0c-0.7,0-1.3,0-2-0.1
	c-0.3,0-0.7-0.1-1-0.1c-0.5-0.1-0.9-0.4-1.1-0.9c-0.2-0.4-0.3-0.7-0.3-1.1c-0.1-0.6-0.1-1.3-0.1-1.9c0-0.6,0-1.2,0-1.8
	c0-0.5,0.1-1,0.1-1.5c0-0.4,0.1-0.8,0.2-1.2c0.3-0.7,0.8-1.2,1.6-1.3c0.4-0.1,0.9-0.1,1.3-0.1c0.5,0,1.1,0,1.6-0.1
	c0.6,0,1.1,0,1.7,0c0,0,0.1,0,0.1,0h1.2c0,0,0,0,0.1,0c0.4,0,0.8,0,1.2,0c0.3,0,0.7,0,1,0c0.6,0,1.3,0,1.9,0.1c0.3,0,0.5,0,0.8,0.1
	c0.6,0.1,1,0.4,1.2,0.9c0.2,0.3,0.3,0.7,0.3,1c0.1,0.5,0.1,1.1,0.1,1.6C-715.7-223-715.7-222.2-715.7-221.5z M-724.4-220.6
	c1.3-0.7,2.6-1.3,3.9-2c-1.3-0.7-2.6-1.4-3.9-2V-220.6z"/>
<path class="st2" d="M-804.1-193.9c-1.3,0-2.4,1.1-2.4,2.4c0,1.3,1.1,2.4,2.4,2.4c1.3,0,2.4-1.1,2.4-2.4
	C-801.7-192.8-802.8-193.9-804.1-193.9z M-804.1-193.9c-1.3,0-2.4,1.1-2.4,2.4c0,1.3,1.1,2.4,2.4,2.4c1.3,0,2.4-1.1,2.4-2.4
	C-801.7-192.8-802.8-193.9-804.1-193.9z M-798.2-191.6c0-0.6,0-1.1,0-1.7c0-0.5,0-1.1-0.1-1.6c-0.1-1.2-0.8-2-2-2.3
	c-0.6-0.1-1.3-0.1-1.9-0.1c-1.2,0-2.4,0-3.6,0c-0.6,0-1.2,0-1.8,0.1c-1,0.2-1.7,0.8-2,1.8c-0.1,0.3-0.1,0.7-0.2,1c0,1.3,0,2.6,0,3.9
	c0,0.8,0,1.7,0.1,2.5c0.1,1.2,0.8,2,2,2.3c0.6,0.1,1.3,0.1,2,0.2c1.2,0,2.4,0,3.6,0c0.5,0,1.1,0,1.6-0.1c0.5-0.1,1-0.2,1.4-0.5
	c0.7-0.5,0.9-1.3,1-2.1C-798.2-189.4-798.2-190.5-798.2-191.6C-798.2-191.6-798.2-191.6-798.2-191.6z M-804.1-187.8
	c-2,0-3.7-1.6-3.7-3.7c0-2,1.7-3.6,3.7-3.6c2,0,3.6,1.7,3.6,3.7C-800.4-189.4-802.1-187.8-804.1-187.8z M-800.3-194.5
	c-0.5,0-0.9-0.4-0.9-0.9c0-0.5,0.4-0.9,0.9-0.8c0.5,0,0.9,0.4,0.8,0.9C-799.4-194.8-799.8-194.4-800.3-194.5z M-804.1-193.9
	c-1.3,0-2.4,1.1-2.4,2.4c0,1.3,1.1,2.4,2.4,2.4c1.3,0,2.4-1.1,2.4-2.4C-801.7-192.8-802.8-193.9-804.1-193.9z M-804.1-187.8
	c-2,0-3.7-1.6-3.7-3.7c0-2,1.7-3.6,3.7-3.6c2,0,3.6,1.7,3.6,3.7C-800.4-189.4-802.1-187.8-804.1-187.8z M-800.3-194.5
	c-0.5,0-0.9-0.4-0.9-0.9c0-0.5,0.4-0.9,0.9-0.8c0.5,0,0.9,0.4,0.8,0.9C-799.4-194.8-799.8-194.4-800.3-194.5z M-804.1-193.9
	c-1.3,0-2.4,1.1-2.4,2.4c0,1.3,1.1,2.4,2.4,2.4c1.3,0,2.4-1.1,2.4-2.4C-801.7-192.8-802.8-193.9-804.1-193.9z M-797-188.6
	c0,0.8-0.2,1.6-0.6,2.4c-0.6,1-1.4,1.5-2.5,1.7c-0.7,0.1-1.3,0.2-2,0.2c-1.4,0-2.8,0-4.3,0c-0.7,0-1.5,0-2.2-0.3
	c-1.4-0.5-2.2-1.5-2.5-2.9c-0.1-0.6-0.2-1.3-0.2-2c0-1.4,0-2.8,0-4.3c0-0.8,0-1.5,0.3-2.2c0.5-1.4,1.5-2.2,2.9-2.5
	c0.6-0.1,1.3-0.2,2-0.2c1.4,0,2.8,0,4.3,0c0.7,0,1.5,0,2.2,0.3c1.4,0.5,2.2,1.5,2.5,2.9c0.1,0.6,0.1,1.3,0.2,2c0,0.7,0,1.3,0,2h0
	C-796.9-190.5-797-189.6-797-188.6z M-804.1-187.8c-2,0-3.7-1.6-3.7-3.7c0-2,1.7-3.6,3.7-3.6c2,0,3.6,1.7,3.6,3.7
	C-800.4-189.4-802.1-187.8-804.1-187.8z M-800.3-194.5c-0.5,0-0.9-0.4-0.9-0.9c0-0.5,0.4-0.9,0.9-0.8c0.5,0,0.9,0.4,0.8,0.9
	C-799.4-194.8-799.8-194.4-800.3-194.5z M-804.1-187.8c-2,0-3.7-1.6-3.7-3.7c0-2,1.7-3.6,3.7-3.6c2,0,3.6,1.7,3.6,3.7
	C-800.4-189.4-802.1-187.8-804.1-187.8z M-800.3-194.5c-0.5,0-0.9-0.4-0.9-0.9c0-0.5,0.4-0.9,0.9-0.8c0.5,0,0.9,0.4,0.8,0.9
	C-799.4-194.8-799.8-194.4-800.3-194.5z M-800.3-194.5c-0.5,0-0.9-0.4-0.9-0.9c0-0.5,0.4-0.9,0.9-0.8c0.5,0,0.9,0.4,0.8,0.9
	C-799.4-194.8-799.8-194.4-800.3-194.5z"/>
<path class="st2" d="M-840.7-199.1c0,0.7,0,1.4,0,2c0,0.2-0.1,0.3-0.3,0.3c-0.4,0-0.8,0-1.2,0c-0.6,0-0.9,0.3-0.9,0.9
	c0,0.4,0,0.8,0,1.1c0,0.2,0.1,0.3,0.3,0.3c0.6,0,1.2,0,1.7,0c0.3,0,0.4,0.1,0.4,0.4c-0.1,0.7-0.2,1.4-0.2,2.1c0,0.3-0.2,0.4-0.5,0.4
	c-0.6,0-1.1,0-1.7,0v1.7c0,1.9,0,3.9,0,5.8c0,0.5,0,0.5-0.5,0.5c-0.8,0-1.6,0-2.5,0c-0.4,0-0.5,0-0.5-0.5c0-2.3,0-4.7,0-7
	c0-0.5,0-0.5-0.5-0.5c-0.3,0-0.6,0-0.8,0c-0.2,0-0.3-0.1-0.3-0.3c0-0.7,0-1.5,0-2.2c0-0.2,0.1-0.3,0.3-0.3c0.3,0,0.7,0,1,0
	c0.2,0,0.3-0.1,0.3-0.3c0-0.8,0-1.5,0.1-2.2c0.1-1.5,1.3-2.6,2.8-2.6c0.9,0,1.7,0,2.6-0.1C-840.8-199.5-840.7-199.4-840.7-199.1z"/>
<path class="st2" d="M-756.4-196c-0.4,0.5-0.8,1-1.4,1.4c-0.1,0-0.1,0.1-0.1,0.2c0,0.7,0,1.4-0.2,2c-0.4,1.6-1.1,3-2.2,4.2
	c-1,1-2.1,1.7-3.5,2.2c-0.7,0.2-1.4,0.3-2.1,0.4c-0.7,0-1.4,0-2.1-0.1c-0.9-0.2-1.8-0.5-2.6-1c-0.1-0.1-0.2-0.1-0.4-0.2c0,0,0,0,0,0
	c0.8,0.1,1.6,0,2.3-0.2c0.8-0.2,1.4-0.6,2.1-1.1c-1.5-0.1-2.5-1.1-2.8-2.1c0.2,0,0.4,0.1,0.7,0c0.2,0,0.6-0.1,0.7-0.1
	c-0.7-0.2-1.3-0.5-1.7-1.1c-0.4-0.6-0.7-1.2-0.7-1.9c0.2,0.1,0.4,0.2,0.6,0.3c0.2,0.1,0.5,0.1,0.7,0.1c0,0,0,0,0,0c0,0,0,0,0,0
	c-0.2-0.1-0.4-0.3-0.5-0.4c-0.6-0.7-0.9-1.6-0.7-2.6c0.1-0.3,0.2-0.6,0.3-0.9c0,0,0,0,0.1,0c0,0,0,0,0,0c1.2,1.4,2.6,2.3,4.3,2.8
	c0.6,0.1,1.1,0.2,1.7,0.3c0,0,0.1,0,0-0.1c-0.1-0.4-0.1-0.8,0-1.1c0.2-1.3,1.2-2.3,2.5-2.4c0.1,0,0.1,0,0.2,0h0c0,0,0,0,0,0
	c0.1,0,0.2,0,0.4,0c0.1,0,0.2,0,0.3,0c0.6,0.1,1.2,0.4,1.6,0.9c0,0,0,0,0.1,0c0.6-0.1,1.2-0.4,1.8-0.7c0,0,0,0,0.1,0
	c-0.2,0.7-0.7,1.2-1.3,1.6c0.3,0,0.6-0.1,0.8-0.2C-756.9-195.8-756.7-195.9-756.4-196C-756.4-196-756.4-196-756.4-196z"/>
<path class="st2" d="M-715.7-190.5c0,0.5-0.1,1-0.1,1.5c0,0.4-0.1,0.7-0.2,1c-0.2,0.7-0.7,1.2-1.5,1.3c-0.4,0.1-0.8,0.1-1.2,0.1
	c-0.7,0-1.3,0.1-2,0.1c-0.5,0-1.1,0-1.6,0c0,0-0.1,0-0.1,0h-0.8c0,0,0,0-0.1,0c-0.3,0-0.7,0-1,0c-0.4,0-0.9,0-1.3,0
	c-0.7,0-1.3,0-2-0.1c-0.3,0-0.7-0.1-1-0.1c-0.5-0.1-0.9-0.4-1.1-0.9c-0.2-0.4-0.3-0.7-0.3-1.1c-0.1-0.6-0.1-1.3-0.1-1.9
	c0-0.6,0-1.2,0-1.8c0-0.5,0.1-1,0.1-1.5c0-0.4,0.1-0.8,0.2-1.2c0.3-0.7,0.8-1.2,1.6-1.3c0.4-0.1,0.9-0.1,1.3-0.1
	c0.5,0,1.1,0,1.6-0.1c0.6,0,1.1,0,1.7,0c0,0,0.1,0,0.1,0h1.2c0,0,0,0,0.1,0c0.4,0,0.8,0,1.2,0c0.3,0,0.7,0,1,0c0.6,0,1.3,0,1.9,0.1
	c0.3,0,0.5,0,0.8,0.1c0.6,0.1,1,0.4,1.2,0.9c0.2,0.3,0.3,0.7,0.3,1c0.1,0.5,0.1,1.1,0.1,1.6C-715.7-192-715.7-191.2-715.7-190.5z
	 M-724.4-189.6c1.3-0.7,2.6-1.3,3.9-2c-1.3-0.7-2.6-1.4-3.9-2V-189.6z"/>
<g>
	<path class="st0" d="M-41.8-291h-297.9c-9.6,0-17.5-7.9-17.5-17.5v-1c0-9.6,7.9-17.5,17.5-17.5h297.9c9.6,0,17.5,7.9,17.5,17.5v1
		C-24.3-298.9-32.1-291-41.8-291z"/>
	<path class="st0" d="M-203.8-192h-136c-9.6,0-17.5-7.9-17.5-17.5v-1c0-9.6,7.9-17.5,17.5-17.5h136c9.6,0,17.5,7.9,17.5,17.5v1
		C-186.3-199.9-194.1-192-203.8-192z"/>
	<path class="st0" d="M-41.8-93h-297.9c-9.6,0-17.5-7.9-17.5-17.5v-1c0-9.6,7.9-17.5,17.5-17.5h297.9c9.6,0,17.5,7.9,17.5,17.5v1
		C-24.3-100.9-32.1-93-41.8-93z"/>
</g>
<g>
	<path class="st2" d="M386.8-386.6L176.1-175.9c-6.8,6.8-18,6.8-24.8,0l-0.7-0.7c-6.8-6.8-6.8-18,0-24.8l210.7-210.7
		c6.8-6.8,18-6.8,24.8,0l0.7,0.7C393.6-404.6,393.6-393.4,386.8-386.6z"/>
	<path class="st2" d="M361.4-175.9L150.7-386.6c-6.8-6.8-6.8-18,0-24.8l0.7-0.7c6.8-6.8,18-6.8,24.8,0l210.7,210.7
		c6.8,6.8,6.8,18,0,24.8l-0.7,0.7C379.3-169.1,368.2-169.1,361.4-175.9z"/>
</g>
<path class="st3" d="M200.8,341.7l-8.8-16.6v16.6h-14.5v-46.3h21.6c3.7,0,7,0.7,9.6,2c2.7,1.3,4.7,3.1,6,5.4c1.3,2.3,2,4.9,2,7.7
	c0,3.1-0.9,5.8-2.6,8.2c-1.7,2.4-4.2,4.1-7.4,5.2l10.1,17.7H200.8z M192,315.4h5.8c1.4,0,2.4-0.3,3.1-0.9c0.7-0.6,1-1.6,1-3
	c0-1.2-0.4-2.2-1.1-2.9c-0.7-0.7-1.8-1-3.1-1H192V315.4z"/>
</svg>
