<?xml version="1.0" encoding="utf-8"?>
<!-- Generator: Adobe Illustrator 22.0.1, SVG Export Plug-In . SVG Version: 6.00 Build 0)  -->
<svg version="1.1" id="Capa_1" xmlns="http://www.w3.org/2000/svg" xmlns:xlink="http://www.w3.org/1999/xlink" x="0px" y="0px"
	 viewBox="0 0 333 234" style="enable-background:new 0 0 333 234;" xml:space="preserve">
<style type="text/css">
	.st0{fill:#F2F2F2;}
	.st1{fill:#FFFFFF;}
	.st2{fill:#414141;}
	.st3{fill:#4D4D4D;}
</style>
<text transform="matrix(1 0 0 1 -1083.7531 442.9961)"><tspan x="0" y="0" style="font-family:'Poppins-Black'; font-size:100px;">Redbone</tspan><tspan x="81.8" y="38" style="font-family:'Poppins-Light'; font-size:30px; letter-spacing:27;">RECORDS</tspan></text>
<g>
	<path class="st0" d="M392.8,401l-13.4-25.4V401h-22.2v-70.8h33c5.7,0,10.6,1,14.7,3c4.1,2,7.1,4.8,9.1,8.3c2,3.5,3,7.5,3,11.9
		c0,4.7-1.3,8.9-3.9,12.6c-2.6,3.7-6.4,6.3-11.4,7.9l15.4,27.1H392.8z M379.4,360.8h8.8c2.1,0,3.7-0.5,4.8-1.5
		c1.1-1,1.6-2.5,1.6-4.5c0-1.9-0.5-3.3-1.7-4.4c-1.1-1.1-2.7-1.6-4.8-1.6h-8.8V360.8z"/>
	<path class="st0" d="M478.3,376.7h-35.5c0.2,2.8,0.8,4.7,1.9,5.8c1.1,1,2.5,1.5,4.2,1.5c2.4,0,4.1-1.1,5.2-3.3h23.5
		c-0.8,4-2.5,7.6-5,10.8c-2.6,3.2-5.8,5.7-9.7,7.5c-3.9,1.8-8.2,2.8-12.8,2.8c-5.6,0-10.6-1.2-15-3.5c-4.4-2.3-7.8-5.7-10.2-10
		c-2.4-4.4-3.7-9.5-3.7-15.4c0-5.9,1.2-11,3.7-15.3c2.4-4.4,5.8-7.7,10.2-10c4.4-2.3,9.4-3.5,15-3.5s10.6,1.1,14.9,3.4
		c4.4,2.3,7.8,5.6,10.2,9.9c2.4,4.3,3.6,9.3,3.6,15.1C478.8,373.7,478.7,375.2,478.3,376.7z M456.3,367.6c0-2.1-0.6-3.7-1.8-4.8
		c-1.2-1-2.7-1.5-4.5-1.5c-4.1,0-6.4,2.1-7,6.3H456.3z"/>
	<path class="st0" d="M515.6,346.1c2.6,1.5,4.7,3.5,6.1,6.1V327h22.2v74h-22.2v-7.7c-1.4,2.6-3.4,4.7-6.1,6.2
		c-2.6,1.5-5.8,2.2-9.4,2.2c-4.4,0-8.4-1.2-11.9-3.5c-3.5-2.3-6.3-5.6-8.3-10c-2-4.4-3.1-9.5-3.1-15.5c0-5.9,1-11.1,3.1-15.5
		c2-4.4,4.8-7.7,8.3-10c3.5-2.3,7.5-3.4,11.9-3.4C509.8,343.9,513,344.6,515.6,346.1z M507.6,365.8c-1.5,1.7-2.3,4-2.3,7
		s0.8,5.3,2.3,7c1.5,1.7,3.5,2.5,5.9,2.5c2.4,0,4.4-0.8,5.9-2.5c1.5-1.7,2.3-4,2.3-7s-0.8-5.3-2.3-7c-1.5-1.7-3.5-2.5-5.9-2.5
		C511.1,363.3,509.2,364.1,507.6,365.8z"/>
	<path class="st0" d="M603.4,347.3c3.5,2.3,6.3,5.6,8.3,10c2,4.4,3.1,9.5,3.1,15.5c0,5.9-1,11.1-3.1,15.5c-2,4.4-4.8,7.7-8.3,10
		c-3.5,2.3-7.5,3.5-11.9,3.5c-3.7,0-6.8-0.8-9.4-2.2c-2.6-1.5-4.7-3.5-6.1-6.2v7.7h-22.2v-74H576v25.3c1.4-2.6,3.4-4.6,6.1-6.1
		c2.6-1.5,5.8-2.2,9.4-2.2C595.9,343.9,599.9,345,603.4,347.3z M578.2,365.8c-1.5,1.7-2.3,4-2.3,7s0.8,5.3,2.3,7
		c1.5,1.7,3.5,2.5,5.9,2.5c2.4,0,4.4-0.8,5.9-2.5c1.5-1.7,2.3-4,2.3-7s-0.8-5.3-2.3-7c-1.5-1.7-3.5-2.5-5.9-2.5
		C581.7,363.3,579.8,364.1,578.2,365.8z"/>
	<path class="st0" d="M663.9,347.4c4.5,2.3,8.1,5.7,10.6,10c2.6,4.4,3.9,9.5,3.9,15.3c0,5.9-1.3,11-3.9,15.4
		c-2.6,4.4-6.1,7.7-10.6,10c-4.5,2.3-9.6,3.5-15.3,3.5c-5.7,0-10.8-1.2-15.3-3.5c-4.5-2.3-8.1-5.7-10.6-10
		c-2.6-4.4-3.9-9.5-3.9-15.4c0-5.9,1.3-11,3.9-15.3c2.6-4.4,6.1-7.7,10.6-10c4.5-2.3,9.6-3.5,15.3-3.5
		C654.3,343.9,659.4,345.1,663.9,347.4z M643.4,365.5c-1.4,1.6-2.1,4-2.1,7.2s0.7,5.6,2,7.2c1.4,1.6,3.1,2.5,5.2,2.5
		c2.1,0,3.8-0.8,5.2-2.5c1.4-1.6,2.1-4,2.1-7.2s-0.7-5.6-2.1-7.2c-1.4-1.6-3.1-2.5-5.2-2.5S644.8,363.9,643.4,365.5z"/>
	<path class="st0" d="M740.1,350.7c3.6,4.3,5.4,10.2,5.4,17.6V401h-22.1v-29.9c0-2.7-0.7-4.8-2.2-6.3c-1.4-1.6-3.3-2.3-5.8-2.3
		c-2.5,0-4.4,0.8-5.8,2.3c-1.4,1.6-2.1,3.7-2.1,6.3V401h-22.2v-56.4h22.2v8.6c1.7-2.7,4-4.8,7-6.5c2.9-1.7,6.3-2.5,10.3-2.5
		C731.4,344.2,736.5,346.4,740.1,350.7z"/>
	<path class="st0" d="M809.2,376.7h-35.5c0.2,2.8,0.8,4.7,1.9,5.8c1.1,1,2.5,1.5,4.2,1.5c2.4,0,4.1-1.1,5.2-3.3h23.5
		c-0.8,4-2.5,7.6-5.1,10.8c-2.6,3.2-5.8,5.7-9.7,7.5c-3.9,1.8-8.2,2.8-12.9,2.8c-5.6,0-10.6-1.2-15-3.5c-4.4-2.3-7.8-5.7-10.2-10
		c-2.4-4.4-3.7-9.5-3.7-15.4c0-5.9,1.2-11,3.7-15.3c2.4-4.4,5.8-7.7,10.2-10c4.4-2.3,9.4-3.5,15-3.5c5.6,0,10.6,1.1,15,3.4
		c4.4,2.3,7.8,5.6,10.2,9.9c2.4,4.3,3.6,9.3,3.6,15.1C809.7,373.7,809.6,375.2,809.2,376.7z M787.2,367.6c0-2.1-0.6-3.7-1.8-4.8
		c-1.2-1-2.7-1.5-4.5-1.5c-4.1,0-6.4,2.1-7,6.3H787.2z"/>
	<path class="st0" d="M492.5,427l-3.9-5.9h-2.3v5.9h-1.4v-14.1h4.3c1.6,0,2.8,0.4,3.6,1.1c0.8,0.7,1.2,1.8,1.2,3
		c0,1.2-0.3,2.1-1,2.8s-1.6,1.1-2.9,1.2l4,5.9H492.5z M486.3,420.1h2.8c2.3,0,3.4-1,3.4-2.9c0-2-1.1-3-3.4-3h-2.8V420.1z"/>
	<path class="st0" d="M515.7,414v5.3h5.5v1.1h-5.5v5.4h6.1v1.2h-7.5v-14.1h7.5v1.1H515.7z"/>
	<path class="st0" d="M552.6,414c1.1,0.8,1.9,1.9,2.3,3.4h-1.5c-0.4-1-1-1.8-1.9-2.4c-0.9-0.6-1.9-0.9-3.2-0.9c-1,0-1.9,0.2-2.7,0.7
		c-0.8,0.5-1.4,1.2-1.9,2.1c-0.5,0.9-0.7,1.9-0.7,3.1s0.2,2.2,0.7,3.1s1.1,1.6,1.9,2c0.8,0.5,1.7,0.7,2.7,0.7c1.3,0,2.4-0.3,3.2-0.9
		c0.9-0.6,1.5-1.4,1.9-2.4h1.5c-0.5,1.4-1.2,2.6-2.3,3.4c-1.1,0.8-2.5,1.2-4.2,1.2c-1.3,0-2.4-0.3-3.5-0.9c-1-0.6-1.8-1.5-2.4-2.6
		c-0.6-1.1-0.8-2.3-0.8-3.7c0-1.4,0.3-2.6,0.8-3.7c0.6-1.1,1.3-1.9,2.4-2.6c1-0.6,2.2-0.9,3.5-0.9
		C550.1,412.8,551.5,413.2,552.6,414z"/>
	<path class="st0" d="M585.5,413.7c1,0.6,1.9,1.5,2.4,2.6c0.6,1.1,0.9,2.3,0.9,3.7s-0.3,2.6-0.9,3.7s-1.4,2-2.4,2.6
		c-1,0.6-2.2,0.9-3.5,0.9s-2.5-0.3-3.5-0.9c-1-0.6-1.9-1.5-2.4-2.6c-0.6-1.1-0.9-2.3-0.9-3.7s0.3-2.6,0.9-3.7
		c0.6-1.1,1.4-1.9,2.4-2.6c1-0.6,2.2-0.9,3.5-0.9S584.4,413,585.5,413.7z M579.2,414.8c-0.8,0.5-1.5,1.2-1.9,2.1
		c-0.5,0.9-0.7,1.9-0.7,3.1c0,1.2,0.2,2.2,0.7,3.1c0.5,0.9,1.1,1.6,1.9,2.1c0.8,0.5,1.7,0.7,2.8,0.7s2-0.2,2.8-0.7
		c0.8-0.5,1.5-1.2,1.9-2.1c0.5-0.9,0.7-1.9,0.7-3.1c0-1.2-0.2-2.2-0.7-3.1c-0.5-0.9-1.1-1.6-1.9-2.1c-0.8-0.5-1.7-0.7-2.8-0.7
		S580,414.3,579.2,414.8z"/>
	<path class="st0" d="M616.9,427l-3.9-5.9h-2.3v5.9h-1.4v-14.1h4.3c1.6,0,2.8,0.4,3.6,1.1c0.8,0.7,1.2,1.8,1.2,3
		c0,1.2-0.3,2.1-1,2.8s-1.6,1.1-2.9,1.2l4,5.9H616.9z M610.8,420.1h2.8c2.3,0,3.4-1,3.4-2.9c0-2-1.1-3-3.4-3h-2.8V420.1z"/>
	<path class="st0" d="M649.6,423.7c-0.6,1.1-1.4,1.9-2.5,2.4s-2.5,0.8-4,0.8h-4.3v-14.1h4.3c2.4,0,4.2,0.6,5.5,1.9
		c1.3,1.2,1.9,3,1.9,5.2C650.4,421.4,650.1,422.6,649.6,423.7z M647.4,424.2c1-1,1.6-2.4,1.6-4.3c0-1.8-0.5-3.2-1.6-4.3
		c-1-1-2.6-1.5-4.5-1.5h-2.7v11.6h2.7C644.9,425.7,646.4,425.2,647.4,424.2z"/>
	<path class="st0" d="M679.1,425.2c-0.3,0.6-0.8,1-1.4,1.4c-0.6,0.4-1.4,0.5-2.3,0.5c-0.9,0-1.7-0.2-2.4-0.5
		c-0.7-0.3-1.3-0.8-1.7-1.4s-0.7-1.2-0.7-1.9h1.5c0.1,0.4,0.2,0.8,0.5,1.2c0.3,0.4,0.6,0.8,1.1,1s1.1,0.4,1.7,0.4
		c0.9,0,1.6-0.2,2-0.7c0.5-0.5,0.7-1.1,0.7-1.8c0-0.6-0.2-1.1-0.5-1.5c-0.3-0.4-0.7-0.7-1.2-0.9c-0.5-0.2-1.1-0.4-1.9-0.7
		c-0.9-0.3-1.6-0.6-2.1-0.8c-0.5-0.3-1-0.6-1.4-1.2c-0.4-0.5-0.6-1.2-0.6-2c0-1.1,0.4-1.9,1.1-2.6c0.7-0.7,1.8-1,3.1-1
		c1.3,0,2.4,0.3,3.2,1c0.8,0.7,1.2,1.5,1.4,2.4h-1.5c-0.1-0.6-0.4-1.1-0.9-1.6c-0.5-0.5-1.2-0.7-2.1-0.7c-0.8,0-1.5,0.2-2,0.6
		s-0.7,1-0.7,1.8c0,0.6,0.2,1.1,0.5,1.5s0.7,0.7,1.1,0.9c0.4,0.2,1.1,0.4,1.8,0.7c0.9,0.3,1.6,0.6,2.2,0.8c0.6,0.3,1,0.7,1.4,1.2
		c0.4,0.5,0.6,1.2,0.6,2.1C679.6,424.1,679.4,424.7,679.1,425.2z"/>
</g>
<path class="st1" d="M-446.8,102.1c-1.3,0-2.4,1.1-2.4,2.4c0,1.3,1.1,2.4,2.4,2.4c1.3,0,2.4-1.1,2.4-2.4
	C-444.5,103.2-445.5,102.1-446.8,102.1z M-446.8,102.1c-1.3,0-2.4,1.1-2.4,2.4c0,1.3,1.1,2.4,2.4,2.4c1.3,0,2.4-1.1,2.4-2.4
	C-444.5,103.2-445.5,102.1-446.8,102.1z M-441,104.4c0-0.6,0-1.1,0-1.7c0-0.5,0-1.1-0.1-1.6c-0.1-1.2-0.8-2-2-2.3
	c-0.6-0.1-1.3-0.1-1.9-0.1c-1.2,0-2.4,0-3.6,0c-0.6,0-1.2,0-1.8,0.1c-1,0.2-1.7,0.8-2,1.8c-0.1,0.3-0.1,0.7-0.2,1c0,1.3,0,2.6,0,3.9
	c0,0.8,0,1.7,0.1,2.5c0.1,1.2,0.8,2,2,2.3c0.6,0.1,1.3,0.1,2,0.2c1.2,0,2.4,0,3.6,0c0.5,0,1.1,0,1.6-0.1c0.5-0.1,1-0.2,1.4-0.5
	c0.7-0.5,0.9-1.3,1-2.1C-441,106.6-441,105.5-441,104.4C-441,104.4-441,104.4-441,104.4z M-446.9,108.2c-2,0-3.7-1.6-3.7-3.7
	c0-2,1.7-3.6,3.7-3.6c2,0,3.6,1.7,3.6,3.7C-443.2,106.5-444.8,108.2-446.9,108.2z M-443,101.5c-0.5,0-0.9-0.4-0.9-0.9
	c0-0.5,0.4-0.9,0.9-0.8c0.5,0,0.9,0.4,0.8,0.9C-442.2,101.2-442.6,101.5-443,101.5z M-446.8,102.1c-1.3,0-2.4,1.1-2.4,2.4
	c0,1.3,1.1,2.4,2.4,2.4c1.3,0,2.4-1.1,2.4-2.4C-444.5,103.2-445.5,102.1-446.8,102.1z M-441,104.4c0-0.6,0-1.1,0-1.7
	c0-0.5,0-1.1-0.1-1.6c-0.1-1.2-0.8-2-2-2.3c-0.6-0.1-1.3-0.1-1.9-0.1c-1.2,0-2.4,0-3.6,0c-0.6,0-1.2,0-1.8,0.1c-1,0.2-1.7,0.8-2,1.8
	c-0.1,0.3-0.1,0.7-0.2,1c0,1.3,0,2.6,0,3.9c0,0.8,0,1.7,0.1,2.5c0.1,1.2,0.8,2,2,2.3c0.6,0.1,1.3,0.1,2,0.2c1.2,0,2.4,0,3.6,0
	c0.5,0,1.1,0,1.6-0.1c0.5-0.1,1-0.2,1.4-0.5c0.7-0.5,0.9-1.3,1-2.1C-441,106.6-441,105.5-441,104.4C-441,104.4-441,104.4-441,104.4z
	 M-446.9,108.2c-2,0-3.7-1.6-3.7-3.7c0-2,1.7-3.6,3.7-3.6c2,0,3.6,1.7,3.6,3.7C-443.2,106.5-444.8,108.2-446.9,108.2z M-443,101.5
	c-0.5,0-0.9-0.4-0.9-0.9c0-0.5,0.4-0.9,0.9-0.8c0.5,0,0.9,0.4,0.8,0.9C-442.2,101.2-442.6,101.5-443,101.5z M-446.8,102.1
	c-1.3,0-2.4,1.1-2.4,2.4c0,1.3,1.1,2.4,2.4,2.4c1.3,0,2.4-1.1,2.4-2.4C-444.5,103.2-445.5,102.1-446.8,102.1z M-446.8,92
	c-6.9,0-12.5,5.6-12.5,12.5s5.6,12.5,12.5,12.5s12.5-5.6,12.5-12.5S-439.9,92-446.8,92z M-439.7,107.4c0,0.8-0.2,1.6-0.6,2.4
	c-0.6,1-1.4,1.5-2.5,1.7c-0.7,0.1-1.3,0.2-2,0.2c-1.4,0-2.8,0-4.3,0c-0.7,0-1.5,0-2.2-0.3c-1.4-0.5-2.2-1.5-2.5-2.9
	c-0.1-0.6-0.2-1.3-0.2-2c0-1.4,0-2.8,0-4.3c0-0.8,0-1.5,0.3-2.2c0.5-1.4,1.5-2.2,2.9-2.5c0.6-0.1,1.3-0.2,2-0.2c1.4,0,2.8,0,4.3,0
	c0.7,0,1.5,0,2.2,0.3c1.4,0.5,2.2,1.5,2.5,2.9c0.1,0.6,0.1,1.3,0.2,2c0,0.7,0,1.3,0,2h0C-439.7,105.5-439.7,106.4-439.7,107.4z
	 M-441,102.7c0-0.5,0-1.1-0.1-1.6c-0.1-1.2-0.8-2-2-2.3c-0.6-0.1-1.3-0.1-1.9-0.1c-1.2,0-2.4,0-3.6,0c-0.6,0-1.2,0-1.8,0.1
	c-1,0.2-1.7,0.8-2,1.8c-0.1,0.3-0.1,0.7-0.2,1c0,1.3,0,2.6,0,3.9c0,0.8,0,1.7,0.1,2.5c0.1,1.2,0.8,2,2,2.3c0.6,0.1,1.3,0.1,2,0.2
	c1.2,0,2.4,0,3.6,0c0.5,0,1.1,0,1.6-0.1c0.5-0.1,1-0.2,1.4-0.5c0.7-0.5,0.9-1.3,1-2.1c0.1-1.1,0.1-2.2,0.1-3.3c0,0,0,0,0,0
	C-441,103.8-441,103.3-441,102.7z M-446.9,108.2c-2,0-3.7-1.6-3.7-3.7c0-2,1.7-3.6,3.7-3.6c2,0,3.6,1.7,3.6,3.7
	C-443.2,106.5-444.8,108.2-446.9,108.2z M-443,101.5c-0.5,0-0.9-0.4-0.9-0.9c0-0.5,0.4-0.9,0.9-0.8c0.5,0,0.9,0.4,0.8,0.9
	C-442.2,101.2-442.6,101.5-443,101.5z M-446.8,102.1c-1.3,0-2.4,1.1-2.4,2.4c0,1.3,1.1,2.4,2.4,2.4c1.3,0,2.4-1.1,2.4-2.4
	C-444.5,103.2-445.5,102.1-446.8,102.1z M-446.8,102.1c-1.3,0-2.4,1.1-2.4,2.4c0,1.3,1.1,2.4,2.4,2.4c1.3,0,2.4-1.1,2.4-2.4
	C-444.5,103.2-445.5,102.1-446.8,102.1z M-446.8,102.1c-1.3,0-2.4,1.1-2.4,2.4c0,1.3,1.1,2.4,2.4,2.4c1.3,0,2.4-1.1,2.4-2.4
	C-444.5,103.2-445.5,102.1-446.8,102.1z M-441,104.4c0-0.6,0-1.1,0-1.7c0-0.5,0-1.1-0.1-1.6c-0.1-1.2-0.8-2-2-2.3
	c-0.6-0.1-1.3-0.1-1.9-0.1c-1.2,0-2.4,0-3.6,0c-0.6,0-1.2,0-1.8,0.1c-1,0.2-1.7,0.8-2,1.8c-0.1,0.3-0.1,0.7-0.2,1c0,1.3,0,2.6,0,3.9
	c0,0.8,0,1.7,0.1,2.5c0.1,1.2,0.8,2,2,2.3c0.6,0.1,1.3,0.1,2,0.2c1.2,0,2.4,0,3.6,0c0.5,0,1.1,0,1.6-0.1c0.5-0.1,1-0.2,1.4-0.5
	c0.7-0.5,0.9-1.3,1-2.1C-441,106.6-441,105.5-441,104.4C-441,104.4-441,104.4-441,104.4z M-446.9,108.2c-2,0-3.7-1.6-3.7-3.7
	c0-2,1.7-3.6,3.7-3.6c2,0,3.6,1.7,3.6,3.7C-443.2,106.5-444.8,108.2-446.9,108.2z M-443,101.5c-0.5,0-0.9-0.4-0.9-0.9
	c0-0.5,0.4-0.9,0.9-0.8c0.5,0,0.9,0.4,0.8,0.9C-442.2,101.2-442.6,101.5-443,101.5z M-446.8,102.1c-1.3,0-2.4,1.1-2.4,2.4
	c0,1.3,1.1,2.4,2.4,2.4c1.3,0,2.4-1.1,2.4-2.4C-444.5,103.2-445.5,102.1-446.8,102.1z M-446.8,102.1c-1.3,0-2.4,1.1-2.4,2.4
	c0,1.3,1.1,2.4,2.4,2.4c1.3,0,2.4-1.1,2.4-2.4C-444.5,103.2-445.5,102.1-446.8,102.1z M-446.8,102.1c-1.3,0-2.4,1.1-2.4,2.4
	c0,1.3,1.1,2.4,2.4,2.4c1.3,0,2.4-1.1,2.4-2.4C-444.5,103.2-445.5,102.1-446.8,102.1z M-441,104.4c0-0.6,0-1.1,0-1.7
	c0-0.5,0-1.1-0.1-1.6c-0.1-1.2-0.8-2-2-2.3c-0.6-0.1-1.3-0.1-1.9-0.1c-1.2,0-2.4,0-3.6,0c-0.6,0-1.2,0-1.8,0.1c-1,0.2-1.7,0.8-2,1.8
	c-0.1,0.3-0.1,0.7-0.2,1c0,1.3,0,2.6,0,3.9c0,0.8,0,1.7,0.1,2.5c0.1,1.2,0.8,2,2,2.3c0.6,0.1,1.3,0.1,2,0.2c1.2,0,2.4,0,3.6,0
	c0.5,0,1.1,0,1.6-0.1c0.5-0.1,1-0.2,1.4-0.5c0.7-0.5,0.9-1.3,1-2.1C-441,106.6-441,105.5-441,104.4C-441,104.4-441,104.4-441,104.4z
	 M-446.9,108.2c-2,0-3.7-1.6-3.7-3.7c0-2,1.7-3.6,3.7-3.6c2,0,3.6,1.7,3.6,3.7C-443.2,106.5-444.8,108.2-446.9,108.2z M-443,101.5
	c-0.5,0-0.9-0.4-0.9-0.9c0-0.5,0.4-0.9,0.9-0.8c0.5,0,0.9,0.4,0.8,0.9C-442.2,101.2-442.6,101.5-443,101.5z M-446.8,102.1
	c-1.3,0-2.4,1.1-2.4,2.4c0,1.3,1.1,2.4,2.4,2.4c1.3,0,2.4-1.1,2.4-2.4C-444.5,103.2-445.5,102.1-446.8,102.1z"/>
<path class="st1" d="M-487.2,92c-6.9,0-12.5,5.6-12.5,12.5s5.6,12.5,12.5,12.5s12.5-5.6,12.5-12.5S-480.3,92-487.2,92z M-483.4,96.9
	c0,0.7,0,1.4,0,2c0,0.2-0.1,0.3-0.3,0.3c-0.4,0-0.8,0-1.2,0c-0.6,0-0.9,0.3-0.9,0.9c0,0.4,0,0.8,0,1.1c0,0.2,0.1,0.3,0.3,0.3
	c0.6,0,1.2,0,1.7,0c0.3,0,0.4,0.1,0.4,0.4c-0.1,0.7-0.2,1.4-0.2,2.1c0,0.3-0.2,0.4-0.5,0.4c-0.6,0-1.1,0-1.7,0v1.7
	c0,1.9,0,3.9,0,5.8c0,0.5,0,0.5-0.5,0.5c-0.8,0-1.6,0-2.5,0c-0.4,0-0.5,0-0.5-0.5c0-2.3,0-4.7,0-7c0-0.5,0-0.5-0.5-0.5
	c-0.3,0-0.6,0-0.8,0c-0.2,0-0.3-0.1-0.3-0.3c0-0.7,0-1.5,0-2.2c0-0.2,0.1-0.3,0.3-0.3c0.3,0,0.7,0,1,0c0.2,0,0.3-0.1,0.3-0.3
	c0-0.8,0-1.5,0.1-2.2c0.1-1.5,1.3-2.6,2.8-2.6c0.9,0,1.7,0,2.6-0.1C-483.5,96.5-483.4,96.6-483.4,96.9z"/>
<path class="st1" d="M-406.4,92c-6.9,0-12.5,5.6-12.5,12.5s5.6,12.5,12.5,12.5c6.9,0,12.5-5.6,12.5-12.5S-399.4,92-406.4,92z
	 M-399.2,100c-0.4,0.5-0.8,1-1.4,1.4c-0.1,0-0.1,0.1-0.1,0.2c0,0.7,0,1.4-0.2,2c-0.4,1.6-1.1,3-2.2,4.2c-1,1-2.1,1.7-3.5,2.2
	c-0.7,0.2-1.4,0.3-2.1,0.4c-0.7,0-1.4,0-2.1-0.1c-0.9-0.2-1.8-0.5-2.6-1c-0.1-0.1-0.2-0.1-0.4-0.2c0,0,0,0,0,0
	c0.8,0.1,1.6,0,2.3-0.2c0.8-0.2,1.4-0.6,2.1-1.1c-1.5-0.1-2.5-1.1-2.8-2.1c0.2,0,0.4,0.1,0.7,0c0.2,0,0.6-0.1,0.7-0.1
	c-0.7-0.2-1.3-0.5-1.7-1.1c-0.4-0.6-0.7-1.2-0.7-1.9c0.2,0.1,0.4,0.2,0.6,0.3c0.2,0.1,0.5,0.1,0.7,0.1c0,0,0,0,0,0c0,0,0,0,0,0
	c-0.2-0.1-0.4-0.3-0.5-0.4c-0.6-0.7-0.9-1.6-0.7-2.6c0.1-0.3,0.2-0.6,0.3-0.9c0,0,0,0,0.1,0c0,0,0,0,0,0c1.2,1.4,2.6,2.3,4.3,2.8
	c0.6,0.1,1.1,0.2,1.7,0.3c0,0,0.1,0,0-0.1c-0.1-0.4-0.1-0.8,0-1.1c0.2-1.3,1.2-2.3,2.5-2.4c0.1,0,0.1,0,0.2,0h0c0,0,0,0,0,0
	c0.1,0,0.2,0,0.4,0c0.1,0,0.2,0,0.3,0c0.6,0.1,1.2,0.4,1.6,0.9c0,0,0,0,0.1,0c0.6-0.1,1.2-0.4,1.8-0.7c0,0,0,0,0.1,0
	c-0.2,0.7-0.7,1.2-1.3,1.6c0.3,0,0.6-0.1,0.8-0.2C-399.7,100.2-399.4,100.1-399.2,100C-399.1,100-399.2,100-399.2,100z"/>
<path class="st1" d="M-365.6,92c-6.9,0-12.5,5.6-12.5,12.5s5.6,12.5,12.5,12.5c6.9,0,12.5-5.6,12.5-12.5S-358.7,92-365.6,92z
	 M-358.4,105.5c0,0.5-0.1,1-0.1,1.5c0,0.4-0.1,0.7-0.2,1c-0.2,0.7-0.7,1.2-1.5,1.3c-0.4,0.1-0.8,0.1-1.2,0.1c-0.7,0-1.3,0.1-2,0.1
	c-0.5,0-1.1,0-1.6,0c0,0-0.1,0-0.1,0h-0.8c0,0,0,0-0.1,0c-0.3,0-0.7,0-1,0c-0.4,0-0.9,0-1.3,0c-0.7,0-1.3,0-2-0.1
	c-0.3,0-0.7-0.1-1-0.1c-0.5-0.1-0.9-0.4-1.1-0.9c-0.2-0.4-0.3-0.7-0.3-1.1c-0.1-0.6-0.1-1.3-0.1-1.9c0-0.6,0-1.2,0-1.8
	c0-0.5,0.1-1,0.1-1.5c0-0.4,0.1-0.8,0.2-1.2c0.3-0.7,0.8-1.2,1.6-1.3c0.4-0.1,0.9-0.1,1.3-0.1c0.5,0,1.1,0,1.6-0.1
	c0.6,0,1.1,0,1.7,0c0,0,0.1,0,0.1,0h1.2c0,0,0,0,0.1,0c0.4,0,0.8,0,1.2,0c0.3,0,0.7,0,1,0c0.6,0,1.3,0,1.9,0.1c0.3,0,0.5,0,0.8,0.1
	c0.6,0.1,1,0.4,1.2,0.9c0.2,0.3,0.3,0.7,0.3,1c0.1,0.5,0.1,1.1,0.1,1.6C-358.4,104-358.4,104.8-358.4,105.5z M-367.1,106.4
	c1.3-0.7,2.6-1.3,3.9-2c-1.3-0.7-2.6-1.4-3.9-2V106.4z"/>
<path class="st0" d="M-446.8,133.1c-1.3,0-2.4,1.1-2.4,2.4c0,1.3,1.1,2.4,2.4,2.4c1.3,0,2.4-1.1,2.4-2.4
	C-444.5,134.2-445.5,133.1-446.8,133.1z M-446.8,133.1c-1.3,0-2.4,1.1-2.4,2.4c0,1.3,1.1,2.4,2.4,2.4c1.3,0,2.4-1.1,2.4-2.4
	C-444.5,134.2-445.5,133.1-446.8,133.1z M-441,135.4c0-0.6,0-1.1,0-1.7c0-0.5,0-1.1-0.1-1.6c-0.1-1.2-0.8-2-2-2.3
	c-0.6-0.1-1.3-0.1-1.9-0.1c-1.2,0-2.4,0-3.6,0c-0.6,0-1.2,0-1.8,0.1c-1,0.2-1.7,0.8-2,1.8c-0.1,0.3-0.1,0.7-0.2,1c0,1.3,0,2.6,0,3.9
	c0,0.8,0,1.7,0.1,2.5c0.1,1.2,0.8,2,2,2.3c0.6,0.1,1.3,0.1,2,0.2c1.2,0,2.4,0,3.6,0c0.5,0,1.1,0,1.6-0.1c0.5-0.1,1-0.2,1.4-0.5
	c0.7-0.5,0.9-1.3,1-2.1C-441,137.6-441,136.5-441,135.4C-441,135.4-441,135.4-441,135.4z M-446.9,139.2c-2,0-3.7-1.6-3.7-3.7
	c0-2,1.7-3.6,3.7-3.6c2,0,3.6,1.7,3.6,3.7C-443.2,137.5-444.8,139.2-446.9,139.2z M-443,132.5c-0.5,0-0.9-0.4-0.9-0.9
	c0-0.5,0.4-0.9,0.9-0.8c0.5,0,0.9,0.4,0.8,0.9C-442.2,132.2-442.6,132.5-443,132.5z M-446.8,133.1c-1.3,0-2.4,1.1-2.4,2.4
	c0,1.3,1.1,2.4,2.4,2.4c1.3,0,2.4-1.1,2.4-2.4C-444.5,134.2-445.5,133.1-446.8,133.1z M-446.9,139.2c-2,0-3.7-1.6-3.7-3.7
	c0-2,1.7-3.6,3.7-3.6c2,0,3.6,1.7,3.6,3.7C-443.2,137.5-444.8,139.2-446.9,139.2z M-443,132.5c-0.5,0-0.9-0.4-0.9-0.9
	c0-0.5,0.4-0.9,0.9-0.8c0.5,0,0.9,0.4,0.8,0.9C-442.2,132.2-442.6,132.5-443,132.5z M-446.8,133.1c-1.3,0-2.4,1.1-2.4,2.4
	c0,1.3,1.1,2.4,2.4,2.4c1.3,0,2.4-1.1,2.4-2.4C-444.5,134.2-445.5,133.1-446.8,133.1z M-439.7,138.4c0,0.8-0.2,1.6-0.6,2.4
	c-0.6,1-1.4,1.5-2.5,1.7c-0.7,0.1-1.3,0.2-2,0.2c-1.4,0-2.8,0-4.3,0c-0.7,0-1.5,0-2.2-0.3c-1.4-0.5-2.2-1.5-2.5-2.9
	c-0.1-0.6-0.2-1.3-0.2-2c0-1.4,0-2.8,0-4.3c0-0.8,0-1.5,0.3-2.2c0.5-1.4,1.5-2.2,2.9-2.5c0.6-0.1,1.3-0.2,2-0.2c1.4,0,2.8,0,4.3,0
	c0.7,0,1.5,0,2.2,0.3c1.4,0.5,2.2,1.5,2.5,2.9c0.1,0.6,0.1,1.3,0.2,2c0,0.7,0,1.3,0,2h0C-439.7,136.5-439.7,137.4-439.7,138.4z
	 M-446.9,139.2c-2,0-3.7-1.6-3.7-3.7c0-2,1.7-3.6,3.7-3.6c2,0,3.6,1.7,3.6,3.7C-443.2,137.5-444.8,139.2-446.9,139.2z M-443,132.5
	c-0.5,0-0.9-0.4-0.9-0.9c0-0.5,0.4-0.9,0.9-0.8c0.5,0,0.9,0.4,0.8,0.9C-442.2,132.2-442.6,132.5-443,132.5z M-446.9,139.2
	c-2,0-3.7-1.6-3.7-3.7c0-2,1.7-3.6,3.7-3.6c2,0,3.6,1.7,3.6,3.7C-443.2,137.5-444.8,139.2-446.9,139.2z M-443,132.5
	c-0.5,0-0.9-0.4-0.9-0.9c0-0.5,0.4-0.9,0.9-0.8c0.5,0,0.9,0.4,0.8,0.9C-442.2,132.2-442.6,132.5-443,132.5z M-443,132.5
	c-0.5,0-0.9-0.4-0.9-0.9c0-0.5,0.4-0.9,0.9-0.8c0.5,0,0.9,0.4,0.8,0.9C-442.2,132.2-442.6,132.5-443,132.5z"/>
<path class="st0" d="M-483.4,127.9c0,0.7,0,1.4,0,2c0,0.2-0.1,0.3-0.3,0.3c-0.4,0-0.8,0-1.2,0c-0.6,0-0.9,0.3-0.9,0.9
	c0,0.4,0,0.8,0,1.1c0,0.2,0.1,0.3,0.3,0.3c0.6,0,1.2,0,1.7,0c0.3,0,0.4,0.1,0.4,0.4c-0.1,0.7-0.2,1.4-0.2,2.1c0,0.3-0.2,0.4-0.5,0.4
	c-0.6,0-1.1,0-1.7,0v1.7c0,1.9,0,3.9,0,5.8c0,0.5,0,0.5-0.5,0.5c-0.8,0-1.6,0-2.5,0c-0.4,0-0.5,0-0.5-0.5c0-2.3,0-4.7,0-7
	c0-0.5,0-0.5-0.5-0.5c-0.3,0-0.6,0-0.8,0c-0.2,0-0.3-0.1-0.3-0.3c0-0.7,0-1.5,0-2.2c0-0.2,0.1-0.3,0.3-0.3c0.3,0,0.7,0,1,0
	c0.2,0,0.3-0.1,0.3-0.3c0-0.8,0-1.5,0.1-2.2c0.1-1.5,1.3-2.6,2.8-2.6c0.9,0,1.7,0,2.6-0.1C-483.5,127.5-483.4,127.6-483.4,127.9z"/>
<path class="st0" d="M-399.2,131c-0.4,0.5-0.8,1-1.4,1.4c-0.1,0-0.1,0.1-0.1,0.2c0,0.7,0,1.4-0.2,2c-0.4,1.6-1.1,3-2.2,4.2
	c-1,1-2.1,1.7-3.5,2.2c-0.7,0.2-1.4,0.3-2.1,0.4c-0.7,0-1.4,0-2.1-0.1c-0.9-0.2-1.8-0.5-2.6-1c-0.1-0.1-0.2-0.1-0.4-0.2c0,0,0,0,0,0
	c0.8,0.1,1.6,0,2.3-0.2c0.8-0.2,1.4-0.6,2.1-1.1c-1.5-0.1-2.5-1.1-2.8-2.1c0.2,0,0.4,0.1,0.7,0c0.2,0,0.6-0.1,0.7-0.1
	c-0.7-0.2-1.3-0.5-1.7-1.1c-0.4-0.6-0.7-1.2-0.7-1.9c0.2,0.1,0.4,0.2,0.6,0.3c0.2,0.1,0.5,0.1,0.7,0.1c0,0,0,0,0,0c0,0,0,0,0,0
	c-0.2-0.1-0.4-0.3-0.5-0.4c-0.6-0.7-0.9-1.6-0.7-2.6c0.1-0.3,0.2-0.6,0.3-0.9c0,0,0,0,0.1,0c0,0,0,0,0,0c1.2,1.4,2.6,2.3,4.3,2.8
	c0.6,0.1,1.1,0.2,1.7,0.3c0,0,0.1,0,0-0.1c-0.1-0.4-0.1-0.8,0-1.1c0.2-1.3,1.2-2.3,2.5-2.4c0.1,0,0.1,0,0.2,0h0c0,0,0,0,0,0
	c0.1,0,0.2,0,0.4,0c0.1,0,0.2,0,0.3,0c0.6,0.1,1.2,0.4,1.6,0.9c0,0,0,0,0.1,0c0.6-0.1,1.2-0.4,1.8-0.7c0,0,0,0,0.1,0
	c-0.2,0.7-0.7,1.2-1.3,1.6c0.3,0,0.6-0.1,0.8-0.2C-399.7,131.2-399.4,131.1-399.2,131C-399.1,131-399.2,131-399.2,131z"/>
<path class="st0" d="M-358.4,136.5c0,0.5-0.1,1-0.1,1.5c0,0.4-0.1,0.7-0.2,1c-0.2,0.7-0.7,1.2-1.5,1.3c-0.4,0.1-0.8,0.1-1.2,0.1
	c-0.7,0-1.3,0.1-2,0.1c-0.5,0-1.1,0-1.6,0c0,0-0.1,0-0.1,0h-0.8c0,0,0,0-0.1,0c-0.3,0-0.7,0-1,0c-0.4,0-0.9,0-1.3,0
	c-0.7,0-1.3,0-2-0.1c-0.3,0-0.7-0.1-1-0.1c-0.5-0.1-0.9-0.4-1.1-0.9c-0.2-0.4-0.3-0.7-0.3-1.1c-0.1-0.6-0.1-1.3-0.1-1.9
	c0-0.6,0-1.2,0-1.8c0-0.5,0.1-1,0.1-1.5c0-0.4,0.1-0.8,0.2-1.2c0.3-0.7,0.8-1.2,1.6-1.3c0.4-0.1,0.9-0.1,1.3-0.1
	c0.5,0,1.1,0,1.6-0.1c0.6,0,1.1,0,1.7,0c0,0,0.1,0,0.1,0h1.2c0,0,0,0,0.1,0c0.4,0,0.8,0,1.2,0c0.3,0,0.7,0,1,0c0.6,0,1.3,0,1.9,0.1
	c0.3,0,0.5,0,0.8,0.1c0.6,0.1,1,0.4,1.2,0.9c0.2,0.3,0.3,0.7,0.3,1c0.1,0.5,0.1,1.1,0.1,1.6C-358.4,135-358.4,135.8-358.4,136.5z
	 M-367.1,137.4c1.3-0.7,2.6-1.3,3.9-2c-1.3-0.7-2.6-1.4-3.9-2V137.4z"/>
<g>
	<path class="st2" d="M315.5,36L17.5,36C7.9,36,0,28.1,0,18.5l0-1C0,7.9,7.9,0,17.5,0l297.9,0c9.6,0,17.5,7.9,17.5,17.5v1
		C333,28.1,325.1,36,315.5,36z"/>
	<path class="st2" d="M153.5,135h-136C7.9,135,0,127.1,0,117.5v-1C0,106.9,7.9,99,17.5,99h136c9.6,0,17.5,7.9,17.5,17.5v1
		C171,127.1,163.1,135,153.5,135z"/>
	<path class="st2" d="M315.5,234H17.5C7.9,234,0,226.1,0,216.5l0-1c0-9.6,7.9-17.5,17.5-17.5h297.9c9.6,0,17.5,7.9,17.5,17.5v1
		C333,226.1,325.1,234,315.5,234z"/>
</g>
<g>
	<path class="st0" d="M744.1-59.6L533.4,151.1c-6.8,6.8-18,6.8-24.8,0l-0.7-0.7c-6.8-6.8-6.8-18,0-24.8L718.6-85.1
		c6.8-6.8,18-6.8,24.8,0l0.7,0.7C750.9-77.6,750.9-66.4,744.1-59.6z"/>
	<path class="st0" d="M718.6,151.1L507.9-59.6c-6.8-6.8-6.8-18,0-24.8l0.7-0.7c6.8-6.8,18-6.8,24.8,0l210.7,210.7
		c6.8,6.8,6.8,18,0,24.8l-0.7,0.7C736.6,157.9,725.4,157.9,718.6,151.1z"/>
</g>
<path class="st3" d="M560.6,685.1l-15-28.4v28.4h-24.8V606h36.9c6.4,0,11.9,1.1,16.4,3.4c4.5,2.3,8,5.4,10.2,9.3
	c2.3,3.9,3.4,8.3,3.4,13.2c0,5.3-1.5,10-4.4,14.1c-2.9,4.1-7.2,7-12.7,8.8l17.2,30.3H560.6z M545.7,640.2h9.8c2.4,0,4.2-0.5,5.4-1.6
	c1.2-1.1,1.8-2.8,1.8-5.1c0-2.1-0.6-3.7-1.8-4.9c-1.2-1.2-3-1.8-5.3-1.8h-9.8V640.2z"/>
</svg>
