<?xml version="1.0" encoding="utf-8"?>
<!-- Generator: Adobe Illustrator 22.0.1, SVG Export Plug-In . SVG Version: 6.00 Build 0)  -->
<svg version="1.1" id="Capa_1" xmlns="http://www.w3.org/2000/svg" xmlns:xlink="http://www.w3.org/1999/xlink" x="0px" y="0px"
	 viewBox="0 0 14.5 11.8" style="enable-background:new 0 0 14.5 11.8;" xml:space="preserve">
<style type="text/css">
	.st0{fill:#414141;}
	.st1{fill:#FFFFFF;}
	.st2{fill:#F2F2F2;}
	.st3{fill:#4D4D4D;}
</style>
<text transform="matrix(1 0 0 1 -670.1374 313.451)"><tspan x="0" y="0" style="font-family:'Poppins-Black'; font-size:100px;">Redbone</tspan><tspan x="81.8" y="38" style="font-family:'Poppins-Light'; font-size:30px; letter-spacing:27;">RECORDS</tspan></text>
<g>
	<path class="st0" d="M806.5,271.5l-13.4-25.4v25.4h-22.2v-70.8h33c5.7,0,10.6,1,14.7,3c4.1,2,7.1,4.8,9.1,8.3c2,3.5,3,7.5,3,11.9
		c0,4.7-1.3,8.9-3.9,12.6c-2.6,3.7-6.4,6.3-11.4,7.9l15.4,27.1H806.5z M793.1,231.3h8.8c2.1,0,3.7-0.5,4.8-1.5
		c1.1-1,1.6-2.5,1.6-4.5c0-1.9-0.5-3.3-1.7-4.4c-1.1-1.1-2.7-1.6-4.8-1.6h-8.8V231.3z"/>
	<path class="st0" d="M892,247.2h-35.5c0.2,2.8,0.8,4.7,1.9,5.8c1.1,1,2.5,1.5,4.2,1.5c2.4,0,4.1-1.1,5.2-3.3h23.5
		c-0.8,4-2.5,7.6-5,10.8c-2.6,3.2-5.8,5.7-9.7,7.5c-3.9,1.8-8.2,2.8-12.8,2.8c-5.6,0-10.6-1.2-15-3.5c-4.4-2.3-7.8-5.7-10.2-10
		c-2.4-4.4-3.7-9.5-3.7-15.4c0-5.9,1.2-11,3.7-15.3c2.4-4.4,5.8-7.7,10.2-10c4.4-2.3,9.4-3.5,15-3.5s10.6,1.1,14.9,3.4
		c4.4,2.3,7.8,5.6,10.2,9.9c2.4,4.3,3.6,9.3,3.6,15.1C892.5,244.2,892.3,245.6,892,247.2z M870,238.1c0-2.1-0.6-3.7-1.8-4.8
		c-1.2-1-2.7-1.5-4.5-1.5c-4.1,0-6.4,2.1-7,6.3H870z"/>
	<path class="st0" d="M929.2,216.6c2.6,1.5,4.7,3.5,6.1,6.1v-25.3h22.2v74h-22.2v-7.7c-1.4,2.6-3.4,4.7-6.1,6.2
		c-2.6,1.5-5.8,2.2-9.4,2.2c-4.4,0-8.4-1.2-11.9-3.5c-3.5-2.3-6.3-5.6-8.3-10c-2-4.4-3.1-9.5-3.1-15.5c0-5.9,1-11.1,3.1-15.5
		c2-4.4,4.8-7.7,8.3-10c3.5-2.3,7.5-3.4,11.9-3.4C923.4,214.4,926.6,215.1,929.2,216.6z M921.3,236.3c-1.5,1.7-2.3,4-2.3,7
		s0.8,5.3,2.3,7c1.5,1.7,3.5,2.5,5.9,2.5c2.4,0,4.4-0.8,5.9-2.5c1.5-1.7,2.3-4,2.3-7s-0.8-5.3-2.3-7c-1.5-1.7-3.5-2.5-5.9-2.5
		C924.8,233.8,922.8,234.6,921.3,236.3z"/>
	<path class="st0" d="M1017.1,217.8c3.5,2.3,6.3,5.6,8.3,10c2,4.4,3.1,9.5,3.1,15.5c0,5.9-1,11.1-3.1,15.5c-2,4.4-4.8,7.7-8.3,10
		c-3.5,2.3-7.5,3.5-11.9,3.5c-3.7,0-6.8-0.8-9.4-2.2c-2.6-1.5-4.7-3.5-6.1-6.2v7.7h-22.2v-74h22.2v25.3c1.4-2.6,3.4-4.6,6.1-6.1
		c2.6-1.5,5.8-2.2,9.4-2.2C1009.6,214.4,1013.5,215.5,1017.1,217.8z M991.9,236.3c-1.5,1.7-2.3,4-2.3,7s0.8,5.3,2.3,7
		c1.5,1.7,3.5,2.5,5.9,2.5c2.4,0,4.4-0.8,5.9-2.5c1.5-1.7,2.3-4,2.3-7s-0.8-5.3-2.3-7c-1.5-1.7-3.5-2.5-5.9-2.5
		C995.4,233.8,993.4,234.6,991.9,236.3z"/>
	<path class="st0" d="M1077.6,217.9c4.5,2.3,8.1,5.7,10.6,10c2.6,4.4,3.9,9.5,3.9,15.3c0,5.9-1.3,11-3.9,15.4
		c-2.6,4.4-6.1,7.7-10.6,10c-4.5,2.3-9.6,3.5-15.3,3.5c-5.7,0-10.8-1.2-15.3-3.5c-4.5-2.3-8.1-5.7-10.6-10
		c-2.6-4.4-3.9-9.5-3.9-15.4c0-5.9,1.3-11,3.9-15.3c2.6-4.4,6.1-7.7,10.6-10c4.5-2.3,9.6-3.5,15.3-3.5
		C1067.9,214.4,1073,215.5,1077.6,217.9z M1057.1,236c-1.4,1.6-2.1,4-2.1,7.2s0.7,5.6,2,7.2c1.4,1.6,3.1,2.5,5.2,2.5
		c2.1,0,3.8-0.8,5.2-2.5c1.4-1.6,2.1-4,2.1-7.2s-0.7-5.6-2.1-7.2c-1.4-1.6-3.1-2.5-5.2-2.5S1058.5,234.4,1057.1,236z"/>
	<path class="st0" d="M1153.7,221.2c3.6,4.3,5.4,10.2,5.4,17.6v32.7h-22.1v-29.9c0-2.7-0.7-4.8-2.2-6.3c-1.4-1.6-3.3-2.3-5.8-2.3
		c-2.5,0-4.4,0.8-5.8,2.3c-1.4,1.6-2.1,3.7-2.1,6.3v29.9h-22.2v-56.4h22.2v8.6c1.7-2.7,4-4.8,7-6.5c2.9-1.7,6.3-2.5,10.3-2.5
		C1145,214.7,1150.1,216.8,1153.7,221.2z"/>
	<path class="st0" d="M1222.9,247.2h-35.5c0.2,2.8,0.8,4.7,1.9,5.8c1.1,1,2.5,1.5,4.2,1.5c2.4,0,4.1-1.1,5.2-3.3h23.5
		c-0.8,4-2.5,7.6-5.1,10.8c-2.6,3.2-5.8,5.7-9.7,7.5c-3.9,1.8-8.2,2.8-12.9,2.8c-5.6,0-10.6-1.2-15-3.5c-4.4-2.3-7.8-5.7-10.2-10
		c-2.4-4.4-3.7-9.5-3.7-15.4c0-5.9,1.2-11,3.7-15.3c2.4-4.4,5.8-7.7,10.2-10c4.4-2.3,9.4-3.5,15-3.5c5.6,0,10.6,1.1,15,3.4
		c4.4,2.3,7.8,5.6,10.2,9.9c2.4,4.3,3.6,9.3,3.6,15.1C1223.4,244.2,1223.2,245.6,1222.9,247.2z M1200.9,238.1c0-2.1-0.6-3.7-1.8-4.8
		c-1.2-1-2.7-1.5-4.5-1.5c-4.1,0-6.4,2.1-7,6.3H1200.9z"/>
	<path class="st0" d="M906.1,297.5l-3.9-5.9h-2.3v5.9h-1.4v-14.1h4.3c1.6,0,2.8,0.4,3.6,1.1c0.8,0.7,1.2,1.8,1.2,3
		c0,1.2-0.3,2.1-1,2.8s-1.6,1.1-2.9,1.2l4,5.9H906.1z M899.9,290.5h2.8c2.3,0,3.4-1,3.4-2.9c0-2-1.1-3-3.4-3h-2.8V290.5z"/>
	<path class="st0" d="M929.3,284.5v5.3h5.5v1.1h-5.5v5.4h6.1v1.2h-7.5v-14.1h7.5v1.1H929.3z"/>
	<path class="st0" d="M966.3,284.4c1.1,0.8,1.9,1.9,2.3,3.4h-1.5c-0.4-1-1-1.8-1.9-2.4c-0.9-0.6-1.9-0.9-3.2-0.9
		c-1,0-1.9,0.2-2.7,0.7c-0.8,0.5-1.4,1.2-1.9,2.1c-0.5,0.9-0.7,1.9-0.7,3.1s0.2,2.2,0.7,3.1s1.1,1.6,1.9,2c0.8,0.5,1.7,0.7,2.7,0.7
		c1.3,0,2.4-0.3,3.2-0.9c0.9-0.6,1.5-1.4,1.9-2.4h1.5c-0.5,1.4-1.2,2.6-2.3,3.4c-1.1,0.8-2.5,1.2-4.2,1.2c-1.3,0-2.4-0.3-3.5-0.9
		c-1-0.6-1.8-1.5-2.4-2.6c-0.6-1.1-0.8-2.3-0.8-3.7c0-1.4,0.3-2.6,0.8-3.7c0.6-1.1,1.3-1.9,2.4-2.6c1-0.6,2.2-0.9,3.5-0.9
		C963.7,283.2,965.1,283.6,966.3,284.4z"/>
	<path class="st0" d="M999.1,284.1c1,0.6,1.9,1.5,2.4,2.6c0.6,1.1,0.9,2.3,0.9,3.7s-0.3,2.6-0.9,3.7s-1.4,2-2.4,2.6
		c-1,0.6-2.2,0.9-3.5,0.9s-2.5-0.3-3.5-0.9c-1-0.6-1.9-1.5-2.4-2.6c-0.6-1.1-0.9-2.3-0.9-3.7s0.3-2.6,0.9-3.7
		c0.6-1.1,1.4-1.9,2.4-2.6c1-0.6,2.2-0.9,3.5-0.9S998,283.5,999.1,284.1z M992.8,285.2c-0.8,0.5-1.5,1.2-1.9,2.1
		c-0.5,0.9-0.7,1.9-0.7,3.1c0,1.2,0.2,2.2,0.7,3.1c0.5,0.9,1.1,1.6,1.9,2.1c0.8,0.5,1.7,0.7,2.8,0.7s2-0.2,2.8-0.7
		c0.8-0.5,1.5-1.2,1.9-2.1c0.5-0.9,0.7-1.9,0.7-3.1c0-1.2-0.2-2.2-0.7-3.1c-0.5-0.9-1.1-1.6-1.9-2.1c-0.8-0.5-1.7-0.7-2.8-0.7
		S993.6,284.7,992.8,285.2z"/>
	<path class="st0" d="M1030.5,297.5l-3.9-5.9h-2.3v5.9h-1.4v-14.1h4.3c1.6,0,2.8,0.4,3.6,1.1c0.8,0.7,1.2,1.8,1.2,3
		c0,1.2-0.3,2.1-1,2.8s-1.6,1.1-2.9,1.2l4,5.9H1030.5z M1024.4,290.5h2.8c2.3,0,3.4-1,3.4-2.9c0-2-1.1-3-3.4-3h-2.8V290.5z"/>
	<path class="st0" d="M1063.2,294.2c-0.6,1.1-1.4,1.9-2.5,2.4s-2.5,0.8-4,0.8h-4.3v-14.1h4.3c2.4,0,4.2,0.6,5.5,1.9
		c1.3,1.2,1.9,3,1.9,5.2C1064,291.8,1063.7,293.1,1063.2,294.2z M1061,294.7c1-1,1.6-2.4,1.6-4.3c0-1.8-0.5-3.2-1.6-4.3
		c-1-1-2.6-1.5-4.5-1.5h-2.7v11.6h2.7C1058.5,296.2,1060,295.7,1061,294.7z"/>
	<path class="st0" d="M1092.7,295.7c-0.3,0.6-0.8,1-1.4,1.4c-0.6,0.4-1.4,0.5-2.3,0.5c-0.9,0-1.7-0.2-2.4-0.5
		c-0.7-0.3-1.3-0.8-1.7-1.4s-0.7-1.2-0.7-1.9h1.5c0.1,0.4,0.2,0.8,0.5,1.2c0.3,0.4,0.6,0.8,1.1,1s1.1,0.4,1.7,0.4
		c0.9,0,1.6-0.2,2-0.7c0.5-0.5,0.7-1.1,0.7-1.8c0-0.6-0.2-1.1-0.5-1.5c-0.3-0.4-0.7-0.7-1.2-0.9c-0.5-0.2-1.1-0.4-1.9-0.7
		c-0.9-0.3-1.6-0.6-2.1-0.8c-0.5-0.3-1-0.6-1.4-1.2c-0.4-0.5-0.6-1.2-0.6-2c0-1.1,0.4-1.9,1.1-2.6c0.7-0.7,1.8-1,3.1-1
		c1.3,0,2.4,0.3,3.2,1c0.8,0.7,1.2,1.5,1.4,2.4h-1.5c-0.1-0.6-0.4-1.1-0.9-1.6c-0.5-0.5-1.2-0.7-2.1-0.7c-0.8,0-1.5,0.2-2,0.6
		s-0.7,1-0.7,1.8c0,0.6,0.2,1.1,0.5,1.5s0.7,0.7,1.1,0.9c0.4,0.2,1.1,0.4,1.8,0.7c0.9,0.3,1.6,0.6,2.2,0.8c0.6,0.3,1,0.7,1.4,1.2
		c0.4,0.5,0.6,1.2,0.6,2.1C1093.2,294.5,1093,295.1,1092.7,295.7z"/>
</g>
<path class="st1" d="M-33.2-27.4c-1.3,0-2.4,1.1-2.4,2.4c0,1.3,1.1,2.4,2.4,2.4c1.3,0,2.4-1.1,2.4-2.4
	C-30.8-26.3-31.9-27.4-33.2-27.4z M-33.2-27.4c-1.3,0-2.4,1.1-2.4,2.4c0,1.3,1.1,2.4,2.4,2.4c1.3,0,2.4-1.1,2.4-2.4
	C-30.8-26.3-31.9-27.4-33.2-27.4z M-27.4-25.2c0-0.6,0-1.1,0-1.7c0-0.5,0-1.1-0.1-1.6c-0.1-1.2-0.8-2-2-2.3
	c-0.6-0.1-1.3-0.1-1.9-0.1c-1.2,0-2.4,0-3.6,0c-0.6,0-1.2,0-1.8,0.1c-1,0.2-1.7,0.8-2,1.8c-0.1,0.3-0.1,0.7-0.2,1c0,1.3,0,2.6,0,3.9
	c0,0.8,0,1.7,0.1,2.5c0.1,1.2,0.8,2,2,2.3c0.6,0.1,1.3,0.1,2,0.2c1.2,0,2.4,0,3.6,0c0.5,0,1.1,0,1.6-0.1c0.5-0.1,1-0.2,1.4-0.5
	c0.7-0.5,0.9-1.3,1-2.1C-27.4-23-27.4-24.1-27.4-25.2C-27.4-25.2-27.4-25.2-27.4-25.2z M-33.3-21.4c-2,0-3.7-1.6-3.7-3.7
	c0-2,1.7-3.6,3.7-3.6c2,0,3.6,1.7,3.6,3.7C-29.6-23-31.2-21.4-33.3-21.4z M-29.4-28c-0.5,0-0.9-0.4-0.9-0.9c0-0.5,0.4-0.9,0.9-0.8
	c0.5,0,0.9,0.4,0.8,0.9C-28.6-28.4-29-28-29.4-28z M-33.2-27.4c-1.3,0-2.4,1.1-2.4,2.4c0,1.3,1.1,2.4,2.4,2.4c1.3,0,2.4-1.1,2.4-2.4
	C-30.8-26.3-31.9-27.4-33.2-27.4z M-27.4-25.2c0-0.6,0-1.1,0-1.7c0-0.5,0-1.1-0.1-1.6c-0.1-1.2-0.8-2-2-2.3
	c-0.6-0.1-1.3-0.1-1.9-0.1c-1.2,0-2.4,0-3.6,0c-0.6,0-1.2,0-1.8,0.1c-1,0.2-1.7,0.8-2,1.8c-0.1,0.3-0.1,0.7-0.2,1c0,1.3,0,2.6,0,3.9
	c0,0.8,0,1.7,0.1,2.5c0.1,1.2,0.8,2,2,2.3c0.6,0.1,1.3,0.1,2,0.2c1.2,0,2.4,0,3.6,0c0.5,0,1.1,0,1.6-0.1c0.5-0.1,1-0.2,1.4-0.5
	c0.7-0.5,0.9-1.3,1-2.1C-27.4-23-27.4-24.1-27.4-25.2C-27.4-25.2-27.4-25.2-27.4-25.2z M-33.3-21.4c-2,0-3.7-1.6-3.7-3.7
	c0-2,1.7-3.6,3.7-3.6c2,0,3.6,1.7,3.6,3.7C-29.6-23-31.2-21.4-33.3-21.4z M-29.4-28c-0.5,0-0.9-0.4-0.9-0.9c0-0.5,0.4-0.9,0.9-0.8
	c0.5,0,0.9,0.4,0.8,0.9C-28.6-28.4-29-28-29.4-28z M-33.2-27.4c-1.3,0-2.4,1.1-2.4,2.4c0,1.3,1.1,2.4,2.4,2.4c1.3,0,2.4-1.1,2.4-2.4
	C-30.8-26.3-31.9-27.4-33.2-27.4z M-33.2-37.5c-6.9,0-12.5,5.6-12.5,12.5s5.6,12.5,12.5,12.5c6.9,0,12.5-5.6,12.5-12.5
	S-26.3-37.5-33.2-37.5z M-26.1-22.1c0,0.8-0.2,1.6-0.6,2.4c-0.6,1-1.4,1.5-2.5,1.7c-0.7,0.1-1.3,0.2-2,0.2c-1.4,0-2.8,0-4.3,0
	c-0.7,0-1.5,0-2.2-0.3c-1.4-0.5-2.2-1.5-2.5-2.9c-0.1-0.6-0.2-1.3-0.2-2c0-1.4,0-2.8,0-4.3c0-0.8,0-1.5,0.3-2.2
	c0.5-1.4,1.5-2.2,2.9-2.5c0.6-0.1,1.3-0.2,2-0.2c1.4,0,2.8,0,4.3,0c0.7,0,1.5,0,2.2,0.3c1.4,0.5,2.2,1.5,2.5,2.9
	c0.1,0.6,0.1,1.3,0.2,2c0,0.7,0,1.3,0,2h0C-26.1-24.1-26.1-23.1-26.1-22.1z M-27.4-26.9c0-0.5,0-1.1-0.1-1.6c-0.1-1.2-0.8-2-2-2.3
	c-0.6-0.1-1.3-0.1-1.9-0.1c-1.2,0-2.4,0-3.6,0c-0.6,0-1.2,0-1.8,0.1c-1,0.2-1.7,0.8-2,1.8c-0.1,0.3-0.1,0.7-0.2,1c0,1.3,0,2.6,0,3.9
	c0,0.8,0,1.7,0.1,2.5c0.1,1.2,0.8,2,2,2.3c0.6,0.1,1.3,0.1,2,0.2c1.2,0,2.4,0,3.6,0c0.5,0,1.1,0,1.6-0.1c0.5-0.1,1-0.2,1.4-0.5
	c0.7-0.5,0.9-1.3,1-2.1c0.1-1.1,0.1-2.2,0.1-3.3c0,0,0,0,0,0C-27.4-25.7-27.4-26.3-27.4-26.9z M-33.3-21.4c-2,0-3.7-1.6-3.7-3.7
	c0-2,1.7-3.6,3.7-3.6c2,0,3.6,1.7,3.6,3.7C-29.6-23-31.2-21.4-33.3-21.4z M-29.4-28c-0.5,0-0.9-0.4-0.9-0.9c0-0.5,0.4-0.9,0.9-0.8
	c0.5,0,0.9,0.4,0.8,0.9C-28.6-28.4-29-28-29.4-28z M-33.2-27.4c-1.3,0-2.4,1.1-2.4,2.4c0,1.3,1.1,2.4,2.4,2.4c1.3,0,2.4-1.1,2.4-2.4
	C-30.8-26.3-31.9-27.4-33.2-27.4z M-33.2-27.4c-1.3,0-2.4,1.1-2.4,2.4c0,1.3,1.1,2.4,2.4,2.4c1.3,0,2.4-1.1,2.4-2.4
	C-30.8-26.3-31.9-27.4-33.2-27.4z M-33.2-27.4c-1.3,0-2.4,1.1-2.4,2.4c0,1.3,1.1,2.4,2.4,2.4c1.3,0,2.4-1.1,2.4-2.4
	C-30.8-26.3-31.9-27.4-33.2-27.4z M-27.4-25.2c0-0.6,0-1.1,0-1.7c0-0.5,0-1.1-0.1-1.6c-0.1-1.2-0.8-2-2-2.3
	c-0.6-0.1-1.3-0.1-1.9-0.1c-1.2,0-2.4,0-3.6,0c-0.6,0-1.2,0-1.8,0.1c-1,0.2-1.7,0.8-2,1.8c-0.1,0.3-0.1,0.7-0.2,1c0,1.3,0,2.6,0,3.9
	c0,0.8,0,1.7,0.1,2.5c0.1,1.2,0.8,2,2,2.3c0.6,0.1,1.3,0.1,2,0.2c1.2,0,2.4,0,3.6,0c0.5,0,1.1,0,1.6-0.1c0.5-0.1,1-0.2,1.4-0.5
	c0.7-0.5,0.9-1.3,1-2.1C-27.4-23-27.4-24.1-27.4-25.2C-27.4-25.2-27.4-25.2-27.4-25.2z M-33.3-21.4c-2,0-3.7-1.6-3.7-3.7
	c0-2,1.7-3.6,3.7-3.6c2,0,3.6,1.7,3.6,3.7C-29.6-23-31.2-21.4-33.3-21.4z M-29.4-28c-0.5,0-0.9-0.4-0.9-0.9c0-0.5,0.4-0.9,0.9-0.8
	c0.5,0,0.9,0.4,0.8,0.9C-28.6-28.4-29-28-29.4-28z M-33.2-27.4c-1.3,0-2.4,1.1-2.4,2.4c0,1.3,1.1,2.4,2.4,2.4c1.3,0,2.4-1.1,2.4-2.4
	C-30.8-26.3-31.9-27.4-33.2-27.4z M-33.2-27.4c-1.3,0-2.4,1.1-2.4,2.4c0,1.3,1.1,2.4,2.4,2.4c1.3,0,2.4-1.1,2.4-2.4
	C-30.8-26.3-31.9-27.4-33.2-27.4z M-33.2-27.4c-1.3,0-2.4,1.1-2.4,2.4c0,1.3,1.1,2.4,2.4,2.4c1.3,0,2.4-1.1,2.4-2.4
	C-30.8-26.3-31.9-27.4-33.2-27.4z M-27.4-25.2c0-0.6,0-1.1,0-1.7c0-0.5,0-1.1-0.1-1.6c-0.1-1.2-0.8-2-2-2.3
	c-0.6-0.1-1.3-0.1-1.9-0.1c-1.2,0-2.4,0-3.6,0c-0.6,0-1.2,0-1.8,0.1c-1,0.2-1.7,0.8-2,1.8c-0.1,0.3-0.1,0.7-0.2,1c0,1.3,0,2.6,0,3.9
	c0,0.8,0,1.7,0.1,2.5c0.1,1.2,0.8,2,2,2.3c0.6,0.1,1.3,0.1,2,0.2c1.2,0,2.4,0,3.6,0c0.5,0,1.1,0,1.6-0.1c0.5-0.1,1-0.2,1.4-0.5
	c0.7-0.5,0.9-1.3,1-2.1C-27.4-23-27.4-24.1-27.4-25.2C-27.4-25.2-27.4-25.2-27.4-25.2z M-33.3-21.4c-2,0-3.7-1.6-3.7-3.7
	c0-2,1.7-3.6,3.7-3.6c2,0,3.6,1.7,3.6,3.7C-29.6-23-31.2-21.4-33.3-21.4z M-29.4-28c-0.5,0-0.9-0.4-0.9-0.9c0-0.5,0.4-0.9,0.9-0.8
	c0.5,0,0.9,0.4,0.8,0.9C-28.6-28.4-29-28-29.4-28z M-33.2-27.4c-1.3,0-2.4,1.1-2.4,2.4c0,1.3,1.1,2.4,2.4,2.4c1.3,0,2.4-1.1,2.4-2.4
	C-30.8-26.3-31.9-27.4-33.2-27.4z"/>
<path class="st1" d="M-73.6-37.5c-6.9,0-12.5,5.6-12.5,12.5s5.6,12.5,12.5,12.5c6.9,0,12.5-5.6,12.5-12.5S-66.7-37.5-73.6-37.5z
	 M-69.8-32.6c0,0.7,0,1.4,0,2c0,0.2-0.1,0.3-0.3,0.3c-0.4,0-0.8,0-1.2,0c-0.6,0-0.9,0.3-0.9,0.9c0,0.4,0,0.8,0,1.1
	c0,0.2,0.1,0.3,0.3,0.3c0.6,0,1.2,0,1.7,0c0.3,0,0.4,0.1,0.4,0.4c-0.1,0.7-0.2,1.4-0.2,2.1c0,0.3-0.2,0.4-0.5,0.4
	c-0.6,0-1.1,0-1.7,0v1.7c0,1.9,0,3.9,0,5.8c0,0.5,0,0.5-0.5,0.5c-0.8,0-1.6,0-2.5,0c-0.4,0-0.5,0-0.5-0.5c0-2.3,0-4.7,0-7
	c0-0.5,0-0.5-0.5-0.5c-0.3,0-0.6,0-0.8,0c-0.2,0-0.3-0.1-0.3-0.3c0-0.7,0-1.5,0-2.2c0-0.2,0.1-0.3,0.3-0.3c0.3,0,0.7,0,1,0
	c0.2,0,0.3-0.1,0.3-0.3c0-0.8,0-1.5,0.1-2.2c0.1-1.5,1.3-2.6,2.8-2.6c0.9,0,1.7,0,2.6-0.1C-69.9-33.1-69.8-33-69.8-32.6z"/>
<path class="st1" d="M7.3-37.5C0.4-37.5-5.2-32-5.2-25S0.4-12.5,7.3-12.5S19.8-18.1,19.8-25S14.2-37.5,7.3-37.5z M14.5-29.5
	c-0.4,0.5-0.8,1-1.4,1.4C13-28.1,13-28,13-27.9c0,0.7,0,1.4-0.2,2c-0.4,1.6-1.1,3-2.2,4.2c-1,1-2.1,1.7-3.5,2.2
	c-0.7,0.2-1.4,0.3-2.1,0.4c-0.7,0-1.4,0-2.1-0.1c-0.9-0.2-1.8-0.5-2.6-1c-0.1-0.1-0.2-0.1-0.4-0.2c0,0,0,0,0,0
	c0.8,0.1,1.6,0,2.3-0.2c0.8-0.2,1.4-0.6,2.1-1.1c-1.5-0.1-2.5-1.1-2.8-2.1c0.2,0,0.4,0.1,0.7,0c0.2,0,0.6-0.1,0.7-0.1
	c-0.7-0.2-1.3-0.5-1.7-1.1c-0.4-0.6-0.7-1.2-0.7-1.9c0.2,0.1,0.4,0.2,0.6,0.3c0.2,0.1,0.5,0.1,0.7,0.1c0,0,0,0,0,0c0,0,0,0,0,0
	c-0.2-0.1-0.4-0.3-0.5-0.4c-0.6-0.7-0.9-1.6-0.7-2.6c0.1-0.3,0.2-0.6,0.3-0.9c0,0,0,0,0.1,0c0,0,0,0,0,0c1.2,1.4,2.6,2.3,4.3,2.8
	c0.6,0.1,1.1,0.2,1.7,0.3c0,0,0.1,0,0-0.1c-0.1-0.4-0.1-0.8,0-1.1c0.2-1.3,1.2-2.3,2.5-2.4c0.1,0,0.1,0,0.2,0h0c0,0,0,0,0,0
	c0.1,0,0.2,0,0.4,0c0.1,0,0.2,0,0.3,0c0.6,0.1,1.2,0.4,1.6,0.9c0,0,0,0,0.1,0c0.6-0.1,1.2-0.4,1.8-0.7c0,0,0,0,0.1,0
	c-0.2,0.7-0.7,1.2-1.3,1.6c0.3,0,0.6-0.1,0.8-0.2C13.9-29.4,14.2-29.5,14.5-29.5C14.5-29.6,14.5-29.5,14.5-29.5z"/>
<path class="st1" d="M48-37.5c-6.9,0-12.5,5.6-12.5,12.5S41.1-12.5,48-12.5c6.9,0,12.5-5.6,12.5-12.5S54.9-37.5,48-37.5z M55.2-24
	c0,0.5-0.1,1-0.1,1.5c0,0.4-0.1,0.7-0.2,1c-0.2,0.7-0.7,1.2-1.5,1.3c-0.4,0.1-0.8,0.1-1.2,0.1c-0.7,0-1.3,0.1-2,0.1
	c-0.5,0-1.1,0-1.6,0c0,0-0.1,0-0.1,0h-0.8c0,0,0,0-0.1,0c-0.3,0-0.7,0-1,0c-0.4,0-0.9,0-1.3,0c-0.7,0-1.3,0-2-0.1
	c-0.3,0-0.7-0.1-1-0.1c-0.5-0.1-0.9-0.4-1.1-0.9c-0.2-0.4-0.3-0.7-0.3-1.1c-0.1-0.6-0.1-1.3-0.1-1.9c0-0.6,0-1.2,0-1.8
	c0-0.5,0.1-1,0.1-1.5c0-0.4,0.1-0.8,0.2-1.2c0.3-0.7,0.8-1.2,1.6-1.3C43.1-30,43.5-30,44-30c0.5,0,1.1,0,1.6-0.1c0.6,0,1.1,0,1.7,0
	c0,0,0.1,0,0.1,0h1.2c0,0,0,0,0.1,0c0.4,0,0.8,0,1.2,0c0.3,0,0.7,0,1,0c0.6,0,1.3,0,1.9,0.1c0.3,0,0.5,0,0.8,0.1
	c0.6,0.1,1,0.4,1.2,0.9c0.2,0.3,0.3,0.7,0.3,1c0.1,0.5,0.1,1.1,0.1,1.6C55.2-25.6,55.2-24.8,55.2-24z M46.5-23.2
	c1.3-0.7,2.6-1.3,3.9-2c-1.3-0.7-2.6-1.4-3.9-2V-23.2z"/>
<path class="st0" d="M-33.2,3.6c-1.3,0-2.4,1.1-2.4,2.4c0,1.3,1.1,2.4,2.4,2.4c1.3,0,2.4-1.1,2.4-2.4C-30.8,4.7-31.9,3.6-33.2,3.6z
	 M-33.2,3.6c-1.3,0-2.4,1.1-2.4,2.4c0,1.3,1.1,2.4,2.4,2.4c1.3,0,2.4-1.1,2.4-2.4C-30.8,4.7-31.9,3.6-33.2,3.6z M-27.4,5.8
	c0-0.6,0-1.1,0-1.7c0-0.5,0-1.1-0.1-1.6c-0.1-1.2-0.8-2-2-2.3c-0.6-0.1-1.3-0.1-1.9-0.1c-1.2,0-2.4,0-3.6,0c-0.6,0-1.2,0-1.8,0.1
	c-1,0.2-1.7,0.8-2,1.8c-0.1,0.3-0.1,0.7-0.2,1c0,1.3,0,2.6,0,3.9c0,0.8,0,1.7,0.1,2.5c0.1,1.2,0.8,2,2,2.3c0.6,0.1,1.3,0.1,2,0.2
	c1.2,0,2.4,0,3.6,0c0.5,0,1.1,0,1.6-0.1c0.5-0.1,1-0.2,1.4-0.5c0.7-0.5,0.9-1.3,1-2.1C-27.4,8-27.4,6.9-27.4,5.8
	C-27.4,5.8-27.4,5.8-27.4,5.8z M-33.3,9.6c-2,0-3.7-1.6-3.7-3.7c0-2,1.7-3.6,3.7-3.6c2,0,3.6,1.7,3.6,3.7C-29.6,8-31.2,9.6-33.3,9.6
	z M-29.4,3c-0.5,0-0.9-0.4-0.9-0.9c0-0.5,0.4-0.9,0.9-0.8c0.5,0,0.9,0.4,0.8,0.9C-28.6,2.6-29,3-29.4,3z M-33.2,3.6
	c-1.3,0-2.4,1.1-2.4,2.4c0,1.3,1.1,2.4,2.4,2.4c1.3,0,2.4-1.1,2.4-2.4C-30.8,4.7-31.9,3.6-33.2,3.6z M-33.3,9.6
	c-2,0-3.7-1.6-3.7-3.7c0-2,1.7-3.6,3.7-3.6c2,0,3.6,1.7,3.6,3.7C-29.6,8-31.2,9.6-33.3,9.6z M-29.4,3c-0.5,0-0.9-0.4-0.9-0.9
	c0-0.5,0.4-0.9,0.9-0.8c0.5,0,0.9,0.4,0.8,0.9C-28.6,2.6-29,3-29.4,3z M-33.2,3.6c-1.3,0-2.4,1.1-2.4,2.4c0,1.3,1.1,2.4,2.4,2.4
	c1.3,0,2.4-1.1,2.4-2.4C-30.8,4.7-31.9,3.6-33.2,3.6z M-26.1,8.9c0,0.8-0.2,1.6-0.6,2.4c-0.6,1-1.4,1.5-2.5,1.7
	c-0.7,0.1-1.3,0.2-2,0.2c-1.4,0-2.8,0-4.3,0c-0.7,0-1.5,0-2.2-0.3c-1.4-0.5-2.2-1.5-2.5-2.9c-0.1-0.6-0.2-1.3-0.2-2
	c0-1.4,0-2.8,0-4.3c0-0.8,0-1.5,0.3-2.2c0.5-1.4,1.5-2.2,2.9-2.5c0.6-0.1,1.3-0.2,2-0.2c1.4,0,2.8,0,4.3,0c0.7,0,1.5,0,2.2,0.3
	c1.4,0.5,2.2,1.5,2.5,2.9c0.1,0.6,0.1,1.3,0.2,2c0,0.7,0,1.3,0,2h0C-26.1,6.9-26.1,7.9-26.1,8.9z M-33.3,9.6c-2,0-3.7-1.6-3.7-3.7
	c0-2,1.7-3.6,3.7-3.6c2,0,3.6,1.7,3.6,3.7C-29.6,8-31.2,9.6-33.3,9.6z M-29.4,3c-0.5,0-0.9-0.4-0.9-0.9c0-0.5,0.4-0.9,0.9-0.8
	c0.5,0,0.9,0.4,0.8,0.9C-28.6,2.6-29,3-29.4,3z M-33.3,9.6c-2,0-3.7-1.6-3.7-3.7c0-2,1.7-3.6,3.7-3.6c2,0,3.6,1.7,3.6,3.7
	C-29.6,8-31.2,9.6-33.3,9.6z M-29.4,3c-0.5,0-0.9-0.4-0.9-0.9c0-0.5,0.4-0.9,0.9-0.8c0.5,0,0.9,0.4,0.8,0.9C-28.6,2.6-29,3-29.4,3z
	 M-29.4,3c-0.5,0-0.9-0.4-0.9-0.9c0-0.5,0.4-0.9,0.9-0.8c0.5,0,0.9,0.4,0.8,0.9C-28.6,2.6-29,3-29.4,3z"/>
<path class="st0" d="M-69.8-1.6c0,0.7,0,1.4,0,2c0,0.2-0.1,0.3-0.3,0.3c-0.4,0-0.8,0-1.2,0c-0.6,0-0.9,0.3-0.9,0.9
	c0,0.4,0,0.8,0,1.1c0,0.2,0.1,0.3,0.3,0.3c0.6,0,1.2,0,1.7,0c0.3,0,0.4,0.1,0.4,0.4C-70,4.2-70,4.9-70.1,5.6c0,0.3-0.2,0.4-0.5,0.4
	c-0.6,0-1.1,0-1.7,0v1.7c0,1.9,0,3.9,0,5.8c0,0.5,0,0.5-0.5,0.5c-0.8,0-1.6,0-2.5,0c-0.4,0-0.5,0-0.5-0.5c0-2.3,0-4.7,0-7
	c0-0.5,0-0.5-0.5-0.5c-0.3,0-0.6,0-0.8,0c-0.2,0-0.3-0.1-0.3-0.3c0-0.7,0-1.5,0-2.2c0-0.2,0.1-0.3,0.3-0.3c0.3,0,0.7,0,1,0
	c0.2,0,0.3-0.1,0.3-0.3c0-0.8,0-1.5,0.1-2.2c0.1-1.5,1.3-2.6,2.8-2.6c0.9,0,1.7,0,2.6-0.1C-69.9-2.1-69.8-2-69.8-1.6z"/>
<path class="st0" d="M14.5,1.5c-0.4,0.5-0.8,1-1.4,1.4C13,2.9,13,3,13,3.1c0,0.7,0,1.4-0.2,2c-0.4,1.6-1.1,3-2.2,4.2
	c-1,1-2.1,1.7-3.5,2.2c-0.7,0.2-1.4,0.3-2.1,0.4c-0.7,0-1.4,0-2.1-0.1c-0.9-0.2-1.8-0.5-2.6-1c-0.1-0.1-0.2-0.1-0.4-0.2c0,0,0,0,0,0
	c0.8,0.1,1.6,0,2.3-0.2c0.8-0.2,1.4-0.6,2.1-1.1C2.8,9.2,1.9,8.1,1.6,7.2c0.2,0,0.4,0.1,0.7,0c0.2,0,0.6-0.1,0.7-0.1
	C2.2,7,1.7,6.6,1.2,6.1C0.8,5.5,0.6,4.9,0.6,4.2C0.8,4.3,1,4.4,1.2,4.4c0.2,0.1,0.5,0.1,0.7,0.1c0,0,0,0,0,0c0,0,0,0,0,0
	C1.7,4.4,1.5,4.2,1.3,4C0.7,3.3,0.5,2.4,0.6,1.5C0.7,1.2,0.8,0.9,1,0.6c0,0,0,0,0.1,0c0,0,0,0,0,0C2.2,2,3.6,2.9,5.4,3.4
	c0.6,0.1,1.1,0.2,1.7,0.3c0,0,0.1,0,0-0.1C7,3.2,7,2.8,7.1,2.5C7.3,1.2,8.3,0.2,9.6,0c0.1,0,0.1,0,0.2,0h0c0,0,0,0,0,0
	c0.1,0,0.2,0,0.4,0c0.1,0,0.2,0,0.3,0c0.6,0.1,1.2,0.4,1.6,0.9c0,0,0,0,0.1,0c0.6-0.1,1.2-0.4,1.8-0.7c0,0,0,0,0.1,0
	c-0.2,0.7-0.7,1.2-1.3,1.6c0.3,0,0.6-0.1,0.8-0.2C13.9,1.6,14.2,1.5,14.5,1.5C14.5,1.4,14.5,1.5,14.5,1.5z"/>
<path class="st0" d="M55.2,7c0,0.5-0.1,1-0.1,1.5c0,0.4-0.1,0.7-0.2,1c-0.2,0.7-0.7,1.2-1.5,1.3c-0.4,0.1-0.8,0.1-1.2,0.1
	c-0.7,0-1.3,0.1-2,0.1c-0.5,0-1.1,0-1.6,0c0,0-0.1,0-0.1,0h-0.8c0,0,0,0-0.1,0c-0.3,0-0.7,0-1,0c-0.4,0-0.9,0-1.3,0
	c-0.7,0-1.3,0-2-0.1c-0.3,0-0.7-0.1-1-0.1c-0.5-0.1-0.9-0.4-1.1-0.9c-0.2-0.4-0.3-0.7-0.3-1.1c-0.1-0.6-0.1-1.3-0.1-1.9
	c0-0.6,0-1.2,0-1.8c0-0.5,0.1-1,0.1-1.5c0-0.4,0.1-0.8,0.2-1.2c0.3-0.7,0.8-1.2,1.6-1.3C43.1,1,43.5,1,44,1c0.5,0,1.1,0,1.6-0.1
	c0.6,0,1.1,0,1.7,0c0,0,0.1,0,0.1,0h1.2c0,0,0,0,0.1,0c0.4,0,0.8,0,1.2,0c0.3,0,0.7,0,1,0c0.6,0,1.3,0,1.9,0.1c0.3,0,0.5,0,0.8,0.1
	c0.6,0.1,1,0.4,1.2,0.9c0.2,0.3,0.3,0.7,0.3,1c0.1,0.5,0.1,1.1,0.1,1.6C55.2,5.4,55.2,6.2,55.2,7z M46.5,7.8c1.3-0.7,2.6-1.3,3.9-2
	c-1.3-0.7-2.6-1.4-3.9-2V7.8z"/>
<g>
	<path class="st0" d="M729.1-93.5H431.1c-9.6,0-17.5-7.9-17.5-17.5v-1c0-9.6,7.9-17.5,17.5-17.5h297.9c9.6,0,17.5,7.9,17.5,17.5v1
		C746.6-101.4,738.7-93.5,729.1-93.5z"/>
	<path class="st0" d="M567.1,5.5h-136c-9.6,0-17.5-7.9-17.5-17.5v-1c0-9.6,7.9-17.5,17.5-17.5h136c9.6,0,17.5,7.9,17.5,17.5v1
		C584.6-2.4,576.7,5.5,567.1,5.5z"/>
	<path class="st0" d="M729.1,104.4H431.1c-9.6,0-17.5-7.9-17.5-17.5v-1c0-9.6,7.9-17.5,17.5-17.5h297.9c9.6,0,17.5,7.9,17.5,17.5v1
		C746.6,96.6,738.7,104.4,729.1,104.4z"/>
</g>
<g>
	<path class="st2" d="M1157.7-189.2L947,21.5c-6.8,6.8-18,6.8-24.8,0l-0.7-0.7c-6.8-6.8-6.8-18,0-24.8l210.7-210.7
		c6.8-6.8,18-6.8,24.8,0l0.7,0.7C1164.5-207.1,1164.5-196,1157.7-189.2z"/>
	<path class="st2" d="M1132.2,21.5L921.5-189.2c-6.8-6.8-6.8-18,0-24.8l0.7-0.7c6.8-6.8,18-6.8,24.8,0L1157.7-3.9
		c6.8,6.8,6.8,18,0,24.8l-0.7,0.7C1150.2,28.3,1139,28.3,1132.2,21.5z"/>
</g>
<path class="st3" d="M971.7,539.2l-8.8-16.6v16.6h-14.5v-46.3H970c3.7,0,7,0.7,9.6,2c2.7,1.3,4.7,3.1,6,5.4c1.3,2.3,2,4.9,2,7.7
	c0,3.1-0.9,5.8-2.6,8.2c-1.7,2.4-4.2,4.1-7.4,5.2l10.1,17.7H971.7z M962.9,512.9h5.8c1.4,0,2.4-0.3,3.1-0.9c0.7-0.6,1-1.6,1-3
	c0-1.2-0.4-2.2-1.1-2.9c-0.7-0.7-1.8-1-3.1-1h-5.8V512.9z"/>
</svg>
