<?xml version="1.0" encoding="utf-8"?>
<!-- Generator: Adobe Illustrator 22.0.1, SVG Export Plug-In . SVG Version: 6.00 Build 0)  -->
<svg version="1.1" id="Capa_1" xmlns="http://www.w3.org/2000/svg" xmlns:xlink="http://www.w3.org/1999/xlink" x="0px" y="0px"
	 viewBox="0 0 251.2 251.2" style="enable-background:new 0 0 251.2 251.2;" xml:space="preserve">
<style type="text/css">
	.st0{fill:#414141;}
	.st1{fill:#FFFFFF;}
	.st2{fill:#4D4D4D;}
</style>
<text transform="matrix(1 0 0 1 -1584.1505 535.597)"><tspan x="0" y="0" style="font-family:'Poppins-Black'; font-size:100px;">Redbone</tspan><tspan x="81.8" y="38" style="font-family:'Poppins-Light'; font-size:30px; letter-spacing:27;">RECORDS</tspan></text>
<g>
	<path class="st0" d="M-107.6,493.6l-13.4-25.4v25.4h-22.2v-70.8h33c5.7,0,10.6,1,14.7,3c4.1,2,7.1,4.8,9.1,8.3c2,3.5,3,7.5,3,11.9
		c0,4.7-1.3,8.9-3.9,12.6c-2.6,3.7-6.4,6.3-11.4,7.9l15.4,27.1H-107.6z M-120.9,453.4h8.8c2.1,0,3.7-0.5,4.8-1.5
		c1.1-1,1.6-2.5,1.6-4.5c0-1.9-0.5-3.3-1.7-4.4c-1.1-1.1-2.7-1.6-4.8-1.6h-8.8V453.4z"/>
	<path class="st0" d="M-22.1,469.3h-35.5c0.2,2.8,0.8,4.7,1.9,5.8c1.1,1,2.5,1.5,4.2,1.5c2.4,0,4.1-1.1,5.2-3.3h23.5
		c-0.8,4-2.5,7.6-5,10.8c-2.6,3.2-5.8,5.7-9.7,7.5c-3.9,1.8-8.2,2.8-12.8,2.8c-5.6,0-10.6-1.2-15-3.5c-4.4-2.3-7.8-5.7-10.2-10
		c-2.4-4.4-3.7-9.5-3.7-15.4c0-5.9,1.2-11,3.7-15.3c2.4-4.4,5.8-7.7,10.2-10c4.4-2.3,9.4-3.5,15-3.5s10.6,1.1,14.9,3.4
		c4.4,2.3,7.8,5.6,10.2,9.9c2.4,4.3,3.6,9.3,3.6,15.1C-21.6,466.3-21.7,467.8-22.1,469.3z M-44.1,460.2c0-2.1-0.6-3.7-1.8-4.8
		c-1.2-1-2.7-1.5-4.5-1.5c-4.1,0-6.4,2.1-7,6.3H-44.1z"/>
	<path class="st0" d="M15.2,438.7c2.6,1.5,4.7,3.5,6.1,6.1v-25.3h22.2v74H21.2v-7.7c-1.4,2.6-3.4,4.7-6.1,6.2
		c-2.6,1.5-5.8,2.2-9.4,2.2c-4.4,0-8.4-1.2-11.9-3.5c-3.5-2.3-6.3-5.6-8.3-10c-2-4.4-3.1-9.5-3.1-15.5c0-5.9,1-11.1,3.1-15.5
		c2-4.4,4.8-7.7,8.3-10c3.5-2.3,7.5-3.4,11.9-3.4C9.4,436.5,12.6,437.2,15.2,438.7z M7.2,458.4c-1.5,1.7-2.3,4-2.3,7s0.8,5.3,2.3,7
		c1.5,1.7,3.5,2.5,5.9,2.5c2.4,0,4.4-0.8,5.9-2.5c1.5-1.7,2.3-4,2.3-7s-0.8-5.3-2.3-7c-1.5-1.7-3.5-2.5-5.9-2.5
		C10.7,455.9,8.8,456.7,7.2,458.4z"/>
	<path class="st0" d="M103,439.9c3.5,2.3,6.3,5.6,8.3,10c2,4.4,3.1,9.5,3.1,15.5c0,5.9-1,11.1-3.1,15.5c-2,4.4-4.8,7.7-8.3,10
		c-3.5,2.3-7.5,3.5-11.9,3.5c-3.7,0-6.8-0.8-9.4-2.2c-2.6-1.5-4.7-3.5-6.1-6.2v7.7H53.4v-74h22.2v25.3c1.4-2.6,3.4-4.6,6.1-6.1
		c2.6-1.5,5.8-2.2,9.4-2.2C95.5,436.5,99.5,437.6,103,439.9z M77.8,458.4c-1.5,1.7-2.3,4-2.3,7s0.8,5.3,2.3,7
		c1.5,1.7,3.5,2.5,5.9,2.5c2.4,0,4.4-0.8,5.9-2.5c1.5-1.7,2.3-4,2.3-7s-0.8-5.3-2.3-7c-1.5-1.7-3.5-2.5-5.9-2.5
		C81.3,455.9,79.4,456.7,77.8,458.4z"/>
	<path class="st0" d="M163.5,440c4.5,2.3,8.1,5.7,10.6,10c2.6,4.4,3.9,9.5,3.9,15.3c0,5.9-1.3,11-3.9,15.4c-2.6,4.4-6.1,7.7-10.6,10
		c-4.5,2.3-9.6,3.5-15.3,3.5c-5.7,0-10.8-1.2-15.3-3.5c-4.5-2.3-8.1-5.7-10.6-10c-2.6-4.4-3.9-9.5-3.9-15.4c0-5.9,1.3-11,3.9-15.3
		c2.6-4.4,6.1-7.7,10.6-10c4.5-2.3,9.6-3.5,15.3-3.5C153.9,436.5,159,437.7,163.5,440z M143,458.1c-1.4,1.6-2.1,4-2.1,7.2
		s0.7,5.6,2,7.2c1.4,1.6,3.1,2.5,5.2,2.5c2.1,0,3.8-0.8,5.2-2.5c1.4-1.6,2.1-4,2.1-7.2s-0.7-5.6-2.1-7.2c-1.4-1.6-3.1-2.5-5.2-2.5
		S144.4,456.5,143,458.1z"/>
	<path class="st0" d="M239.7,443.3c3.6,4.3,5.4,10.2,5.4,17.6v32.7H223v-29.9c0-2.7-0.7-4.8-2.2-6.3c-1.4-1.6-3.3-2.3-5.8-2.3
		c-2.5,0-4.4,0.8-5.8,2.3c-1.4,1.6-2.1,3.7-2.1,6.3v29.9H185v-56.4h22.2v8.6c1.7-2.7,4-4.8,7-6.5c2.9-1.7,6.3-2.5,10.3-2.5
		C231,436.8,236.1,439,239.7,443.3z"/>
	<path class="st0" d="M308.8,469.3h-35.5c0.2,2.8,0.8,4.7,1.9,5.8c1.1,1,2.5,1.5,4.2,1.5c2.4,0,4.1-1.1,5.2-3.3h23.5
		c-0.8,4-2.5,7.6-5.1,10.8c-2.6,3.2-5.8,5.7-9.7,7.5c-3.9,1.8-8.2,2.8-12.9,2.8c-5.6,0-10.6-1.2-15-3.5c-4.4-2.3-7.8-5.7-10.2-10
		c-2.4-4.4-3.7-9.5-3.7-15.4c0-5.9,1.2-11,3.7-15.3c2.4-4.4,5.8-7.7,10.2-10c4.4-2.3,9.4-3.5,15-3.5c5.6,0,10.6,1.1,15,3.4
		c4.4,2.3,7.8,5.6,10.2,9.9c2.4,4.3,3.6,9.3,3.6,15.1C309.3,466.3,309.2,467.8,308.8,469.3z M286.8,460.2c0-2.1-0.6-3.7-1.8-4.8
		c-1.2-1-2.7-1.5-4.5-1.5c-4.1,0-6.4,2.1-7,6.3H286.8z"/>
	<path class="st0" d="M-7.9,519.6l-3.9-5.9h-2.3v5.9h-1.4v-14.1h4.3c1.6,0,2.8,0.4,3.6,1.1c0.8,0.7,1.2,1.8,1.2,3
		c0,1.2-0.3,2.1-1,2.8c-0.7,0.7-1.6,1.1-2.9,1.2l4,5.9H-7.9z M-14.1,512.7h2.8c2.3,0,3.4-1,3.4-2.9c0-2-1.1-3-3.4-3h-2.8V512.7z"/>
	<path class="st0" d="M15.3,506.6v5.3h5.5v1.1h-5.5v5.4h6.1v1.2h-7.5v-14.1h7.5v1.1H15.3z"/>
	<path class="st0" d="M52.2,506.6c1.1,0.8,1.9,1.9,2.3,3.4h-1.5c-0.4-1-1-1.8-1.9-2.4c-0.9-0.6-1.9-0.9-3.2-0.9
		c-1,0-1.9,0.2-2.7,0.7c-0.8,0.5-1.4,1.2-1.9,2.1c-0.5,0.9-0.7,1.9-0.7,3.1c0,1.2,0.2,2.2,0.7,3.1s1.1,1.6,1.9,2
		c0.8,0.5,1.7,0.7,2.7,0.7c1.3,0,2.4-0.3,3.2-0.9c0.9-0.6,1.5-1.4,1.9-2.4h1.5c-0.5,1.4-1.2,2.6-2.3,3.4c-1.1,0.8-2.5,1.2-4.2,1.2
		c-1.3,0-2.4-0.3-3.5-0.9c-1-0.6-1.8-1.5-2.4-2.6c-0.6-1.1-0.8-2.3-0.8-3.7c0-1.4,0.3-2.6,0.8-3.7c0.6-1.1,1.3-1.9,2.4-2.6
		c1-0.6,2.2-0.9,3.5-0.9C49.7,505.4,51.1,505.8,52.2,506.6z"/>
	<path class="st0" d="M85.1,506.3c1,0.6,1.9,1.5,2.4,2.6c0.6,1.1,0.9,2.3,0.9,3.7c0,1.4-0.3,2.6-0.9,3.7s-1.4,2-2.4,2.6
		c-1,0.6-2.2,0.9-3.5,0.9s-2.5-0.3-3.5-0.9c-1-0.6-1.9-1.5-2.4-2.6c-0.6-1.1-0.9-2.3-0.9-3.7c0-1.4,0.3-2.6,0.9-3.7
		c0.6-1.1,1.4-1.9,2.4-2.6c1-0.6,2.2-0.9,3.5-0.9S84,505.6,85.1,506.3z M78.8,507.4c-0.8,0.5-1.5,1.2-1.9,2.1
		c-0.5,0.9-0.7,1.9-0.7,3.1c0,1.2,0.2,2.2,0.7,3.1c0.5,0.9,1.1,1.6,1.9,2.1c0.8,0.5,1.7,0.7,2.8,0.7s2-0.2,2.8-0.7
		c0.8-0.5,1.5-1.2,1.9-2.1c0.5-0.9,0.7-1.9,0.7-3.1c0-1.2-0.2-2.2-0.7-3.1c-0.5-0.9-1.1-1.6-1.9-2.1c-0.8-0.5-1.7-0.7-2.8-0.7
		S79.6,506.9,78.8,507.4z"/>
	<path class="st0" d="M116.5,519.6l-3.9-5.9h-2.3v5.9H109v-14.1h4.3c1.6,0,2.8,0.4,3.6,1.1c0.8,0.7,1.2,1.8,1.2,3
		c0,1.2-0.3,2.1-1,2.8c-0.7,0.7-1.6,1.1-2.9,1.2l4,5.9H116.5z M110.4,512.7h2.8c2.3,0,3.4-1,3.4-2.9c0-2-1.1-3-3.4-3h-2.8V512.7z"/>
	<path class="st0" d="M149.2,516.3c-0.6,1.1-1.4,1.9-2.5,2.4s-2.5,0.8-4,0.8h-4.3v-14.1h4.3c2.4,0,4.2,0.6,5.5,1.9
		c1.3,1.2,1.9,3,1.9,5.2C150,514,149.7,515.2,149.2,516.3z M147,516.8c1-1,1.6-2.4,1.6-4.3c0-1.8-0.5-3.3-1.6-4.3
		c-1-1-2.6-1.5-4.5-1.5h-2.7v11.6h2.7C144.5,518.3,146,517.8,147,516.8z"/>
	<path class="st0" d="M178.7,517.8c-0.3,0.6-0.8,1-1.4,1.4c-0.6,0.4-1.4,0.5-2.3,0.5c-0.9,0-1.7-0.2-2.4-0.5
		c-0.7-0.3-1.3-0.8-1.7-1.4s-0.7-1.2-0.7-1.9h1.5c0.1,0.4,0.2,0.8,0.5,1.2c0.3,0.4,0.6,0.8,1.1,1s1.1,0.4,1.7,0.4
		c0.9,0,1.6-0.2,2-0.7c0.5-0.5,0.7-1.1,0.7-1.8c0-0.6-0.2-1.1-0.5-1.5c-0.3-0.4-0.7-0.7-1.2-0.9c-0.5-0.2-1.1-0.4-1.9-0.7
		c-0.9-0.3-1.6-0.6-2.1-0.8c-0.5-0.3-1-0.6-1.4-1.2c-0.4-0.5-0.6-1.2-0.6-2c0-1.1,0.4-1.9,1.1-2.6c0.7-0.7,1.8-1,3.1-1
		c1.3,0,2.4,0.3,3.2,1c0.8,0.7,1.2,1.5,1.4,2.4h-1.5c-0.1-0.6-0.4-1.1-0.9-1.6c-0.5-0.5-1.2-0.7-2.1-0.7c-0.8,0-1.5,0.2-2,0.6
		s-0.7,1-0.7,1.8c0,0.6,0.2,1.1,0.5,1.5s0.7,0.7,1.1,0.9c0.4,0.2,1.1,0.4,1.8,0.7c0.9,0.3,1.6,0.6,2.2,0.8c0.6,0.3,1,0.7,1.4,1.2
		c0.4,0.5,0.6,1.2,0.6,2.1C179.2,516.7,179,517.3,178.7,517.8z"/>
</g>
<path class="st1" d="M-947.2,194.7c-1.3,0-2.4,1.1-2.4,2.4c0,1.3,1.1,2.4,2.4,2.4c1.3,0,2.4-1.1,2.4-2.4
	C-944.9,195.8-945.9,194.7-947.2,194.7z M-947.2,194.7c-1.3,0-2.4,1.1-2.4,2.4c0,1.3,1.1,2.4,2.4,2.4c1.3,0,2.4-1.1,2.4-2.4
	C-944.9,195.8-945.9,194.7-947.2,194.7z M-941.4,197c0-0.6,0-1.1,0-1.7c0-0.5,0-1.1-0.1-1.6c-0.1-1.2-0.8-2-2-2.3
	c-0.6-0.1-1.3-0.1-1.9-0.1c-1.2,0-2.4,0-3.6,0c-0.6,0-1.2,0-1.8,0.1c-1,0.2-1.7,0.8-2,1.8c-0.1,0.3-0.1,0.7-0.2,1c0,1.3,0,2.6,0,3.9
	c0,0.8,0,1.7,0.1,2.5c0.1,1.2,0.8,2,2,2.3c0.6,0.1,1.3,0.1,2,0.2c1.2,0,2.4,0,3.6,0c0.5,0,1.1,0,1.6-0.1c0.5-0.1,1-0.2,1.4-0.5
	c0.7-0.5,0.9-1.3,1-2.1C-941.4,199.2-941.4,198.1-941.4,197C-941.4,197-941.4,197-941.4,197z M-947.3,200.8c-2,0-3.7-1.6-3.7-3.7
	c0-2,1.7-3.6,3.7-3.6c2,0,3.6,1.7,3.6,3.7C-943.6,199.1-945.2,200.8-947.3,200.8z M-943.4,194.1c-0.5,0-0.9-0.4-0.9-0.9
	c0-0.5,0.4-0.9,0.9-0.8c0.5,0,0.9,0.4,0.8,0.9C-942.6,193.8-943,194.1-943.4,194.1z M-947.2,194.7c-1.3,0-2.4,1.1-2.4,2.4
	c0,1.3,1.1,2.4,2.4,2.4c1.3,0,2.4-1.1,2.4-2.4C-944.9,195.8-945.9,194.7-947.2,194.7z M-941.4,197c0-0.6,0-1.1,0-1.7
	c0-0.5,0-1.1-0.1-1.6c-0.1-1.2-0.8-2-2-2.3c-0.6-0.1-1.3-0.1-1.9-0.1c-1.2,0-2.4,0-3.6,0c-0.6,0-1.2,0-1.8,0.1c-1,0.2-1.7,0.8-2,1.8
	c-0.1,0.3-0.1,0.7-0.2,1c0,1.3,0,2.6,0,3.9c0,0.8,0,1.7,0.1,2.5c0.1,1.2,0.8,2,2,2.3c0.6,0.1,1.3,0.1,2,0.2c1.2,0,2.4,0,3.6,0
	c0.5,0,1.1,0,1.6-0.1c0.5-0.1,1-0.2,1.4-0.5c0.7-0.5,0.9-1.3,1-2.1C-941.4,199.2-941.4,198.1-941.4,197
	C-941.4,197-941.4,197-941.4,197z M-947.3,200.8c-2,0-3.7-1.6-3.7-3.7c0-2,1.7-3.6,3.7-3.6c2,0,3.6,1.7,3.6,3.7
	C-943.6,199.1-945.2,200.8-947.3,200.8z M-943.4,194.1c-0.5,0-0.9-0.4-0.9-0.9c0-0.5,0.4-0.9,0.9-0.8c0.5,0,0.9,0.4,0.8,0.9
	C-942.6,193.8-943,194.1-943.4,194.1z M-947.2,194.7c-1.3,0-2.4,1.1-2.4,2.4c0,1.3,1.1,2.4,2.4,2.4c1.3,0,2.4-1.1,2.4-2.4
	C-944.9,195.8-945.9,194.7-947.2,194.7z M-947.2,184.6c-6.9,0-12.5,5.6-12.5,12.5c0,6.9,5.6,12.5,12.5,12.5s12.5-5.6,12.5-12.5
	C-934.7,190.2-940.3,184.6-947.2,184.6z M-940.1,200c0,0.8-0.2,1.6-0.6,2.4c-0.6,1-1.4,1.5-2.5,1.7c-0.7,0.1-1.3,0.2-2,0.2
	c-1.4,0-2.8,0-4.3,0c-0.7,0-1.5,0-2.2-0.3c-1.4-0.5-2.2-1.5-2.5-2.9c-0.1-0.6-0.2-1.3-0.2-2c0-1.4,0-2.8,0-4.3c0-0.8,0-1.5,0.3-2.2
	c0.5-1.4,1.5-2.2,2.9-2.5c0.6-0.1,1.3-0.2,2-0.2c1.4,0,2.8,0,4.3,0c0.7,0,1.5,0,2.2,0.3c1.4,0.5,2.2,1.5,2.5,2.9
	c0.1,0.6,0.1,1.3,0.2,2c0,0.7,0,1.3,0,2h0C-940.1,198.1-940.1,199-940.1,200z M-941.4,195.3c0-0.5,0-1.1-0.1-1.6
	c-0.1-1.2-0.8-2-2-2.3c-0.6-0.1-1.3-0.1-1.9-0.1c-1.2,0-2.4,0-3.6,0c-0.6,0-1.2,0-1.8,0.1c-1,0.2-1.7,0.8-2,1.8
	c-0.1,0.3-0.1,0.7-0.2,1c0,1.3,0,2.6,0,3.9c0,0.8,0,1.7,0.1,2.5c0.1,1.2,0.8,2,2,2.3c0.6,0.1,1.3,0.1,2,0.2c1.2,0,2.4,0,3.6,0
	c0.5,0,1.1,0,1.6-0.1c0.5-0.1,1-0.2,1.4-0.5c0.7-0.5,0.9-1.3,1-2.1c0.1-1.1,0.1-2.2,0.1-3.3c0,0,0,0,0,0
	C-941.4,196.4-941.4,195.9-941.4,195.3z M-947.3,200.8c-2,0-3.7-1.6-3.7-3.7c0-2,1.7-3.6,3.7-3.6c2,0,3.6,1.7,3.6,3.7
	C-943.6,199.1-945.2,200.8-947.3,200.8z M-943.4,194.1c-0.5,0-0.9-0.4-0.9-0.9c0-0.5,0.4-0.9,0.9-0.8c0.5,0,0.9,0.4,0.8,0.9
	C-942.6,193.8-943,194.1-943.4,194.1z M-947.2,194.7c-1.3,0-2.4,1.1-2.4,2.4c0,1.3,1.1,2.4,2.4,2.4c1.3,0,2.4-1.1,2.4-2.4
	C-944.9,195.8-945.9,194.7-947.2,194.7z M-947.2,194.7c-1.3,0-2.4,1.1-2.4,2.4c0,1.3,1.1,2.4,2.4,2.4c1.3,0,2.4-1.1,2.4-2.4
	C-944.9,195.8-945.9,194.7-947.2,194.7z M-947.2,194.7c-1.3,0-2.4,1.1-2.4,2.4c0,1.3,1.1,2.4,2.4,2.4c1.3,0,2.4-1.1,2.4-2.4
	C-944.9,195.8-945.9,194.7-947.2,194.7z M-941.4,197c0-0.6,0-1.1,0-1.7c0-0.5,0-1.1-0.1-1.6c-0.1-1.2-0.8-2-2-2.3
	c-0.6-0.1-1.3-0.1-1.9-0.1c-1.2,0-2.4,0-3.6,0c-0.6,0-1.2,0-1.8,0.1c-1,0.2-1.7,0.8-2,1.8c-0.1,0.3-0.1,0.7-0.2,1c0,1.3,0,2.6,0,3.9
	c0,0.8,0,1.7,0.1,2.5c0.1,1.2,0.8,2,2,2.3c0.6,0.1,1.3,0.1,2,0.2c1.2,0,2.4,0,3.6,0c0.5,0,1.1,0,1.6-0.1c0.5-0.1,1-0.2,1.4-0.5
	c0.7-0.5,0.9-1.3,1-2.1C-941.4,199.2-941.4,198.1-941.4,197C-941.4,197-941.4,197-941.4,197z M-947.3,200.8c-2,0-3.7-1.6-3.7-3.7
	c0-2,1.7-3.6,3.7-3.6c2,0,3.6,1.7,3.6,3.7C-943.6,199.1-945.2,200.8-947.3,200.8z M-943.4,194.1c-0.5,0-0.9-0.4-0.9-0.9
	c0-0.5,0.4-0.9,0.9-0.8c0.5,0,0.9,0.4,0.8,0.9C-942.6,193.8-943,194.1-943.4,194.1z M-947.2,194.7c-1.3,0-2.4,1.1-2.4,2.4
	c0,1.3,1.1,2.4,2.4,2.4c1.3,0,2.4-1.1,2.4-2.4C-944.9,195.8-945.9,194.7-947.2,194.7z M-947.2,194.7c-1.3,0-2.4,1.1-2.4,2.4
	c0,1.3,1.1,2.4,2.4,2.4c1.3,0,2.4-1.1,2.4-2.4C-944.9,195.8-945.9,194.7-947.2,194.7z M-947.2,194.7c-1.3,0-2.4,1.1-2.4,2.4
	c0,1.3,1.1,2.4,2.4,2.4c1.3,0,2.4-1.1,2.4-2.4C-944.9,195.8-945.9,194.7-947.2,194.7z M-941.4,197c0-0.6,0-1.1,0-1.7
	c0-0.5,0-1.1-0.1-1.6c-0.1-1.2-0.8-2-2-2.3c-0.6-0.1-1.3-0.1-1.9-0.1c-1.2,0-2.4,0-3.6,0c-0.6,0-1.2,0-1.8,0.1c-1,0.2-1.7,0.8-2,1.8
	c-0.1,0.3-0.1,0.7-0.2,1c0,1.3,0,2.6,0,3.9c0,0.8,0,1.7,0.1,2.5c0.1,1.2,0.8,2,2,2.3c0.6,0.1,1.3,0.1,2,0.2c1.2,0,2.4,0,3.6,0
	c0.5,0,1.1,0,1.6-0.1c0.5-0.1,1-0.2,1.4-0.5c0.7-0.5,0.9-1.3,1-2.1C-941.4,199.2-941.4,198.1-941.4,197
	C-941.4,197-941.4,197-941.4,197z M-947.3,200.8c-2,0-3.7-1.6-3.7-3.7c0-2,1.7-3.6,3.7-3.6c2,0,3.6,1.7,3.6,3.7
	C-943.6,199.1-945.2,200.8-947.3,200.8z M-943.4,194.1c-0.5,0-0.9-0.4-0.9-0.9c0-0.5,0.4-0.9,0.9-0.8c0.5,0,0.9,0.4,0.8,0.9
	C-942.6,193.8-943,194.1-943.4,194.1z M-947.2,194.7c-1.3,0-2.4,1.1-2.4,2.4c0,1.3,1.1,2.4,2.4,2.4c1.3,0,2.4-1.1,2.4-2.4
	C-944.9,195.8-945.9,194.7-947.2,194.7z"/>
<path class="st1" d="M-987.6,184.6c-6.9,0-12.5,5.6-12.5,12.5c0,6.9,5.6,12.5,12.5,12.5s12.5-5.6,12.5-12.5
	C-975.1,190.2-980.7,184.6-987.6,184.6z M-983.8,189.5c0,0.7,0,1.4,0,2c0,0.2-0.1,0.3-0.3,0.3c-0.4,0-0.8,0-1.2,0
	c-0.6,0-0.9,0.3-0.9,0.9c0,0.4,0,0.8,0,1.1c0,0.2,0.1,0.3,0.3,0.3c0.6,0,1.2,0,1.7,0c0.3,0,0.4,0.1,0.4,0.4
	c-0.1,0.7-0.2,1.4-0.2,2.1c0,0.3-0.2,0.4-0.5,0.4c-0.6,0-1.1,0-1.7,0v1.7c0,1.9,0,3.9,0,5.8c0,0.5,0,0.5-0.5,0.5c-0.8,0-1.6,0-2.5,0
	c-0.4,0-0.5,0-0.5-0.5c0-2.3,0-4.7,0-7c0-0.5,0-0.5-0.5-0.5c-0.3,0-0.6,0-0.8,0c-0.2,0-0.3-0.1-0.3-0.3c0-0.7,0-1.5,0-2.2
	c0-0.2,0.1-0.3,0.3-0.3c0.3,0,0.7,0,1,0c0.2,0,0.3-0.1,0.3-0.3c0-0.8,0-1.5,0.1-2.2c0.1-1.5,1.3-2.6,2.8-2.6c0.9,0,1.7,0,2.6-0.1
	C-983.9,189.1-983.8,189.2-983.8,189.5z"/>
<path class="st1" d="M-906.7,184.6c-6.9,0-12.5,5.6-12.5,12.5c0,6.9,5.6,12.5,12.5,12.5c6.9,0,12.5-5.6,12.5-12.5
	C-894.2,190.2-899.8,184.6-906.7,184.6z M-899.6,192.6c-0.4,0.5-0.8,1-1.4,1.4c-0.1,0-0.1,0.1-0.1,0.2c0,0.7,0,1.4-0.2,2
	c-0.4,1.6-1.1,3-2.2,4.2c-1,1-2.1,1.7-3.5,2.2c-0.7,0.2-1.4,0.3-2.1,0.4c-0.7,0-1.4,0-2.1-0.1c-0.9-0.2-1.8-0.5-2.6-1
	c-0.1-0.1-0.2-0.1-0.4-0.2c0,0,0,0,0,0c0.8,0.1,1.6,0,2.3-0.2c0.8-0.2,1.4-0.6,2.1-1.1c-1.5-0.1-2.5-1.1-2.8-2.1
	c0.2,0,0.4,0.1,0.7,0c0.2,0,0.6-0.1,0.7-0.1c-0.7-0.2-1.3-0.5-1.7-1.1c-0.4-0.6-0.7-1.2-0.7-1.9c0.2,0.1,0.4,0.2,0.6,0.3
	c0.2,0.1,0.5,0.1,0.7,0.1c0,0,0,0,0,0c0,0,0,0,0,0c-0.2-0.1-0.4-0.3-0.5-0.4c-0.6-0.7-0.9-1.6-0.7-2.6c0.1-0.3,0.2-0.6,0.3-0.9
	c0,0,0,0,0.1,0c0,0,0,0,0,0c1.2,1.4,2.6,2.3,4.3,2.8c0.6,0.1,1.1,0.2,1.7,0.3c0,0,0.1,0,0-0.1c-0.1-0.4-0.1-0.8,0-1.1
	c0.2-1.3,1.2-2.3,2.5-2.4c0.1,0,0.1,0,0.2,0h0c0,0,0,0,0,0c0.1,0,0.2,0,0.4,0c0.1,0,0.2,0,0.3,0c0.6,0.1,1.2,0.4,1.6,0.9
	c0,0,0,0,0.1,0c0.6-0.1,1.2-0.4,1.8-0.7c0,0,0,0,0.1,0c-0.2,0.7-0.7,1.2-1.3,1.6c0.3,0,0.6-0.1,0.8-0.2
	C-900.1,192.8-899.8,192.7-899.6,192.6C-899.5,192.6-899.5,192.6-899.6,192.6z"/>
<path class="st1" d="M-866,184.6c-6.9,0-12.5,5.6-12.5,12.5c0,6.9,5.6,12.5,12.5,12.5c6.9,0,12.5-5.6,12.5-12.5
	C-853.5,190.2-859.1,184.6-866,184.6z M-858.8,198.1c0,0.5-0.1,1-0.1,1.5c0,0.4-0.1,0.7-0.2,1c-0.2,0.7-0.7,1.2-1.5,1.3
	c-0.4,0.1-0.8,0.1-1.2,0.1c-0.7,0-1.3,0.1-2,0.1c-0.5,0-1.1,0-1.6,0c0,0-0.1,0-0.1,0h-0.8c0,0,0,0-0.1,0c-0.3,0-0.7,0-1,0
	c-0.4,0-0.9,0-1.3,0c-0.7,0-1.3,0-2-0.1c-0.3,0-0.7-0.1-1-0.1c-0.5-0.1-0.9-0.4-1.1-0.9c-0.2-0.4-0.3-0.7-0.3-1.1
	c-0.1-0.6-0.1-1.3-0.1-1.9c0-0.6,0-1.2,0-1.8c0-0.5,0.1-1,0.1-1.5c0-0.4,0.1-0.8,0.2-1.2c0.3-0.7,0.8-1.2,1.6-1.3
	c0.4-0.1,0.9-0.1,1.3-0.1c0.5,0,1.1,0,1.6-0.1c0.6,0,1.1,0,1.7,0c0,0,0.1,0,0.1,0h1.2c0,0,0,0,0.1,0c0.4,0,0.8,0,1.2,0
	c0.3,0,0.7,0,1,0c0.6,0,1.3,0,1.9,0.1c0.3,0,0.5,0,0.8,0.1c0.6,0.1,1,0.4,1.2,0.9c0.2,0.3,0.3,0.7,0.3,1c0.1,0.5,0.1,1.1,0.1,1.6
	C-858.8,196.6-858.8,197.4-858.8,198.1z M-867.5,199c1.3-0.7,2.6-1.3,3.9-2c-1.3-0.7-2.6-1.4-3.9-2V199z"/>
<path class="st0" d="M-947.2,225.7c-1.3,0-2.4,1.1-2.4,2.4c0,1.3,1.1,2.4,2.4,2.4c1.3,0,2.4-1.1,2.4-2.4
	C-944.9,226.8-945.9,225.7-947.2,225.7z M-947.2,225.7c-1.3,0-2.4,1.1-2.4,2.4c0,1.3,1.1,2.4,2.4,2.4c1.3,0,2.4-1.1,2.4-2.4
	C-944.9,226.8-945.9,225.7-947.2,225.7z M-941.4,228c0-0.6,0-1.1,0-1.7c0-0.5,0-1.1-0.1-1.6c-0.1-1.2-0.8-2-2-2.3
	c-0.6-0.1-1.3-0.1-1.9-0.1c-1.2,0-2.4,0-3.6,0c-0.6,0-1.2,0-1.8,0.1c-1,0.2-1.7,0.8-2,1.8c-0.1,0.3-0.1,0.7-0.2,1c0,1.3,0,2.6,0,3.9
	c0,0.8,0,1.7,0.1,2.5c0.1,1.2,0.8,2,2,2.3c0.6,0.1,1.3,0.1,2,0.2c1.2,0,2.4,0,3.6,0c0.5,0,1.1,0,1.6-0.1c0.5-0.1,1-0.2,1.4-0.5
	c0.7-0.5,0.9-1.3,1-2.1C-941.4,230.2-941.4,229.1-941.4,228C-941.4,228-941.4,228-941.4,228z M-947.3,231.8c-2,0-3.7-1.6-3.7-3.7
	c0-2,1.7-3.6,3.7-3.6c2,0,3.6,1.7,3.6,3.7C-943.6,230.1-945.2,231.8-947.3,231.8z M-943.4,225.1c-0.5,0-0.9-0.4-0.9-0.9
	c0-0.5,0.4-0.9,0.9-0.8c0.5,0,0.9,0.4,0.8,0.9C-942.6,224.8-943,225.1-943.4,225.1z M-947.2,225.7c-1.3,0-2.4,1.1-2.4,2.4
	c0,1.3,1.1,2.4,2.4,2.4c1.3,0,2.4-1.1,2.4-2.4C-944.9,226.8-945.9,225.7-947.2,225.7z M-947.3,231.8c-2,0-3.7-1.6-3.7-3.7
	c0-2,1.7-3.6,3.7-3.6c2,0,3.6,1.7,3.6,3.7C-943.6,230.1-945.2,231.8-947.3,231.8z M-943.4,225.1c-0.5,0-0.9-0.4-0.9-0.9
	c0-0.5,0.4-0.9,0.9-0.8c0.5,0,0.9,0.4,0.8,0.9C-942.6,224.8-943,225.1-943.4,225.1z M-947.2,225.7c-1.3,0-2.4,1.1-2.4,2.4
	c0,1.3,1.1,2.4,2.4,2.4c1.3,0,2.4-1.1,2.4-2.4C-944.9,226.8-945.9,225.7-947.2,225.7z M-940.1,231c0,0.8-0.2,1.6-0.6,2.4
	c-0.6,1-1.4,1.5-2.5,1.7c-0.7,0.1-1.3,0.2-2,0.2c-1.4,0-2.8,0-4.3,0c-0.7,0-1.5,0-2.2-0.3c-1.4-0.5-2.2-1.5-2.5-2.9
	c-0.1-0.6-0.2-1.3-0.2-2c0-1.4,0-2.8,0-4.3c0-0.8,0-1.5,0.3-2.2c0.5-1.4,1.5-2.2,2.9-2.5c0.6-0.1,1.3-0.2,2-0.2c1.4,0,2.8,0,4.3,0
	c0.7,0,1.5,0,2.2,0.3c1.4,0.5,2.2,1.5,2.5,2.9c0.1,0.6,0.1,1.3,0.2,2c0,0.7,0,1.3,0,2h0C-940.1,229.1-940.1,230-940.1,231z
	 M-947.3,231.8c-2,0-3.7-1.6-3.7-3.7c0-2,1.7-3.6,3.7-3.6c2,0,3.6,1.7,3.6,3.7C-943.6,230.1-945.2,231.8-947.3,231.8z M-943.4,225.1
	c-0.5,0-0.9-0.4-0.9-0.9c0-0.5,0.4-0.9,0.9-0.8c0.5,0,0.9,0.4,0.8,0.9C-942.6,224.8-943,225.1-943.4,225.1z M-947.3,231.8
	c-2,0-3.7-1.6-3.7-3.7c0-2,1.7-3.6,3.7-3.6c2,0,3.6,1.7,3.6,3.7C-943.6,230.1-945.2,231.8-947.3,231.8z M-943.4,225.1
	c-0.5,0-0.9-0.4-0.9-0.9c0-0.5,0.4-0.9,0.9-0.8c0.5,0,0.9,0.4,0.8,0.9C-942.6,224.8-943,225.1-943.4,225.1z M-943.4,225.1
	c-0.5,0-0.9-0.4-0.9-0.9c0-0.5,0.4-0.9,0.9-0.8c0.5,0,0.9,0.4,0.8,0.9C-942.6,224.8-943,225.1-943.4,225.1z"/>
<path class="st0" d="M-983.8,220.5c0,0.7,0,1.4,0,2c0,0.2-0.1,0.3-0.3,0.3c-0.4,0-0.8,0-1.2,0c-0.6,0-0.9,0.3-0.9,0.9
	c0,0.4,0,0.8,0,1.1c0,0.2,0.1,0.3,0.3,0.3c0.6,0,1.2,0,1.7,0c0.3,0,0.4,0.1,0.4,0.4c-0.1,0.7-0.2,1.4-0.2,2.1c0,0.3-0.2,0.4-0.5,0.4
	c-0.6,0-1.1,0-1.7,0v1.7c0,1.9,0,3.9,0,5.8c0,0.5,0,0.5-0.5,0.5c-0.8,0-1.6,0-2.5,0c-0.4,0-0.5,0-0.5-0.5c0-2.3,0-4.7,0-7
	c0-0.5,0-0.5-0.5-0.5c-0.3,0-0.6,0-0.8,0c-0.2,0-0.3-0.1-0.3-0.3c0-0.7,0-1.5,0-2.2c0-0.2,0.1-0.3,0.3-0.3c0.3,0,0.7,0,1,0
	c0.2,0,0.3-0.1,0.3-0.3c0-0.8,0-1.5,0.1-2.2c0.1-1.5,1.3-2.6,2.8-2.6c0.9,0,1.7,0,2.6-0.1C-983.9,220.1-983.8,220.2-983.8,220.5z"/>
<path class="st0" d="M-899.6,223.6c-0.4,0.5-0.8,1-1.4,1.4c-0.1,0-0.1,0.1-0.1,0.2c0,0.7,0,1.4-0.2,2c-0.4,1.6-1.1,3-2.2,4.2
	c-1,1-2.1,1.7-3.5,2.2c-0.7,0.2-1.4,0.3-2.1,0.4c-0.7,0-1.4,0-2.1-0.1c-0.9-0.2-1.8-0.5-2.6-1c-0.1-0.1-0.2-0.1-0.4-0.2c0,0,0,0,0,0
	c0.8,0.1,1.6,0,2.3-0.2c0.8-0.2,1.4-0.6,2.1-1.1c-1.5-0.1-2.5-1.1-2.8-2.1c0.2,0,0.4,0.1,0.7,0c0.2,0,0.6-0.1,0.7-0.1
	c-0.7-0.2-1.3-0.5-1.7-1.1c-0.4-0.6-0.7-1.2-0.7-1.9c0.2,0.1,0.4,0.2,0.6,0.3c0.2,0.1,0.5,0.1,0.7,0.1c0,0,0,0,0,0c0,0,0,0,0,0
	c-0.2-0.1-0.4-0.3-0.5-0.4c-0.6-0.7-0.9-1.6-0.7-2.6c0.1-0.3,0.2-0.6,0.3-0.9c0,0,0,0,0.1,0c0,0,0,0,0,0c1.2,1.4,2.6,2.3,4.3,2.8
	c0.6,0.1,1.1,0.2,1.7,0.3c0,0,0.1,0,0-0.1c-0.1-0.4-0.1-0.8,0-1.1c0.2-1.3,1.2-2.3,2.5-2.4c0.1,0,0.1,0,0.2,0h0c0,0,0,0,0,0
	c0.1,0,0.2,0,0.4,0c0.1,0,0.2,0,0.3,0c0.6,0.1,1.2,0.4,1.6,0.9c0,0,0,0,0.1,0c0.6-0.1,1.2-0.4,1.8-0.7c0,0,0,0,0.1,0
	c-0.2,0.7-0.7,1.2-1.3,1.6c0.3,0,0.6-0.1,0.8-0.2C-900.1,223.8-899.8,223.7-899.6,223.6C-899.5,223.6-899.5,223.6-899.6,223.6z"/>
<path class="st0" d="M-858.8,229.1c0,0.5-0.1,1-0.1,1.5c0,0.4-0.1,0.7-0.2,1c-0.2,0.7-0.7,1.2-1.5,1.3c-0.4,0.1-0.8,0.1-1.2,0.1
	c-0.7,0-1.3,0.1-2,0.1c-0.5,0-1.1,0-1.6,0c0,0-0.1,0-0.1,0h-0.8c0,0,0,0-0.1,0c-0.3,0-0.7,0-1,0c-0.4,0-0.9,0-1.3,0
	c-0.7,0-1.3,0-2-0.1c-0.3,0-0.7-0.1-1-0.1c-0.5-0.1-0.9-0.4-1.1-0.9c-0.2-0.4-0.3-0.7-0.3-1.1c-0.1-0.6-0.1-1.3-0.1-1.9
	c0-0.6,0-1.2,0-1.8c0-0.5,0.1-1,0.1-1.5c0-0.4,0.1-0.8,0.2-1.2c0.3-0.7,0.8-1.2,1.6-1.3c0.4-0.1,0.9-0.1,1.3-0.1
	c0.5,0,1.1,0,1.6-0.1c0.6,0,1.1,0,1.7,0c0,0,0.1,0,0.1,0h1.2c0,0,0,0,0.1,0c0.4,0,0.8,0,1.2,0c0.3,0,0.7,0,1,0c0.6,0,1.3,0,1.9,0.1
	c0.3,0,0.5,0,0.8,0.1c0.6,0.1,1,0.4,1.2,0.9c0.2,0.3,0.3,0.7,0.3,1c0.1,0.5,0.1,1.1,0.1,1.6C-858.8,227.6-858.8,228.4-858.8,229.1z
	 M-867.5,230c1.3-0.7,2.6-1.3,3.9-2c-1.3-0.7-2.6-1.4-3.9-2V230z"/>
<g>
	<path class="st0" d="M-184.9,128.6h-297.9c-9.6,0-17.5-7.9-17.5-17.5v-1c0-9.6,7.9-17.5,17.5-17.5h297.9c9.6,0,17.5,7.9,17.5,17.5
		v1C-167.4,120.7-175.3,128.6-184.9,128.6z"/>
	<path class="st0" d="M-346.9,227.6h-136c-9.6,0-17.5-7.9-17.5-17.5v-1c0-9.6,7.9-17.5,17.5-17.5h136c9.6,0,17.5,7.9,17.5,17.5v1
		C-329.4,219.7-337.3,227.6-346.9,227.6z"/>
	<path class="st0" d="M-184.9,326.6h-297.9c-9.6,0-17.5-7.9-17.5-17.5v-1c0-9.6,7.9-17.5,17.5-17.5h297.9c9.6,0,17.5,7.9,17.5,17.5
		v1C-167.4,318.7-175.3,326.6-184.9,326.6z"/>
</g>
<g>
	<path class="st0" d="M243.7,33L33,243.7c-6.8,6.8-18,6.8-24.8,0L7.5,243c-6.8-6.8-6.8-18,0-24.8L218.2,7.5c6.8-6.8,18-6.8,24.8,0
		l0.7,0.7C250.5,15,250.5,26.2,243.7,33z"/>
	<path class="st0" d="M218.2,243.7L7.5,33c-6.8-6.8-6.8-18,0-24.8l0.7-0.7c6.8-6.8,18-6.8,24.8,0l210.7,210.7c6.8,6.8,6.8,18,0,24.8
		l-0.7,0.7C236.2,250.5,225,250.5,218.2,243.7z"/>
</g>
<path class="st2" d="M57.6,761.3l-8.8-16.6v16.6H34.4V715h21.6c3.7,0,7,0.7,9.6,2c2.7,1.3,4.7,3.1,6,5.4c1.3,2.3,2,4.9,2,7.7
	c0,3.1-0.9,5.8-2.6,8.2c-1.7,2.4-4.2,4.1-7.4,5.2l10.1,17.7H57.6z M48.9,735h5.8c1.4,0,2.4-0.3,3.1-0.9c0.7-0.6,1-1.6,1-3
	c0-1.2-0.4-2.2-1.1-2.9c-0.7-0.7-1.8-1-3.1-1h-5.8V735z"/>
</svg>
