<?xml version="1.0" encoding="utf-8"?>
<!-- Generator: Adobe Illustrator 22.0.1, SVG Export Plug-In . SVG Version: 6.00 Build 0)  -->
<svg version="1.1" id="Capa_1" xmlns="http://www.w3.org/2000/svg" xmlns:xlink="http://www.w3.org/1999/xlink" x="0px" y="0px"
	 viewBox="0 0 14.4 10.1" style="enable-background:new 0 0 14.4 10.1;" xml:space="preserve">
<style type="text/css">
	.st0{fill:#F2F2F2;}
	.st1{fill:#FFFFFF;}
	.st2{fill:#4D4D4D;}
</style>
<text transform="matrix(1 0 0 1 -710.9168 312.5699)"><tspan x="0" y="0" style="font-family:'Poppins-Black'; font-size:100px;">Redbone</tspan><tspan x="81.8" y="38" style="font-family:'Poppins-Light'; font-size:30px; letter-spacing:27;">RECORDS</tspan></text>
<g>
	<path class="st0" d="M765.7,270.6l-13.4-25.4v25.4h-22.2v-70.8h33c5.7,0,10.6,1,14.7,3c4.1,2,7.1,4.8,9.1,8.3c2,3.5,3,7.5,3,11.9
		c0,4.7-1.3,8.9-3.9,12.6c-2.6,3.7-6.4,6.3-11.4,7.9l15.4,27.1H765.7z M752.3,230.4h8.8c2.1,0,3.7-0.5,4.8-1.5
		c1.1-1,1.6-2.5,1.6-4.5c0-1.9-0.5-3.3-1.7-4.4c-1.1-1.1-2.7-1.6-4.8-1.6h-8.8V230.4z"/>
	<path class="st0" d="M851.2,246.3h-35.5c0.2,2.8,0.8,4.7,1.9,5.8c1.1,1,2.5,1.5,4.2,1.5c2.4,0,4.1-1.1,5.2-3.3h23.5
		c-0.8,4-2.5,7.6-5,10.7c-2.6,3.2-5.8,5.7-9.7,7.5c-3.9,1.8-8.2,2.8-12.8,2.8c-5.6,0-10.6-1.2-15-3.5c-4.4-2.3-7.8-5.7-10.2-10
		c-2.4-4.4-3.7-9.5-3.7-15.4c0-5.9,1.2-11,3.7-15.3c2.4-4.4,5.8-7.7,10.2-10c4.4-2.3,9.4-3.5,15-3.5s10.6,1.1,14.9,3.4
		c4.4,2.3,7.8,5.6,10.2,9.9c2.4,4.3,3.6,9.3,3.6,15.1C851.7,243.3,851.5,244.7,851.2,246.3z M829.2,237.2c0-2.1-0.6-3.7-1.8-4.8
		c-1.2-1-2.7-1.5-4.5-1.5c-4.1,0-6.4,2.1-7,6.3H829.2z"/>
	<path class="st0" d="M888.4,215.7c2.6,1.5,4.7,3.5,6.1,6.1v-25.3h22.2v74h-22.2v-7.7c-1.4,2.6-3.4,4.7-6.1,6.2
		c-2.6,1.5-5.8,2.2-9.4,2.2c-4.4,0-8.4-1.2-11.9-3.5c-3.5-2.3-6.3-5.6-8.3-10c-2-4.4-3.1-9.5-3.1-15.5c0-5.9,1-11.1,3.1-15.5
		c2-4.4,4.8-7.7,8.3-10c3.5-2.3,7.5-3.4,11.9-3.4C882.6,213.5,885.8,214.2,888.4,215.7z M880.5,235.4c-1.5,1.7-2.3,4-2.3,7
		s0.8,5.3,2.3,7c1.5,1.7,3.5,2.5,5.9,2.5c2.4,0,4.4-0.8,5.9-2.5c1.5-1.7,2.3-4,2.3-7s-0.8-5.3-2.3-7c-1.5-1.7-3.5-2.5-5.9-2.5
		C884,232.9,882,233.7,880.5,235.4z"/>
	<path class="st0" d="M976.3,216.9c3.5,2.3,6.3,5.6,8.3,10c2,4.4,3.1,9.5,3.1,15.5c0,5.9-1,11.1-3.1,15.5c-2,4.4-4.8,7.7-8.3,10
		c-3.5,2.3-7.5,3.5-11.9,3.5c-3.7,0-6.8-0.8-9.4-2.2c-2.6-1.5-4.7-3.5-6.1-6.2v7.7h-22.2v-74h22.2v25.3c1.4-2.6,3.4-4.6,6.1-6.1
		c2.6-1.5,5.8-2.2,9.4-2.2C968.8,213.5,972.7,214.6,976.3,216.9z M951.1,235.4c-1.5,1.7-2.3,4-2.3,7s0.8,5.3,2.3,7
		c1.5,1.7,3.5,2.5,5.9,2.5c2.4,0,4.4-0.8,5.9-2.5c1.5-1.7,2.3-4,2.3-7s-0.8-5.3-2.3-7c-1.5-1.7-3.5-2.5-5.9-2.5
		C954.6,232.9,952.6,233.7,951.1,235.4z"/>
	<path class="st0" d="M1036.8,217c4.5,2.3,8.1,5.7,10.6,10c2.6,4.4,3.9,9.5,3.9,15.3c0,5.9-1.3,11-3.9,15.4
		c-2.6,4.4-6.1,7.7-10.6,10c-4.5,2.3-9.6,3.5-15.3,3.5c-5.7,0-10.8-1.2-15.3-3.5c-4.5-2.3-8.1-5.7-10.6-10
		c-2.6-4.4-3.9-9.5-3.9-15.4c0-5.9,1.3-11,3.9-15.3c2.6-4.4,6.1-7.7,10.6-10c4.5-2.3,9.6-3.5,15.3-3.5
		C1027.1,213.5,1032.2,214.6,1036.8,217z M1016.3,235.1c-1.4,1.6-2.1,4-2.1,7.2s0.7,5.6,2,7.2c1.4,1.6,3.1,2.5,5.2,2.5
		c2.1,0,3.8-0.8,5.2-2.5c1.4-1.6,2.1-4,2.1-7.2s-0.7-5.6-2.1-7.2c-1.4-1.6-3.1-2.5-5.2-2.5S1017.7,233.5,1016.3,235.1z"/>
	<path class="st0" d="M1112.9,220.3c3.6,4.3,5.4,10.2,5.4,17.6v32.7h-22.1v-29.9c0-2.7-0.7-4.8-2.2-6.3c-1.4-1.6-3.3-2.3-5.8-2.3
		c-2.5,0-4.4,0.8-5.8,2.3c-1.4,1.6-2.1,3.7-2.1,6.3v29.9h-22.2v-56.4h22.2v8.6c1.7-2.7,4-4.8,7-6.5c2.9-1.7,6.3-2.5,10.3-2.5
		C1104.2,213.8,1109.3,215.9,1112.9,220.3z"/>
	<path class="st0" d="M1182.1,246.3h-35.5c0.2,2.8,0.8,4.7,1.9,5.8c1.1,1,2.5,1.5,4.2,1.5c2.4,0,4.1-1.1,5.2-3.3h23.5
		c-0.8,4-2.5,7.6-5.1,10.7c-2.6,3.2-5.8,5.7-9.7,7.5c-3.9,1.8-8.2,2.8-12.9,2.8c-5.6,0-10.6-1.2-15-3.5c-4.4-2.3-7.8-5.7-10.2-10
		c-2.4-4.4-3.7-9.5-3.7-15.4c0-5.9,1.2-11,3.7-15.3c2.4-4.4,5.8-7.7,10.2-10c4.4-2.3,9.4-3.5,15-3.5c5.6,0,10.6,1.1,15,3.4
		c4.4,2.3,7.8,5.6,10.2,9.9c2.4,4.3,3.6,9.3,3.6,15.1C1182.6,243.3,1182.4,244.7,1182.1,246.3z M1160.1,237.2c0-2.1-0.6-3.7-1.8-4.8
		c-1.2-1-2.7-1.5-4.5-1.5c-4.1,0-6.4,2.1-7,6.3H1160.1z"/>
	<path class="st0" d="M865.3,296.6l-3.9-5.9h-2.3v5.9h-1.4v-14.1h4.3c1.6,0,2.8,0.4,3.6,1.1c0.8,0.7,1.2,1.8,1.2,3
		c0,1.2-0.3,2.1-1,2.8s-1.6,1.1-2.9,1.2l4,5.9H865.3z M859.2,289.6h2.8c2.3,0,3.4-1,3.4-2.9c0-2-1.1-3-3.4-3h-2.8V289.6z"/>
	<path class="st0" d="M888.5,283.6v5.3h5.5v1.1h-5.5v5.4h6.1v1.2h-7.5v-14.1h7.5v1.1H888.5z"/>
	<path class="st0" d="M925.5,283.6c1.1,0.8,1.9,1.9,2.3,3.4h-1.5c-0.4-1-1-1.8-1.9-2.4c-0.9-0.6-1.9-0.9-3.2-0.9
		c-1,0-1.9,0.2-2.7,0.7c-0.8,0.5-1.4,1.2-1.9,2.1c-0.5,0.9-0.7,1.9-0.7,3.1s0.2,2.2,0.7,3.1s1.1,1.6,1.9,2c0.8,0.5,1.7,0.7,2.7,0.7
		c1.3,0,2.4-0.3,3.2-0.9c0.9-0.6,1.5-1.4,1.9-2.4h1.5c-0.5,1.4-1.2,2.6-2.3,3.4c-1.1,0.8-2.5,1.2-4.2,1.2c-1.3,0-2.4-0.3-3.5-0.9
		c-1-0.6-1.8-1.5-2.4-2.6c-0.6-1.1-0.8-2.3-0.8-3.7c0-1.4,0.3-2.6,0.8-3.7c0.6-1.1,1.3-1.9,2.4-2.6c1-0.6,2.2-0.9,3.5-0.9
		C923,282.3,924.4,282.7,925.5,283.6z"/>
	<path class="st0" d="M958.3,283.2c1,0.6,1.9,1.5,2.4,2.6c0.6,1.1,0.9,2.3,0.9,3.7s-0.3,2.6-0.9,3.7s-1.4,2-2.4,2.6
		c-1,0.6-2.2,0.9-3.5,0.9s-2.5-0.3-3.5-0.9c-1-0.6-1.9-1.5-2.4-2.6c-0.6-1.1-0.9-2.3-0.9-3.7s0.3-2.6,0.9-3.7
		c0.6-1.1,1.4-1.9,2.4-2.6c1-0.6,2.2-0.9,3.5-0.9S957.3,282.6,958.3,283.2z M952,284.3c-0.8,0.5-1.5,1.2-1.9,2.1
		c-0.5,0.9-0.7,1.9-0.7,3.1c0,1.2,0.2,2.2,0.7,3.1c0.5,0.9,1.1,1.6,1.9,2.1c0.8,0.5,1.7,0.7,2.8,0.7s2-0.2,2.8-0.7
		c0.8-0.5,1.5-1.2,1.9-2.1c0.5-0.9,0.7-1.9,0.7-3.1c0-1.2-0.2-2.2-0.7-3.1c-0.5-0.9-1.1-1.6-1.9-2.1c-0.8-0.5-1.7-0.7-2.8-0.7
		S952.8,283.8,952,284.3z"/>
	<path class="st0" d="M989.8,296.6l-3.9-5.9h-2.3v5.9h-1.4v-14.1h4.3c1.6,0,2.8,0.4,3.6,1.1c0.8,0.7,1.2,1.8,1.2,3
		c0,1.2-0.3,2.1-1,2.8s-1.6,1.1-2.9,1.2l4,5.9H989.8z M983.6,289.6h2.8c2.3,0,3.4-1,3.4-2.9c0-2-1.1-3-3.4-3h-2.8V289.6z"/>
	<path class="st0" d="M1022.4,293.3c-0.6,1.1-1.4,1.9-2.5,2.4s-2.5,0.8-4,0.8h-4.3v-14.1h4.3c2.4,0,4.2,0.6,5.5,1.9
		c1.3,1.2,1.9,3,1.9,5.2C1023.3,291,1023,292.2,1022.4,293.3z M1020.3,293.8c1-1,1.6-2.4,1.6-4.3c0-1.8-0.5-3.2-1.6-4.3
		c-1-1-2.6-1.5-4.5-1.5h-2.7v11.6h2.7C1017.7,295.3,1019.2,294.8,1020.3,293.8z"/>
	<path class="st0" d="M1052,294.8c-0.3,0.6-0.8,1-1.4,1.4c-0.6,0.4-1.4,0.5-2.3,0.5c-0.9,0-1.7-0.2-2.4-0.5
		c-0.7-0.3-1.3-0.8-1.7-1.4s-0.7-1.2-0.7-1.9h1.5c0.1,0.4,0.2,0.8,0.5,1.2c0.3,0.4,0.6,0.8,1.1,1s1.1,0.4,1.7,0.4
		c0.9,0,1.6-0.2,2-0.7c0.5-0.5,0.7-1.1,0.7-1.8c0-0.6-0.2-1.1-0.5-1.5c-0.3-0.4-0.7-0.7-1.2-0.9c-0.5-0.2-1.1-0.4-1.9-0.7
		c-0.9-0.3-1.6-0.6-2.1-0.8c-0.5-0.3-1-0.6-1.4-1.2c-0.4-0.5-0.6-1.2-0.6-2c0-1.1,0.4-1.9,1.1-2.6c0.7-0.7,1.8-1,3.1-1
		c1.3,0,2.4,0.3,3.2,1c0.8,0.7,1.2,1.5,1.4,2.4h-1.5c-0.1-0.6-0.4-1.1-0.9-1.6c-0.5-0.5-1.2-0.7-2.1-0.7c-0.8,0-1.5,0.2-2,0.6
		s-0.7,1-0.7,1.8c0,0.6,0.2,1.1,0.5,1.5s0.7,0.7,1.1,0.9c0.4,0.2,1.1,0.4,1.8,0.7c0.9,0.3,1.6,0.6,2.2,0.8c0.6,0.3,1,0.7,1.4,1.2
		c0.4,0.5,0.6,1.2,0.6,2.1C1052.4,293.6,1052.3,294.2,1052,294.8z"/>
</g>
<path class="st1" d="M-74-28.3c-1.3,0-2.4,1.1-2.4,2.4c0,1.3,1.1,2.4,2.4,2.4c1.3,0,2.4-1.1,2.4-2.4C-71.6-27.2-72.7-28.3-74-28.3z
	 M-74-28.3c-1.3,0-2.4,1.1-2.4,2.4c0,1.3,1.1,2.4,2.4,2.4c1.3,0,2.4-1.1,2.4-2.4C-71.6-27.2-72.7-28.3-74-28.3z M-68.2-26
	c0-0.6,0-1.1,0-1.7c0-0.5,0-1.1-0.1-1.6c-0.1-1.2-0.8-2-2-2.3c-0.6-0.1-1.3-0.1-1.9-0.1c-1.2,0-2.4,0-3.6,0c-0.6,0-1.2,0-1.8,0.1
	c-1,0.2-1.7,0.8-2,1.8c-0.1,0.3-0.1,0.7-0.2,1c0,1.3,0,2.6,0,3.9c0,0.8,0,1.7,0.1,2.5c0.1,1.2,0.8,2,2,2.3c0.6,0.1,1.3,0.1,2,0.2
	c1.2,0,2.4,0,3.6,0c0.5,0,1.1,0,1.6-0.1c0.5-0.1,1-0.2,1.4-0.5c0.7-0.5,0.9-1.3,1-2.1C-68.2-23.9-68.2-24.9-68.2-26
	C-68.1-26-68.1-26-68.2-26z M-74-22.2c-2,0-3.7-1.6-3.7-3.7c0-2,1.7-3.6,3.7-3.6c2,0,3.6,1.7,3.6,3.7C-70.3-23.9-72-22.2-74-22.2z
	 M-70.2-28.9c-0.5,0-0.9-0.4-0.9-0.9c0-0.5,0.4-0.9,0.9-0.8c0.5,0,0.9,0.4,0.8,0.9C-69.3-29.3-69.7-28.9-70.2-28.9z M-74-28.3
	c-1.3,0-2.4,1.1-2.4,2.4c0,1.3,1.1,2.4,2.4,2.4c1.3,0,2.4-1.1,2.4-2.4C-71.6-27.2-72.7-28.3-74-28.3z M-68.2-26c0-0.6,0-1.1,0-1.7
	c0-0.5,0-1.1-0.1-1.6c-0.1-1.2-0.8-2-2-2.3c-0.6-0.1-1.3-0.1-1.9-0.1c-1.2,0-2.4,0-3.6,0c-0.6,0-1.2,0-1.8,0.1c-1,0.2-1.7,0.8-2,1.8
	c-0.1,0.3-0.1,0.7-0.2,1c0,1.3,0,2.6,0,3.9c0,0.8,0,1.7,0.1,2.5c0.1,1.2,0.8,2,2,2.3c0.6,0.1,1.3,0.1,2,0.2c1.2,0,2.4,0,3.6,0
	c0.5,0,1.1,0,1.6-0.1c0.5-0.1,1-0.2,1.4-0.5c0.7-0.5,0.9-1.3,1-2.1C-68.2-23.9-68.2-24.9-68.2-26C-68.1-26-68.1-26-68.2-26z
	 M-74-22.2c-2,0-3.7-1.6-3.7-3.7c0-2,1.7-3.6,3.7-3.6c2,0,3.6,1.7,3.6,3.7C-70.3-23.9-72-22.2-74-22.2z M-70.2-28.9
	c-0.5,0-0.9-0.4-0.9-0.9c0-0.5,0.4-0.9,0.9-0.8c0.5,0,0.9,0.4,0.8,0.9C-69.3-29.3-69.7-28.9-70.2-28.9z M-74-28.3
	c-1.3,0-2.4,1.1-2.4,2.4c0,1.3,1.1,2.4,2.4,2.4c1.3,0,2.4-1.1,2.4-2.4C-71.6-27.2-72.7-28.3-74-28.3z M-74-38.4
	c-6.9,0-12.5,5.6-12.5,12.5s5.6,12.5,12.5,12.5c6.9,0,12.5-5.6,12.5-12.5S-67.1-38.4-74-38.4z M-66.9-23c0,0.8-0.2,1.6-0.6,2.4
	c-0.6,1-1.4,1.5-2.5,1.7c-0.7,0.1-1.3,0.2-2,0.2c-1.4,0-2.8,0-4.3,0c-0.7,0-1.5,0-2.2-0.3c-1.4-0.5-2.2-1.5-2.5-2.9
	c-0.1-0.6-0.2-1.3-0.2-2c0-1.4,0-2.8,0-4.3c0-0.8,0-1.5,0.3-2.2c0.5-1.4,1.5-2.2,2.9-2.5c0.6-0.1,1.3-0.2,2-0.2c1.4,0,2.8,0,4.3,0
	c0.7,0,1.5,0,2.2,0.3c1.4,0.5,2.2,1.5,2.5,2.9c0.1,0.6,0.1,1.3,0.2,2c0,0.7,0,1.3,0,2h0C-66.9-25-66.9-24-66.9-23z M-68.2-27.7
	c0-0.5,0-1.1-0.1-1.6c-0.1-1.2-0.8-2-2-2.3c-0.6-0.1-1.3-0.1-1.9-0.1c-1.2,0-2.4,0-3.6,0c-0.6,0-1.2,0-1.8,0.1c-1,0.2-1.7,0.8-2,1.8
	c-0.1,0.3-0.1,0.7-0.2,1c0,1.3,0,2.6,0,3.9c0,0.8,0,1.7,0.1,2.5c0.1,1.2,0.8,2,2,2.3c0.6,0.1,1.3,0.1,2,0.2c1.2,0,2.4,0,3.6,0
	c0.5,0,1.1,0,1.6-0.1c0.5-0.1,1-0.2,1.4-0.5c0.7-0.5,0.9-1.3,1-2.1c0.1-1.1,0.1-2.2,0.1-3.3c0,0,0,0,0,0
	C-68.2-26.6-68.1-27.2-68.2-27.7z M-74-22.2c-2,0-3.7-1.6-3.7-3.7c0-2,1.7-3.6,3.7-3.6c2,0,3.6,1.7,3.6,3.7
	C-70.3-23.9-72-22.2-74-22.2z M-70.2-28.9c-0.5,0-0.9-0.4-0.9-0.9c0-0.5,0.4-0.9,0.9-0.8c0.5,0,0.9,0.4,0.8,0.9
	C-69.3-29.3-69.7-28.9-70.2-28.9z M-74-28.3c-1.3,0-2.4,1.1-2.4,2.4c0,1.3,1.1,2.4,2.4,2.4c1.3,0,2.4-1.1,2.4-2.4
	C-71.6-27.2-72.7-28.3-74-28.3z M-74-28.3c-1.3,0-2.4,1.1-2.4,2.4c0,1.3,1.1,2.4,2.4,2.4c1.3,0,2.4-1.1,2.4-2.4
	C-71.6-27.2-72.7-28.3-74-28.3z M-74-28.3c-1.3,0-2.4,1.1-2.4,2.4c0,1.3,1.1,2.4,2.4,2.4c1.3,0,2.4-1.1,2.4-2.4
	C-71.6-27.2-72.7-28.3-74-28.3z M-68.2-26c0-0.6,0-1.1,0-1.7c0-0.5,0-1.1-0.1-1.6c-0.1-1.2-0.8-2-2-2.3c-0.6-0.1-1.3-0.1-1.9-0.1
	c-1.2,0-2.4,0-3.6,0c-0.6,0-1.2,0-1.8,0.1c-1,0.2-1.7,0.8-2,1.8c-0.1,0.3-0.1,0.7-0.2,1c0,1.3,0,2.6,0,3.9c0,0.8,0,1.7,0.1,2.5
	c0.1,1.2,0.8,2,2,2.3c0.6,0.1,1.3,0.1,2,0.2c1.2,0,2.4,0,3.6,0c0.5,0,1.1,0,1.6-0.1c0.5-0.1,1-0.2,1.4-0.5c0.7-0.5,0.9-1.3,1-2.1
	C-68.2-23.9-68.2-24.9-68.2-26C-68.1-26-68.1-26-68.2-26z M-74-22.2c-2,0-3.7-1.6-3.7-3.7c0-2,1.7-3.6,3.7-3.6c2,0,3.6,1.7,3.6,3.7
	C-70.3-23.9-72-22.2-74-22.2z M-70.2-28.9c-0.5,0-0.9-0.4-0.9-0.9c0-0.5,0.4-0.9,0.9-0.8c0.5,0,0.9,0.4,0.8,0.9
	C-69.3-29.3-69.7-28.9-70.2-28.9z M-74-28.3c-1.3,0-2.4,1.1-2.4,2.4c0,1.3,1.1,2.4,2.4,2.4c1.3,0,2.4-1.1,2.4-2.4
	C-71.6-27.2-72.7-28.3-74-28.3z M-74-28.3c-1.3,0-2.4,1.1-2.4,2.4c0,1.3,1.1,2.4,2.4,2.4c1.3,0,2.4-1.1,2.4-2.4
	C-71.6-27.2-72.7-28.3-74-28.3z M-74-28.3c-1.3,0-2.4,1.1-2.4,2.4c0,1.3,1.1,2.4,2.4,2.4c1.3,0,2.4-1.1,2.4-2.4
	C-71.6-27.2-72.7-28.3-74-28.3z M-68.2-26c0-0.6,0-1.1,0-1.7c0-0.5,0-1.1-0.1-1.6c-0.1-1.2-0.8-2-2-2.3c-0.6-0.1-1.3-0.1-1.9-0.1
	c-1.2,0-2.4,0-3.6,0c-0.6,0-1.2,0-1.8,0.1c-1,0.2-1.7,0.8-2,1.8c-0.1,0.3-0.1,0.7-0.2,1c0,1.3,0,2.6,0,3.9c0,0.8,0,1.7,0.1,2.5
	c0.1,1.2,0.8,2,2,2.3c0.6,0.1,1.3,0.1,2,0.2c1.2,0,2.4,0,3.6,0c0.5,0,1.1,0,1.6-0.1c0.5-0.1,1-0.2,1.4-0.5c0.7-0.5,0.9-1.3,1-2.1
	C-68.2-23.9-68.2-24.9-68.2-26C-68.1-26-68.1-26-68.2-26z M-74-22.2c-2,0-3.7-1.6-3.7-3.7c0-2,1.7-3.6,3.7-3.6c2,0,3.6,1.7,3.6,3.7
	C-70.3-23.9-72-22.2-74-22.2z M-70.2-28.9c-0.5,0-0.9-0.4-0.9-0.9c0-0.5,0.4-0.9,0.9-0.8c0.5,0,0.9,0.4,0.8,0.9
	C-69.3-29.3-69.7-28.9-70.2-28.9z M-74-28.3c-1.3,0-2.4,1.1-2.4,2.4c0,1.3,1.1,2.4,2.4,2.4c1.3,0,2.4-1.1,2.4-2.4
	C-71.6-27.2-72.7-28.3-74-28.3z"/>
<path class="st1" d="M-114.4-38.4c-6.9,0-12.5,5.6-12.5,12.5s5.6,12.5,12.5,12.5c6.9,0,12.5-5.6,12.5-12.5S-107.5-38.4-114.4-38.4z
	 M-110.6-33.5c0,0.7,0,1.4,0,2c0,0.2-0.1,0.3-0.3,0.3c-0.4,0-0.8,0-1.2,0c-0.6,0-0.9,0.3-0.9,0.9c0,0.4,0,0.8,0,1.1
	c0,0.2,0.1,0.3,0.3,0.3c0.6,0,1.2,0,1.7,0c0.3,0,0.4,0.1,0.4,0.4c-0.1,0.7-0.2,1.4-0.2,2.1c0,0.3-0.2,0.4-0.5,0.4
	c-0.6,0-1.1,0-1.7,0v1.7c0,1.9,0,3.9,0,5.8c0,0.5,0,0.5-0.5,0.5c-0.8,0-1.6,0-2.5,0c-0.4,0-0.5,0-0.5-0.5c0-2.3,0-4.7,0-7
	c0-0.5,0-0.5-0.5-0.5c-0.3,0-0.6,0-0.8,0c-0.2,0-0.3-0.1-0.3-0.3c0-0.7,0-1.5,0-2.2c0-0.2,0.1-0.3,0.3-0.3c0.3,0,0.7,0,1,0
	c0.2,0,0.3-0.1,0.3-0.3c0-0.8,0-1.5,0.1-2.2c0.1-1.5,1.3-2.6,2.8-2.6c0.9,0,1.7,0,2.6-0.1C-110.7-34-110.6-33.8-110.6-33.5z"/>
<path class="st1" d="M-33.5-38.4c-6.9,0-12.5,5.6-12.5,12.5s5.6,12.5,12.5,12.5S-21-19-21-25.9S-26.6-38.4-33.5-38.4z M-26.3-30.4
	c-0.4,0.5-0.8,1-1.4,1.4c-0.1,0-0.1,0.1-0.1,0.2c0,0.7,0,1.4-0.2,2c-0.4,1.6-1.1,3-2.2,4.2c-1,1-2.1,1.7-3.5,2.2
	c-0.7,0.2-1.4,0.3-2.1,0.4c-0.7,0-1.4,0-2.1-0.1c-0.9-0.2-1.8-0.5-2.6-1c-0.1-0.1-0.2-0.1-0.4-0.2c0,0,0,0,0,0
	c0.8,0.1,1.6,0,2.3-0.2c0.8-0.2,1.4-0.6,2.1-1.1c-1.5-0.1-2.5-1.1-2.8-2.1c0.2,0,0.4,0.1,0.7,0c0.2,0,0.6-0.1,0.7-0.1
	c-0.7-0.2-1.3-0.5-1.7-1.1c-0.4-0.6-0.7-1.2-0.7-1.9c0.2,0.1,0.4,0.2,0.6,0.3c0.2,0.1,0.5,0.1,0.7,0.1c0,0,0,0,0,0c0,0,0,0,0,0
	c-0.2-0.1-0.4-0.3-0.5-0.4c-0.6-0.7-0.9-1.6-0.7-2.6c0.1-0.3,0.2-0.6,0.3-0.9c0,0,0,0,0.1,0c0,0,0,0,0,0c1.2,1.4,2.6,2.3,4.3,2.8
	c0.6,0.1,1.1,0.2,1.7,0.3c0,0,0.1,0,0-0.1c-0.1-0.4-0.1-0.8,0-1.1c0.2-1.3,1.2-2.3,2.5-2.4c0.1,0,0.1,0,0.2,0h0c0,0,0,0,0,0
	c0.1,0,0.2,0,0.4,0c0.1,0,0.2,0,0.3,0c0.6,0.1,1.2,0.4,1.6,0.9c0,0,0,0,0.1,0c0.6-0.1,1.2-0.4,1.8-0.7c0,0,0,0,0.1,0
	c-0.2,0.7-0.7,1.2-1.3,1.6c0.3,0,0.6-0.1,0.8-0.2C-26.8-30.3-26.6-30.4-26.3-30.4C-26.3-30.4-26.3-30.4-26.3-30.4z"/>
<path class="st1" d="M7.2-38.4c-6.9,0-12.5,5.6-12.5,12.5S0.3-13.4,7.2-13.4c6.9,0,12.5-5.6,12.5-12.5S14.1-38.4,7.2-38.4z
	 M14.4-24.9c0,0.5-0.1,1-0.1,1.5c0,0.4-0.1,0.7-0.2,1c-0.2,0.7-0.7,1.2-1.5,1.3C12.2-21,11.8-21,11.4-21c-0.7,0-1.3,0.1-2,0.1
	c-0.5,0-1.1,0-1.6,0c0,0-0.1,0-0.1,0H6.9c0,0,0,0-0.1,0c-0.3,0-0.7,0-1,0c-0.4,0-0.9,0-1.3,0c-0.7,0-1.3,0-2-0.1
	c-0.3,0-0.7-0.1-1-0.1c-0.5-0.1-0.9-0.4-1.1-0.9c-0.2-0.4-0.3-0.7-0.3-1.1C0.1-23.8,0-24.4,0-25.1c0-0.6,0-1.2,0-1.8
	c0-0.5,0.1-1,0.1-1.5c0-0.4,0.1-0.8,0.2-1.2c0.3-0.7,0.8-1.2,1.6-1.3c0.4-0.1,0.9-0.1,1.3-0.1c0.5,0,1.1,0,1.6-0.1
	c0.6,0,1.1,0,1.7,0c0,0,0.1,0,0.1,0h1.2c0,0,0,0,0.1,0c0.4,0,0.8,0,1.2,0c0.3,0,0.7,0,1,0c0.6,0,1.3,0,1.9,0.1c0.3,0,0.5,0,0.8,0.1
	c0.6,0.1,1,0.4,1.2,0.9c0.2,0.3,0.3,0.7,0.3,1c0.1,0.5,0.1,1.1,0.1,1.6C14.4-26.4,14.4-25.7,14.4-24.9z M5.7-24.1
	c1.3-0.7,2.6-1.3,3.9-2c-1.3-0.7-2.6-1.4-3.9-2V-24.1z"/>
<path class="st0" d="M-74,2.7c-1.3,0-2.4,1.1-2.4,2.4c0,1.3,1.1,2.4,2.4,2.4c1.3,0,2.4-1.1,2.4-2.4C-71.6,3.8-72.7,2.7-74,2.7z
	 M-74,2.7c-1.3,0-2.4,1.1-2.4,2.4c0,1.3,1.1,2.4,2.4,2.4c1.3,0,2.4-1.1,2.4-2.4C-71.6,3.8-72.7,2.7-74,2.7z M-68.2,5
	c0-0.6,0-1.1,0-1.7c0-0.5,0-1.1-0.1-1.6c-0.1-1.2-0.8-2-2-2.3c-0.6-0.1-1.3-0.1-1.9-0.1c-1.2,0-2.4,0-3.6,0c-0.6,0-1.2,0-1.8,0.1
	c-1,0.2-1.7,0.8-2,1.8c-0.1,0.3-0.1,0.7-0.2,1c0,1.3,0,2.6,0,3.9c0,0.8,0,1.7,0.1,2.5c0.1,1.2,0.8,2,2,2.3c0.6,0.1,1.3,0.1,2,0.2
	c1.2,0,2.4,0,3.6,0c0.5,0,1.1,0,1.6-0.1c0.5-0.1,1-0.2,1.4-0.5c0.7-0.5,0.9-1.3,1-2.1C-68.2,7.1-68.2,6.1-68.2,5
	C-68.1,5-68.1,5-68.2,5z M-74,8.8c-2,0-3.7-1.6-3.7-3.7c0-2,1.7-3.6,3.7-3.6c2,0,3.6,1.7,3.6,3.7C-70.3,7.1-72,8.8-74,8.8z
	 M-70.2,2.1c-0.5,0-0.9-0.4-0.9-0.9c0-0.5,0.4-0.9,0.9-0.8c0.5,0,0.9,0.4,0.8,0.9C-69.3,1.7-69.7,2.1-70.2,2.1z M-74,2.7
	c-1.3,0-2.4,1.1-2.4,2.4c0,1.3,1.1,2.4,2.4,2.4c1.3,0,2.4-1.1,2.4-2.4C-71.6,3.8-72.7,2.7-74,2.7z M-74,8.8c-2,0-3.7-1.6-3.7-3.7
	c0-2,1.7-3.6,3.7-3.6c2,0,3.6,1.7,3.6,3.7C-70.3,7.1-72,8.8-74,8.8z M-70.2,2.1c-0.5,0-0.9-0.4-0.9-0.9c0-0.5,0.4-0.9,0.9-0.8
	c0.5,0,0.9,0.4,0.8,0.9C-69.3,1.7-69.7,2.1-70.2,2.1z M-74,2.7c-1.3,0-2.4,1.1-2.4,2.4c0,1.3,1.1,2.4,2.4,2.4c1.3,0,2.4-1.1,2.4-2.4
	C-71.6,3.8-72.7,2.7-74,2.7z M-66.9,8c0,0.8-0.2,1.6-0.6,2.4c-0.6,1-1.4,1.5-2.5,1.7c-0.7,0.1-1.3,0.2-2,0.2c-1.4,0-2.8,0-4.3,0
	c-0.7,0-1.5,0-2.2-0.3c-1.4-0.5-2.2-1.5-2.5-2.9c-0.1-0.6-0.2-1.3-0.2-2c0-1.4,0-2.8,0-4.3c0-0.8,0-1.5,0.3-2.2
	c0.5-1.4,1.5-2.2,2.9-2.5c0.6-0.1,1.3-0.2,2-0.2c1.4,0,2.8,0,4.3,0c0.7,0,1.5,0,2.2,0.3c1.4,0.5,2.2,1.5,2.5,2.9
	c0.1,0.6,0.1,1.3,0.2,2c0,0.7,0,1.3,0,2h0C-66.9,6-66.9,7-66.9,8z M-74,8.8c-2,0-3.7-1.6-3.7-3.7c0-2,1.7-3.6,3.7-3.6
	c2,0,3.6,1.7,3.6,3.7C-70.3,7.1-72,8.8-74,8.8z M-70.2,2.1c-0.5,0-0.9-0.4-0.9-0.9c0-0.5,0.4-0.9,0.9-0.8c0.5,0,0.9,0.4,0.8,0.9
	C-69.3,1.7-69.7,2.1-70.2,2.1z M-74,8.8c-2,0-3.7-1.6-3.7-3.7c0-2,1.7-3.6,3.7-3.6c2,0,3.6,1.7,3.6,3.7C-70.3,7.1-72,8.8-74,8.8z
	 M-70.2,2.1c-0.5,0-0.9-0.4-0.9-0.9c0-0.5,0.4-0.9,0.9-0.8c0.5,0,0.9,0.4,0.8,0.9C-69.3,1.7-69.7,2.1-70.2,2.1z M-70.2,2.1
	c-0.5,0-0.9-0.4-0.9-0.9c0-0.5,0.4-0.9,0.9-0.8c0.5,0,0.9,0.4,0.8,0.9C-69.3,1.7-69.7,2.1-70.2,2.1z"/>
<path class="st0" d="M-110.6-2.5c0,0.7,0,1.4,0,2c0,0.2-0.1,0.3-0.3,0.3c-0.4,0-0.8,0-1.2,0c-0.6,0-0.9,0.3-0.9,0.9
	c0,0.4,0,0.8,0,1.1c0,0.2,0.1,0.3,0.3,0.3c0.6,0,1.2,0,1.7,0c0.3,0,0.4,0.1,0.4,0.4c-0.1,0.7-0.2,1.4-0.2,2.1c0,0.3-0.2,0.4-0.5,0.4
	c-0.6,0-1.1,0-1.7,0v1.7c0,1.9,0,3.9,0,5.8c0,0.5,0,0.5-0.5,0.5c-0.8,0-1.6,0-2.5,0c-0.4,0-0.5,0-0.5-0.5c0-2.3,0-4.7,0-7
	c0-0.5,0-0.5-0.5-0.5c-0.3,0-0.6,0-0.8,0c-0.2,0-0.3-0.1-0.3-0.3c0-0.7,0-1.5,0-2.2c0-0.2,0.1-0.3,0.3-0.3c0.3,0,0.7,0,1,0
	c0.2,0,0.3-0.1,0.3-0.3c0-0.8,0-1.5,0.1-2.2c0.1-1.5,1.3-2.6,2.8-2.6c0.9,0,1.7,0,2.6-0.1C-110.7-3-110.6-2.8-110.6-2.5z"/>
<path class="st0" d="M-26.3,0.6c-0.4,0.5-0.8,1-1.4,1.4c-0.1,0-0.1,0.1-0.1,0.2c0,0.7,0,1.4-0.2,2c-0.4,1.6-1.1,3-2.2,4.2
	c-1,1-2.1,1.7-3.5,2.2c-0.7,0.2-1.4,0.3-2.1,0.4c-0.7,0-1.4,0-2.1-0.1c-0.9-0.2-1.8-0.5-2.6-1c-0.1-0.1-0.2-0.1-0.4-0.2c0,0,0,0,0,0
	c0.8,0.1,1.6,0,2.3-0.2c0.8-0.2,1.4-0.6,2.1-1.1c-1.5-0.1-2.5-1.1-2.8-2.1c0.2,0,0.4,0.1,0.7,0c0.2,0,0.6-0.1,0.7-0.1
	c-0.7-0.2-1.3-0.5-1.7-1.1C-40,4.6-40.2,4-40.2,3.3c0.2,0.1,0.4,0.2,0.6,0.3c0.2,0.1,0.5,0.1,0.7,0.1c0,0,0,0,0,0c0,0,0,0,0,0
	c-0.2-0.1-0.4-0.3-0.5-0.4c-0.6-0.7-0.9-1.6-0.7-2.6c0.1-0.3,0.2-0.6,0.3-0.9c0,0,0,0,0.1,0c0,0,0,0,0,0c1.2,1.4,2.6,2.3,4.3,2.8
	c0.6,0.1,1.1,0.2,1.7,0.3c0,0,0.1,0,0-0.1c-0.1-0.4-0.1-0.8,0-1.1c0.2-1.3,1.2-2.3,2.5-2.4c0.1,0,0.1,0,0.2,0h0c0,0,0,0,0,0
	c0.1,0,0.2,0,0.4,0c0.1,0,0.2,0,0.3,0c0.6,0.1,1.2,0.4,1.6,0.9c0,0,0,0,0.1,0c0.6-0.1,1.2-0.4,1.8-0.7c0,0,0,0,0.1,0
	C-26.9,0-27.3,0.6-28,1c0.3,0,0.6-0.1,0.8-0.2C-26.8,0.7-26.6,0.6-26.3,0.6C-26.3,0.6-26.3,0.6-26.3,0.6z"/>
<path class="st0" d="M14.4,6.1c0,0.5-0.1,1-0.1,1.5c0,0.4-0.1,0.7-0.2,1c-0.2,0.7-0.7,1.2-1.5,1.3C12.2,10,11.8,10,11.4,10
	c-0.7,0-1.3,0.1-2,0.1c-0.5,0-1.1,0-1.6,0c0,0-0.1,0-0.1,0H6.9c0,0,0,0-0.1,0c-0.3,0-0.7,0-1,0c-0.4,0-0.9,0-1.3,0
	c-0.7,0-1.3,0-2-0.1c-0.3,0-0.7-0.1-1-0.1C1.1,9.7,0.7,9.5,0.5,9C0.3,8.6,0.2,8.2,0.1,7.9C0.1,7.2,0,6.6,0,5.9c0-0.6,0-1.2,0-1.8
	c0-0.5,0.1-1,0.1-1.5c0-0.4,0.1-0.8,0.2-1.2c0.3-0.7,0.8-1.2,1.6-1.3c0.4-0.1,0.9-0.1,1.3-0.1c0.5,0,1.1,0,1.6-0.1C5.4,0,6,0,6.5,0
	c0,0,0.1,0,0.1,0h1.2c0,0,0,0,0.1,0C8.2,0,8.6,0,9,0c0.3,0,0.7,0,1,0c0.6,0,1.3,0,1.9,0.1c0.3,0,0.5,0,0.8,0.1
	c0.6,0.1,1,0.4,1.2,0.9c0.2,0.3,0.3,0.7,0.3,1c0.1,0.5,0.1,1.1,0.1,1.6C14.4,4.6,14.4,5.3,14.4,6.1z M5.7,6.9c1.3-0.7,2.6-1.3,3.9-2
	C8.3,4.2,7,3.6,5.7,2.9V6.9z"/>
<g>
	<path class="st0" d="M688.3-94.4H390.4c-9.6,0-17.5-7.9-17.5-17.5v-1c0-9.6,7.9-17.5,17.5-17.5h297.9c9.6,0,17.5,7.9,17.5,17.5v1
		C705.8-102.3,697.9-94.4,688.3-94.4z"/>
	<path class="st0" d="M526.3,4.6l-136,0c-9.6,0-17.5-7.9-17.5-17.5v-1c0-9.6,7.9-17.5,17.5-17.5h136c9.6,0,17.5,7.9,17.5,17.5v1
		C543.8-3.3,535.9,4.6,526.3,4.6z"/>
	<path class="st0" d="M688.3,103.6H390.4c-9.6,0-17.5-7.9-17.5-17.5v-1c0-9.6,7.9-17.5,17.5-17.5h297.9c9.6,0,17.5,7.9,17.5,17.5v1
		C705.8,95.7,697.9,103.6,688.3,103.6z"/>
</g>
<g>
	<path class="st0" d="M1116.9-190L906.2,20.6c-6.8,6.8-18,6.8-24.8,0l-0.7-0.7c-6.8-6.8-6.8-18,0-24.8l210.7-210.7
		c6.8-6.8,18-6.8,24.8,0l0.7,0.7C1123.7-208,1123.7-196.9,1116.9-190z"/>
	<path class="st0" d="M1091.4,20.6L880.8-190c-6.8-6.8-6.8-18,0-24.8l0.7-0.7c6.8-6.8,18-6.8,24.8,0L1116.9-4.8
		c6.8,6.8,6.8,18,0,24.8l-0.7,0.7C1109.4,27.5,1098.3,27.5,1091.4,20.6z"/>
</g>
<path class="st2" d="M933.5,554.7l-15-28.4v28.4h-24.8v-79.2h36.9c6.4,0,11.9,1.1,16.4,3.4c4.5,2.3,8,5.4,10.2,9.3
	c2.3,3.9,3.4,8.3,3.4,13.2c0,5.3-1.5,10-4.4,14.1c-2.9,4.1-7.2,7-12.7,8.8l17.2,30.3H933.5z M918.5,509.8h9.8c2.4,0,4.2-0.5,5.4-1.6
	c1.2-1.1,1.8-2.8,1.8-5.1c0-2.1-0.6-3.7-1.8-4.9c-1.2-1.2-3-1.8-5.3-1.8h-9.8V509.8z"/>
</svg>
